<?xml version="1.0" encoding="utf-8"?>
<!-- Generator: Adobe Illustrator 19.2.1, SVG Export Plug-In . SVG Version: 6.00 Build 0)  -->
<svg version="1.1" id="Ebene_1" xmlns="http://www.w3.org/2000/svg" xmlns:xlink="http://www.w3.org/1999/xlink" x="0px" y="0px"
	 viewBox="0 0 359.8 138.1" style="enable-background:new 0 0 359.8 138.1;" xml:space="preserve">
<style type="text/css">
	.st0{fill:#FFFFFF;}
</style>
<polygon class="st0" points="111.9,133.8 102.3,119.5 102.3,133.8 99.9,133.8 99.9,94.5 102.3,94.5 102.3,119.4 111.5,107.1 
	114.4,107.1 105,119.2 115.2,133.8 "/>
<rect x="120.9" y="94.5" class="st0" width="2.4" height="39.3"/>
<g>
	<path class="st0" d="M135.4,99.5c0-0.4-0.1-0.8-0.2-1.1c-0.2-0.3-0.4-0.6-0.6-0.8c-0.3-0.2-0.6-0.3-0.9-0.3c-0.3,0-0.6,0.1-0.9,0.3
		c-0.3,0.2-0.5,0.4-0.6,0.8c-0.2,0.3-0.2,0.7-0.2,1.1c0,0.4,0.1,0.8,0.2,1.1c0.2,0.3,0.4,0.6,0.6,0.8c0.3,0.2,0.6,0.3,0.9,0.3
		s0.6-0.1,0.9-0.3s0.5-0.4,0.6-0.8C135.3,100.3,135.4,99.9,135.4,99.5 M134.8,107.1h-2.4v26.8h2.4V107.1z"/>
	<path class="st0" d="M160.1,133.8v-18.6c0-1.2-0.1-2.3-0.3-3.4c-0.2-1-0.6-2-1.1-2.7c-0.5-0.8-1.2-1.4-2.1-1.8
		c-0.9-0.4-2-0.7-3.3-0.7s-2.6,0.3-3.6,0.9c-1.1,0.6-2,1.4-2.8,2.4s-1.4,2.3-1.8,3.7l-0.1-0.1c0.1-0.6,0.2-1.3,0.2-2
		c0.1-0.7,0.1-1.5,0.1-2.3s0-1.5,0-2.1h-2.4v26.8h2.4V121c0-1.8,0.2-3.4,0.6-4.9s0.9-2.7,1.5-3.8c0.7-1.1,1.5-1.9,2.4-2.5
		s1.9-0.9,3.1-0.9s2.2,0.3,2.9,0.9c0.7,0.6,1.2,1.4,1.5,2.5s0.4,2.5,0.4,4v17.4h2.4V133.8z"/>
	<path class="st0" d="M171.2,99.5c0-0.4-0.1-0.8-0.2-1.1c-0.2-0.3-0.4-0.6-0.6-0.8c-0.3-0.2-0.6-0.3-0.9-0.3s-0.6,0.1-0.9,0.3
		s-0.5,0.4-0.6,0.8c-0.2,0.3-0.2,0.7-0.2,1.1c0,0.4,0.1,0.8,0.2,1.1c0.2,0.3,0.4,0.6,0.6,0.8c0.3,0.2,0.6,0.3,0.9,0.3
		s0.6-0.1,0.9-0.3s0.5-0.4,0.6-0.8C171.2,100.3,171.2,99.9,171.2,99.5 M170.6,107.1h-2.4v26.8h2.4V107.1z"/>
</g>
<polygon class="st0" points="194.9,133.8 184.8,119.2 194.2,107.1 191.3,107.1 182.1,119.4 182.1,94.5 179.7,94.5 179.7,133.8 
	182.1,133.8 182.1,119.5 191.7,133.8 "/>
<g>
	<path class="st0" d="M218.1,133.8V107h-2.4v12.8c0,1.8-0.2,3.4-0.6,4.9s-0.9,2.7-1.5,3.8c-0.7,1.1-1.5,1.9-2.4,2.5
		s-1.9,0.9-3.1,0.9s-2.2-0.3-2.9-0.9c-0.7-0.6-1.2-1.4-1.5-2.5s-0.4-2.5-0.4-4v-17.4h-2.4v18.6c0,1.2,0.1,2.3,0.3,3.4
		c0.2,1,0.6,2,1.1,2.7c0.5,0.8,1.2,1.4,2.1,1.8c0.9,0.4,2,0.7,3.3,0.7s2.6-0.3,3.6-0.9c1.1-0.6,2-1.4,2.8-2.4s1.4-2.3,1.8-3.7
		l0.1,0.1c-0.1,0.6-0.2,1.2-0.2,2c-0.1,0.8-0.1,1.5-0.1,2.3s0,1.5,0,2.1L218.1,133.8L218.1,133.8z"/>
	<path class="st0" d="M257.5,133.8v-18.6c0-2-0.3-3.6-0.8-4.9c-0.5-1.3-1.3-2.2-2.3-2.8s-2.2-0.9-3.6-0.9c-1,0-1.9,0.2-2.6,0.5
		c-0.8,0.3-1.5,0.7-2.1,1.2s-1.1,1.1-1.6,1.7c-0.4,0.6-0.8,1.2-1.1,1.8c-0.3,0.6-0.5,1.2-0.7,1.7c0-0.4,0-0.9-0.1-1.4
		c-0.1-0.6-0.2-1.2-0.5-1.8c-0.2-0.6-0.6-1.2-1.1-1.8c-0.5-0.5-1.1-1-1.8-1.3c-0.8-0.3-1.7-0.5-2.8-0.5c-1.3,0-2.5,0.3-3.5,0.9
		c-1.1,0.6-2,1.4-2.8,2.4s-1.4,2.3-1.8,3.7l-0.1-0.1c0.1-0.6,0.2-1.3,0.2-2c0.1-0.7,0.1-1.5,0.1-2.3s0-1.5,0-2.1H226V134h2.4v-12.7
		c0-1.8,0.2-3.5,0.6-5s0.9-2.8,1.6-3.9c0.7-1.1,1.5-1.9,2.4-2.5s1.9-0.9,2.9-0.9s1.8,0.2,2.4,0.6c0.6,0.4,1.1,0.9,1.4,1.6
		c0.3,0.7,0.5,1.5,0.7,2.4c0.1,0.9,0.2,1.8,0.2,2.9V134h2.4v-12.7c0-1.9,0.2-3.7,0.6-5.2s1-2.8,1.7-3.8s1.5-1.8,2.4-2.4
		c0.9-0.5,1.8-0.8,2.8-0.8c1.2,0,2.2,0.3,2.8,0.9c0.7,0.6,1.1,1.5,1.4,2.6s0.4,2.4,0.4,3.9v17.4L257.5,133.8L257.5,133.8z"/>
	<path class="st0" d="M117.1,87.1V60.3h-2.4v12.8c0,1.8-0.2,3.4-0.6,4.9c-0.4,1.5-0.9,2.7-1.5,3.8c-0.7,1.1-1.5,1.9-2.4,2.5
		s-1.9,0.9-3.1,0.9c-1.2,0-2.2-0.3-2.9-0.9s-1.2-1.4-1.5-2.5s-0.4-2.5-0.4-4V60.3h-2.4v18.6c0,1.2,0.1,2.3,0.3,3.4
		c0.2,1,0.6,2,1.1,2.7c0.5,0.8,1.2,1.4,2.1,1.8c0.9,0.4,2,0.7,3.3,0.7s2.6-0.3,3.6-0.9c1.1-0.6,2-1.4,2.8-2.4s1.4-2.3,1.8-3.7
		l0.1,0.1c-0.1,0.6-0.2,1.2-0.2,2c-0.1,0.8-0.1,1.5-0.1,2.3s0,1.5,0,2.1L117.1,87.1L117.1,87.1z"/>
	<path class="st0" d="M142.4,87.1V68.4c0-1.2-0.1-2.3-0.3-3.4c-0.2-1-0.6-2-1.1-2.7c-0.5-0.8-1.2-1.4-2.1-1.8s-2-0.7-3.3-0.7
		c-1.3,0-2.6,0.3-3.6,0.9c-1.1,0.6-2,1.4-2.8,2.4c-0.8,1-1.4,2.3-1.8,3.7l-0.1-0.1c0.1-0.6,0.2-1.3,0.2-2c0.1-0.7,0.1-1.5,0.1-2.3
		s0-1.5,0-2.1h-2.5v26.8h2.4V74.3c0-1.8,0.2-3.4,0.6-4.9c0.4-1.5,0.9-2.7,1.5-3.8c0.7-1.1,1.5-1.9,2.4-2.5s1.9-0.9,3.1-0.9
		c1.2,0,2.2,0.3,2.9,0.9c0.7,0.6,1.2,1.4,1.5,2.5c0.3,1.1,0.4,2.5,0.4,4V87L142.4,87.1L142.4,87.1z"/>
	<path class="st0" d="M153.6,53.3c0-0.4-0.1-0.8-0.2-1.1c-0.2-0.3-0.4-0.6-0.6-0.8c-0.3-0.2-0.6-0.3-0.9-0.3s-0.6,0.1-0.9,0.3
		c-0.3,0.2-0.5,0.4-0.6,0.8c-0.2,0.3-0.2,0.7-0.2,1.1s0.1,0.8,0.2,1.1c0.2,0.3,0.4,0.6,0.6,0.8c0.3,0.2,0.6,0.3,0.9,0.3
		s0.6-0.1,0.9-0.3c0.3-0.2,0.5-0.4,0.6-0.8C153.5,54.1,153.6,53.7,153.6,53.3 M152.9,60.9h-2.4v26.8h2.4V60.9z"/>
	<path class="st0" d="M178.8,60.3h-2.7L170,80.2c-0.2,0.7-0.4,1.4-0.6,2c-0.2,0.7-0.4,1.4-0.6,2l0,0c-0.2-0.7-0.4-1.4-0.5-2.1
		c-0.2-0.7-0.4-1.4-0.6-2.2l-5.9-19.7h-2.9l8.6,26.8h2.5L178.8,60.3z"/>
	<path class="st0" d="M199.1,70.5c0-1.4-0.2-2.8-0.5-4c-0.3-1.3-0.8-2.4-1.5-3.4s-1.6-1.8-2.6-2.3c-1.1-0.6-2.4-0.9-3.9-0.9
		s-2.8,0.4-4,1c-1.2,0.7-2.2,1.7-3,2.9c-0.8,1.2-1.5,2.7-1.9,4.4c-0.4,1.7-0.7,3.5-0.7,5.5c0,4.7,0.9,8.1,2.6,10.4s4.2,3.4,7.6,3.4
		c1.4,0,2.7-0.1,3.9-0.4c1.2-0.3,2.3-0.7,3.2-1.1l-0.2-2.6c-0.5,0.3-1.2,0.6-1.9,0.9c-0.7,0.3-1.5,0.5-2.2,0.6
		c-0.8,0.2-1.6,0.2-2.4,0.2c-1.8,0-3.3-0.4-4.5-1.3s-2.1-2.3-2.7-4.2c-0.6-1.9-0.8-4.4-0.7-7.5h15.5c0-0.3,0-0.7,0-0.9
		C199.1,70.9,199.1,70.7,199.1,70.5 M196.4,69.7h-12.7c0.2-1.6,0.6-2.9,1.2-4s1.3-2,2.3-2.7c0.9-0.6,2-0.9,3.1-1
		c1.3,0,2.4,0.3,3.3,1c0.9,0.6,1.6,1.5,2.1,2.7C196.2,66.9,196.5,68.2,196.4,69.7"/>
	<path class="st0" d="M216.2,59.9c-1.3-0.2-2.4-0.1-3.3,0.3c-1,0.4-1.7,1-2.4,1.7c-0.7,0.8-1.2,1.7-1.6,2.7s-0.7,2-0.9,3l-0.1-0.1
		c0.1-0.8,0.2-1.7,0.3-2.6c0.1-0.9,0.2-1.7,0.2-2.5s0.1-1.5,0.1-2.2H206V87h2.4V76.4c0-3.2,0.3-5.9,0.8-8.1c0.6-2.2,1.4-3.7,2.6-4.7
		s2.6-1.3,4.4-1V59.9z"/>
	<path class="st0" d="M234.3,79.3c0-1.3-0.2-2.4-0.6-3.2c-0.4-0.8-1-1.5-1.7-2s-1.5-0.9-2.3-1.2c-0.8-0.3-1.7-0.6-2.5-0.9
		s-1.6-0.6-2.3-1c-0.7-0.4-1.2-0.9-1.7-1.5c-0.4-0.6-0.6-1.5-0.6-2.5s0.2-1.8,0.6-2.6c0.4-0.7,1-1.3,1.9-1.7
		c0.8-0.4,1.9-0.6,3.1-0.6c0.8,0,1.6,0.1,2.4,0.3c0.8,0.2,1.6,0.4,2.4,0.7l0.1-2.6c-0.7-0.2-1.5-0.3-2.3-0.5
		c-0.8-0.1-1.5-0.2-2.3-0.2c-1.8,0-3.3,0.3-4.6,1c-1.3,0.6-2.2,1.5-2.9,2.7c-0.7,1.1-1,2.4-1,3.9c0,1.4,0.2,2.5,0.6,3.4
		s1,1.6,1.7,2.1s1.5,0.9,2.3,1.2c0.8,0.3,1.7,0.6,2.5,0.9s1.6,0.6,2.3,0.9c0.7,0.4,1.3,0.8,1.7,1.4c0.4,0.6,0.6,1.4,0.6,2.4
		c0,1.1-0.3,2-0.8,2.8s-1.3,1.4-2.2,1.8c-0.9,0.4-2,0.6-3.3,0.6c-0.9,0-1.8-0.1-2.7-0.3c-0.9-0.2-1.7-0.4-2.4-0.7l-0.1,2.9
		c0.7,0.2,1.4,0.3,2.3,0.4c0.8,0.1,1.7,0.1,2.5,0.1c1.4,0,2.7-0.2,3.8-0.7c1.1-0.4,2.1-1,2.9-1.8s1.4-1.6,1.8-2.6
		C234.1,81.4,234.3,80.4,234.3,79.3"/>
	<path class="st0" d="M244.6,52.8c0-0.4-0.1-0.8-0.2-1.1c-0.2-0.3-0.4-0.6-0.6-0.8c-0.3-0.2-0.6-0.3-0.9-0.3s-0.6,0.1-0.9,0.3
		c-0.3,0.2-0.5,0.4-0.6,0.8c-0.2,0.3-0.2,0.7-0.2,1.1s0.1,0.8,0.2,1.1c0.2,0.3,0.4,0.6,0.6,0.8c0.3,0.2,0.6,0.3,0.9,0.3
		s0.6-0.1,0.9-0.3c0.3-0.2,0.5-0.4,0.6-0.8S244.6,53.2,244.6,52.8 M244,60.3h-2.4v26.8h2.4V60.3z"/>
	<path class="st0" d="M264.2,87v-2.6c-0.5,0.2-1,0.3-1.6,0.4s-1.2,0.1-1.8,0.1c-0.7,0-1.3-0.1-1.8-0.3c-0.5-0.2-0.9-0.5-1.1-1
		c-0.3-0.5-0.5-1.2-0.6-2.1s-0.2-2-0.2-3.3V62.6h7.1v-2.3h-7.1v-10l-2.4,0.8v9.2h-5.3v2.3h5.3v17.2c0,1.8,0.2,3.2,0.5,4.3
		c0.3,1.1,0.9,2,1.7,2.5c0.8,0.6,1.9,0.8,3.3,0.8c0.7,0,1.4-0.1,2.1-0.1C263,87.2,263.6,87.1,264.2,87"/>
	<path class="st0" d="M283.7,51.5c0-0.6-0.2-1.1-0.5-1.5s-0.7-0.6-1.3-0.6c-0.5,0-0.9,0.2-1.3,0.6c-0.3,0.4-0.5,0.9-0.5,1.5
		s0.2,1.1,0.5,1.5s0.7,0.6,1.3,0.6c0.5,0,0.9-0.2,1.3-0.6C283.5,52.7,283.6,52.1,283.7,51.5 M275.4,51.5c0-0.6-0.2-1.1-0.5-1.5
		s-0.7-0.6-1.3-0.6c-0.5,0-0.9,0.2-1.3,0.6c-0.3,0.4-0.5,0.9-0.5,1.5s0.2,1.1,0.5,1.5s0.7,0.6,1.3,0.6c0.5,0,0.9-0.2,1.3-0.6
		C275.2,52.7,275.4,52.1,275.4,51.5 M285.4,87.1c0-0.8,0-1.7,0-2.7s0-1.9,0-2.9s0-2,0-2.9V68.4c0-1.2-0.1-2.3-0.3-3.4
		c-0.2-1-0.6-1.9-1.2-2.7c-0.6-0.8-1.3-1.4-2.3-1.8s-2.1-0.6-3.6-0.7c-1.5,0-2.9,0.2-4.2,0.6c-1.3,0.4-2.4,0.9-3.5,1.5l0.3,2.7
		c0.7-0.5,1.4-1,2.2-1.3c0.8-0.4,1.6-0.6,2.4-0.8c0.8-0.2,1.6-0.3,2.3-0.3c1.4,0,2.5,0.3,3.3,0.8c0.8,0.6,1.4,1.4,1.7,2.4
		c0.3,1.1,0.5,2.4,0.5,3.9v2.5c-2.3,0-4.3,0.2-6.1,0.7c-1.7,0.5-3.2,1.1-4.4,2c-1.2,0.8-2.1,1.8-2.6,3c-0.6,1.1-0.9,2.3-0.9,3.7
		c0,1.4,0.3,2.6,0.8,3.5s1.3,1.6,2.2,2.1c0.9,0.5,1.9,0.7,3.1,0.7c1.3,0,2.6-0.3,3.6-0.9c1.1-0.6,2-1.4,2.8-2.4s1.3-2.1,1.7-3.3
		l0.1,0.1c-0.1,0.8-0.2,1.7-0.2,2.8c0,1-0.1,2.1-0.1,3.3L285.4,87.1L285.4,87.1z M282.9,74.6c0,1.3-0.2,2.6-0.5,3.8
		c-0.3,1.2-0.8,2.4-1.5,3.4c-0.6,1-1.4,1.8-2.3,2.4s-1.9,0.9-3,0.9c-0.8,0-1.6-0.2-2.2-0.5c-0.6-0.4-1.1-0.9-1.4-1.5
		c-0.3-0.7-0.5-1.5-0.5-2.4c0-0.6,0.1-1.1,0.3-1.7c0.2-0.6,0.5-1.2,1-1.7c0.5-0.6,1.2-1,2-1.5c0.9-0.4,2-0.8,3.3-1
		c1.3-0.3,2.9-0.4,4.8-0.4L282.9,74.6L282.9,74.6z"/>
	<path class="st0" d="M303.6,87v-2.6c-0.5,0.2-1,0.3-1.6,0.4s-1.2,0.1-1.8,0.1c-0.7,0-1.3-0.1-1.8-0.3c-0.5-0.2-0.9-0.5-1.1-1
		c-0.3-0.5-0.5-1.2-0.6-2.1s-0.2-2-0.2-3.3V62.6h7.1v-2.3h-7.1v-10l-2.4,0.8v9.2h-5.3v2.3h5.3v17.2c0,1.8,0.1,3.2,0.5,4.3
		c0.3,1.1,0.9,2,1.7,2.5c0.8,0.6,1.9,0.8,3.3,0.8c0.7,0,1.4-0.1,2.1-0.1C302.4,87.2,303.1,87.1,303.6,87"/>
	<path class="st0" d="M322.3,79.3c0-1.3-0.2-2.4-0.6-3.2c-0.4-0.8-1-1.5-1.7-2s-1.5-0.9-2.3-1.2c-0.8-0.3-1.7-0.6-2.5-0.9
		s-1.6-0.6-2.3-1c-0.7-0.4-1.3-0.9-1.7-1.5c-0.4-0.6-0.6-1.5-0.6-2.5s0.2-1.8,0.6-2.6c0.4-0.7,1-1.3,1.9-1.7
		c0.8-0.4,1.9-0.6,3.1-0.6c0.8,0,1.6,0.1,2.4,0.3c0.8,0.2,1.6,0.4,2.4,0.7l0.1-2.6c-0.7-0.2-1.5-0.3-2.3-0.5
		c-0.8-0.1-1.5-0.2-2.3-0.2c-1.8,0-3.3,0.3-4.6,1c-1.3,0.6-2.2,1.5-2.9,2.7c-0.7,1.1-1,2.4-1,3.9c0,1.4,0.2,2.5,0.6,3.4
		s1,1.6,1.7,2.1s1.5,0.9,2.3,1.2c0.8,0.3,1.7,0.6,2.5,0.9s1.6,0.6,2.3,0.9c0.7,0.4,1.3,0.8,1.7,1.4c0.4,0.6,0.6,1.4,0.6,2.4
		c0,1.1-0.3,2-0.8,2.8s-1.3,1.4-2.2,1.8c-0.9,0.4-2,0.6-3.3,0.6c-0.9,0-1.8-0.1-2.7-0.3c-0.9-0.2-1.7-0.4-2.4-0.7l-0.1,2.9
		c0.7,0.2,1.4,0.3,2.3,0.4c0.8,0.1,1.7,0.1,2.5,0.1c1.4,0,2.7-0.2,3.8-0.7c1.1-0.4,2.1-1,2.9-1.8s1.4-1.6,1.8-2.6
		C322.1,81.4,322.3,80.4,322.3,79.3"/>
	<path class="st0" d="M285.2,119.2c0-2.7-0.3-5-1-6.9c-0.6-1.9-1.6-3.3-2.8-4.3c-1.2-1-2.7-1.4-4.5-1.4c-1.1,0-2.2,0.2-3.2,0.7
		s-1.8,1.1-2.5,2s-1.3,2-1.7,3.2l-0.1-0.1c0.1-0.5,0.2-1,0.2-1.6c0.1-0.6,0.1-1.2,0.1-1.8s0-1.2,0-1.7v-13h-4.1v38.6
		c0.8,0.3,1.6,0.5,2.4,0.6c0.8,0.2,1.6,0.3,2.5,0.4c0.9,0.1,1.8,0.1,2.9,0.1c2.4,0,4.5-0.6,6.3-1.8c1.7-1.2,3.1-2.9,4-5.1
		C284.7,125.1,285.2,122.4,285.2,119.2 M280.9,119.7c0,2.6-0.3,4.6-0.9,6.2c-0.6,1.6-1.4,2.7-2.5,3.5c-1.1,0.7-2.3,1.1-3.8,1.1
		c-0.8,0-1.5-0.1-2.1-0.2c-0.6-0.1-1.3-0.3-1.8-0.5v-8.9c0-0.9,0.1-1.9,0.2-2.8c0.2-1,0.4-1.9,0.7-2.8c0.3-0.9,0.7-1.7,1.2-2.4
		s1.1-1.3,1.7-1.7c0.7-0.4,1.4-0.6,2.2-0.6c1.1,0,2.1,0.4,2.8,1.1c0.7,0.7,1.3,1.7,1.6,3.1C280.8,116.1,280.9,117.7,280.9,119.7"/>
	<path class="st0" d="M310.5,120c0-2.4-0.3-4.5-0.8-6.2s-1.2-3.1-2.1-4.2c-0.9-1.1-2-1.8-3.2-2.4c-1.2-0.5-2.6-0.7-4-0.7
		c-1.7,0-3.2,0.4-4.6,1.1c-1.3,0.7-2.5,1.7-3.4,3c-1,1.3-1.7,2.8-2.2,4.5s-0.7,3.5-0.8,5.5c0,3.1,0.4,5.7,1.3,7.7
		c0.8,2,2,3.5,3.5,4.5s3.3,1.4,5.3,1.4c1.7,0,3.2-0.4,4.5-1.1c1.4-0.7,2.5-1.7,3.5-3s1.7-2.8,2.2-4.5
		C310.2,123.9,310.5,122.1,310.5,120 M306.2,120.3c0,1.7-0.2,3.2-0.5,4.4c-0.3,1.3-0.8,2.3-1.4,3.1s-1.2,1.4-2,1.8
		c-0.8,0.4-1.5,0.6-2.4,0.6c-2.1,0-3.6-0.9-4.7-2.6c-1.1-1.7-1.6-4.2-1.6-7.4c0-1.7,0.2-3.1,0.5-4.3s0.8-2.2,1.4-3s1.3-1.4,2-1.7
		c0.8-0.4,1.5-0.6,2.4-0.6c1.4,0,2.5,0.4,3.5,1.1c0.9,0.8,1.6,1.8,2.1,3.3C306,116.5,306.2,118.3,306.2,120.3"/>
	<path class="st0" d="M334.6,133.9v-18.7c0-1.2-0.1-2.3-0.3-3.3c-0.2-1-0.6-1.9-1.1-2.7s-1.2-1.4-2.1-1.8c-0.9-0.4-2-0.7-3.2-0.7
		c-1.3,0-2.4,0.3-3.5,0.8c-1,0.5-1.9,1.2-2.7,2.2c-0.7,0.9-1.3,2-1.8,3.3l-0.1-0.1c0.1-0.5,0.2-1.1,0.2-1.8c0.1-0.7,0.1-1.3,0.1-2
		s0-1.3,0-1.8h-3.9v26.8h4.1V121c0-1.5,0.2-2.9,0.5-4.1c0.3-1.3,0.8-2.4,1.3-3.3c0.6-0.9,1.2-1.7,2-2.2s1.6-0.8,2.6-0.8
		s1.8,0.2,2.3,0.7c0.6,0.5,1,1.1,1.2,2s0.3,2,0.3,3.2v17.3h4.1V133.9z"/>
	<path class="st0" d="M359.8,133.9v-18.7c0-1.2-0.1-2.3-0.3-3.3c-0.2-1-0.6-1.9-1.1-2.7s-1.2-1.4-2.1-1.8c-0.9-0.4-2-0.7-3.2-0.7
		c-1.3,0-2.4,0.3-3.5,0.8c-1,0.5-1.9,1.2-2.7,2.2c-0.7,0.9-1.3,2-1.8,3.3l-0.1-0.1c0.1-0.5,0.2-1.1,0.2-1.8c0.1-0.7,0.1-1.3,0.1-2
		s0-1.3,0-1.8h-3.9v26.8h4.1V121c0-1.5,0.2-2.9,0.5-4.1c0.3-1.3,0.8-2.4,1.3-3.3c0.6-0.9,1.2-1.7,2-2.2s1.6-0.8,2.6-0.8
		s1.8,0.2,2.3,0.7c0.6,0.5,1,1.1,1.2,2s0.3,2,0.3,3.2v17.3h4.1V133.9z"/>
	<path class="st0" d="M0,73.9c0,11.7,0,20.7,0,32.5c0,12.7,20.6,24.6,60.8,31.7V73.7C32.3,82.9,0.8,83.4,0,73.9"/>
	<path class="st0" d="M28.4,55.9c-8.9,2.7-23.6,9-24.2,15c-0.5,4.8,10,7,24.2,5.4V55.9z"/>
	<path class="st0" d="M30.2,20v56.2c12.8-1.7,24.5-4.8,35.4-10v64.4l15,3.3V0L30.2,20z"/>
</g>
</svg>
