<?xml version="1.0" encoding="utf-8"?>
<!-- Generator: Adobe Illustrator 19.2.1, SVG Export Plug-In . SVG Version: 6.00 Build 0)  -->
<svg version="1.1" id="Ebene_1" xmlns="http://www.w3.org/2000/svg" xmlns:xlink="http://www.w3.org/1999/xlink" x="0px" y="0px"
	 viewBox="0 0 180.3 157.3" style="enable-background:new 0 0 180.3 157.3;" xml:space="preserve">
<style type="text/css">
	.st0{fill:#FFFFFF;}
</style>
<g>
	<path class="st0" d="M35.1,84.4c3.6-2.8,5.4-6.7,5.4-11.7c0-3.5-0.8-6.4-2.3-8.4c-1.5-2.1-4-3.6-7.5-4.3v-0.4
		c2.5-0.4,4.6-1.7,6.1-3.8c1.5-2.1,2.3-4.8,2.3-8c0-4.8-1.8-8.3-5.2-10.5C30.4,35.1,24.8,34,17,34H0v54.5h20.4
		C26.6,88.6,31.6,87.2,35.1,84.4z M11.7,43.5h6.1c3.3,0,5.7,0.4,7.2,1.4c1.5,0.9,2.3,2.4,2.3,4.5c0,2.3-0.7,3.8-2.1,4.8
		c-1.4,0.9-3.6,1.4-6.8,1.4h-6.7V43.5L11.7,43.5z M11.7,79V64.7h7.2c6.5,0,9.7,2.3,9.7,6.8c0,2.5-0.8,4.4-2.3,5.6s-3.8,1.8-7,1.8
		L11.7,79L11.7,79z"/>
	<rect x="49.6" y="34" class="st0" width="11.6" height="54.5"/>
	<path class="st0" d="M169.6,34v25.9c0,3,0.2,7.9,0.6,15h-0.3L146.2,34h-14.6v54.5h10.3V62.9c0-3.1-0.3-8.3-0.7-15.6h0.3l23.7,41.3
		h14.7V34H169.6L169.6,34z"/>
	<path class="st0" d="M170.8,117c-2.9,0-5.3,2-6,4.7H96.9v-4.9h-4.6v4.9H14.5c-0.6-2.7-3.1-4.7-6-4.7c-3.4,0-6.2,2.8-6.2,6.2
		s2.8,6.2,6.2,6.2c3.1,0,5.6-2.3,6-5.2h73.7l-31.1,17.1c-1.9-2.1-5-2.7-7.5-1.3c-3,1.6-4.1,5.3-2.5,8.4c1.6,3,5.3,4.1,8.4,2.5
		c2.7-1.4,3.8-4.7,2.8-7.4l34.8-19.1v20.7c-2.9,0.5-5.2,3-5.2,6c0,3.4,2.8,6.2,6.2,6.2c3.4,0,6.2-2.8,6.2-6.2c0-2.9-2-5.3-4.7-6
		v-20.9h0.5l35.2,19.2c-0.8,2.7,0.4,5.6,3,7c3,1.6,6.7,0.6,8.4-2.5c1.6-3,0.5-6.7-2.5-8.4c-2.7-1.4-6-0.7-7.8,1.6l-31.2-17h63.6
		c0.4,3,3,5.2,6,5.2c3.4,0,6.2-2.8,6.2-6.2C177,119.8,174.2,117,170.8,117z"/>
	<path class="st0" d="M108.9,20.8c5.3,1.9,9.6,4.2,12.6,5.8c-0.8,6.5-2.7,12.5-5.3,17.3c-5-6.3-12.8-10.3-21.5-10.3
		c-15.2,0-27.4,12.3-27.4,27.4c0,12.5,8.4,23,19.8,26.3v-12c-5.2-2.8-8.6-8.2-8.6-14.4c0-9,7.3-16.3,16.3-16.3
		c6,0,11.3,3.3,14.2,8.2c-2.1,1.6-4.4,2.8-6.8,3.3c-1.6-2.2-4.2-3.6-7-3.6c-4.8,0-8.7,3.9-8.7,8.7c0,3.8,2.5,7.1,6,8.2v18.8h4.6
		V69.6c3.9-0.9,6.8-4.3,6.8-8.5c0-0.1,0-0.2-0.1-0.3c2.5-0.6,4.8-1.8,7-3.3c0.3,1.1,0.4,2.2,0.4,3.4c0,6.4-3.7,12-9.1,14.7v11.8
		c11.6-3.1,20.3-13.8,20.3-26.4c0-4.5-1.1-8.7-3-12.5c3.8-6,6.4-13.6,7.4-22.1c2.1,0.1,9.7-0.1,18.7-2.3c9.4-2.1,12.7-7.4,16.6-8.4
		c8.2-2.1,17.8,5.8,18.1,6.2c0-0.1,1.5-3.1-8.3-10.4c-14-10.3-34-9.2-42.6,1.2c-3.5,3.3-4.2,6.8-4.2,9.4c-1.3-4.4-4-10.3-10.4-15.2
		C102-3.5,83.9-0.6,72.8,5.2c-13.3,6.3-20,12.8-22.9,23.2c4.5-4.1,12.8-9.6,28.4-11.8C89.4,15,98.9,16.9,108.9,20.8z"/>
	<path class="st0" d="M9.1,109c0.9-0.8,1.4-1.8,1.4-3.1c0-2-1.1-3.2-3.4-3.6v-0.1c0.9-0.2,1.7-0.6,2.2-1.1c0.5-0.6,0.8-1.3,0.8-2.2
		c0-1.3-0.4-2.2-1.3-2.8c-0.9-0.6-2.3-0.9-4.3-0.9H0.1v15h5.2C7,110.2,8.2,109.8,9.1,109z M2,96.6h2.6c1.3,0,2.3,0.2,2.9,0.6
		c0.6,0.4,0.9,1,0.9,1.8c0,0.9-0.3,1.6-0.8,2c-0.6,0.4-1.4,0.6-2.6,0.6H2.1L2,96.6L2,96.6z M2,108.7V103h3c1.3,0,2.3,0.3,2.9,0.6
		c0.6,0.4,0.9,1.1,0.9,2.1s-0.3,1.8-0.9,2.2c-0.6,0.4-1.5,0.7-2.8,0.7L2,108.7L2,108.7z"/>
	<path class="st0" d="M15.2,94.9c-0.2-0.2-0.4-0.3-0.7-0.3s-0.5,0.1-0.7,0.3c-0.2,0.2-0.3,0.4-0.3,0.9c0,0.4,0.1,0.7,0.3,0.9
		c0.2,0.2,0.4,0.3,0.7,0.3s0.5-0.1,0.7-0.3c0.2-0.2,0.3-0.5,0.3-0.9S15.4,95.1,15.2,94.9z"/>
	<rect x="13.6" y="98.9" class="st0" width="1.7" height="11.3"/>
	<path class="st0" d="M23.5,98.7c-1.6,0-2.9,0.5-3.8,1.5c-0.9,1-1.4,2.5-1.4,4.3c0,1.2,0.2,2.2,0.6,3.1s1,1.6,1.8,2
		c0.8,0.5,1.7,0.7,2.7,0.7c1.6,0,2.9-0.5,3.8-1.6c0.9-1,1.4-2.5,1.4-4.3s-0.4-3.2-1.4-4.3C26.3,99.2,25.1,98.7,23.5,98.7z M26,107.8
		c-0.6,0.8-1.4,1.1-2.5,1.1s-2-0.4-2.5-1.1c-0.6-0.8-0.9-1.8-0.9-3.3c0-1.4,0.3-2.6,0.9-3.3c0.6-0.8,1.4-1.1,2.5-1.1s2,0.4,2.6,1.1
		c0.6,0.8,0.9,1.8,0.9,3.3C26.9,106,26.6,107,26,107.8z"/>
	<path class="st0" d="M35.8,98.7c-1.4,0-2.6,0.5-3.5,1.6c-0.8,1-1.3,2.5-1.3,4.3c0,1.9,0.4,3.3,1.3,4.3c0.8,1,2,1.5,3.5,1.5
		c1.6,0,2.8-0.6,3.5-1.7h0.1l0.3,1.5h1.4v-16h-1.7v4.6l0.1,0.8l0.1,0.8h-0.1C38.5,99.2,37.3,98.7,35.8,98.7z M39.3,104.9
		c0,1.4-0.3,2.5-0.8,3.1s-1.4,0.9-2.5,0.9c-1,0-1.8-0.4-2.3-1.1c-0.5-0.8-0.8-1.8-0.8-3.3c0-1.4,0.3-2.5,0.8-3.3S35,100,36,100
		c1.2,0,2,0.3,2.5,1s0.8,1.8,0.8,3.4V104.9z"/>
	<rect x="44.6" y="98.9" class="st0" width="1.7" height="11.3"/>
	<path class="st0" d="M45.5,97c0.3,0,0.5-0.1,0.7-0.3c0.2-0.2,0.3-0.5,0.3-0.9s-0.1-0.7-0.3-0.9c-0.2-0.2-0.4-0.3-0.7-0.3
		s-0.5,0.1-0.7,0.3c-0.2,0.2-0.3,0.4-0.3,0.9c0,0.4,0.1,0.7,0.3,0.9C44.9,96.9,45.1,97,45.5,97z"/>
	<path class="st0" d="M54.4,110.2l4.3-11.3h-1.8c-1.4,3.8-2.3,6.4-2.7,7.5c-0.4,1.1-0.6,1.9-0.7,2.3h-0.1c-0.1-0.4-0.4-1.5-0.9-3
		L50,99h-1.8l4.3,11.3L54.4,110.2L54.4,110.2z"/>
	<path class="st0" d="M69.4,103.7c0-1.5-0.4-2.8-1.3-3.7c-0.8-0.9-2-1.4-3.3-1.4c-1.5,0-2.7,0.6-3.6,1.6c-0.9,1.1-1.3,2.5-1.3,4.3
		s0.5,3.2,1.4,4.2s2.3,1.5,4,1.5c0.8,0,1.4-0.1,2-0.2c0.6-0.1,1.1-0.3,1.7-0.6v-1.5c-1.2,0.5-2.4,0.8-3.6,0.8c-1.1,0-2.1-0.3-2.7-1
		s-0.9-1.7-1-3h7.8L69.4,103.7L69.4,103.7z M61.7,103.4c0.1-1.1,0.4-1.9,0.9-2.5c0.6-0.6,1.3-0.9,2.1-0.9s1.6,0.3,2.1,0.9
		s0.7,1.4,0.7,2.5H61.7z"/>
	<path class="st0" d="M74,100.9L74,100.9l-0.3-2.1h-1.4v11.3H74v-6c0-1.1,0.3-2,0.9-2.8s1.4-1.1,2.3-1.1c0.4,0,0.8,0.1,1.3,0.1
		l0.3-1.6c-0.4-0.1-0.8-0.1-1.3-0.1c-0.7,0-1.4,0.2-2,0.6C74.9,99.7,74.4,100.2,74,100.9z"/>
	<path class="st0" d="M85.8,108.5c-0.5,0.3-1.2,0.4-2.1,0.4c-0.6,0-1.2-0.1-1.8-0.3c-0.6-0.2-1.2-0.4-1.8-0.6v1.6
		c0.8,0.4,2,0.7,3.5,0.7c1.4,0,2.5-0.3,3.3-0.9c0.8-0.6,1.2-1.4,1.2-2.5c0-0.8-0.3-1.4-0.7-1.9c-0.4-0.5-1.4-1-2.7-1.4
		c-1-0.4-1.6-0.6-2-0.8c-0.3-0.2-0.6-0.4-0.8-0.6c-0.1-0.2-0.3-0.4-0.3-0.8s0.2-0.8,0.6-1.1c0.4-0.3,1-0.4,1.8-0.4
		c0.9,0,2,0.3,3.1,0.7l0.6-1.4c-1.1-0.5-2.3-0.8-3.6-0.8c-1.3,0-2.3,0.3-3.1,0.8c-0.8,0.5-1.1,1.3-1.1,2.2c0,0.5,0.1,0.9,0.3,1.3
		c0.2,0.4,0.6,0.7,1,1s1.2,0.6,2.3,1c1.1,0.4,1.8,0.8,2.2,1.1c0.4,0.3,0.6,0.7,0.6,1.1C86.5,107.8,86.3,108.2,85.8,108.5z"/>
	<path class="st0" d="M92.4,94.9c-0.2-0.2-0.4-0.3-0.7-0.3c-0.3,0-0.5,0.1-0.7,0.3s-0.3,0.4-0.3,0.9c0,0.4,0.1,0.7,0.3,0.9
		c0.2,0.2,0.4,0.3,0.7,0.3s0.5-0.1,0.7-0.3c0.2-0.2,0.3-0.5,0.3-0.9S92.7,95.1,92.4,94.9z"/>
	<rect x="90.9" y="98.9" class="st0" width="1.7" height="11.3"/>
	<path class="st0" d="M99.6,110.4c0.3,0,0.6,0,0.9-0.1c0.4-0.1,0.6-0.1,0.8-0.2v-1.4c-0.2,0.1-0.4,0.1-0.7,0.1
		c-0.3,0.1-0.6,0.1-0.9,0.1c-0.6,0-1-0.2-1.3-0.6c-0.3-0.4-0.5-0.9-0.5-1.6v-6.6h3.3v-1.3h-3.3v-2.6h-1l-0.6,2.5l-1.6,0.7v0.8h1.6
		v6.7C96.3,109.2,97.4,110.4,99.6,110.4z"/>
	<path class="st0" d="M108.3,103.4c-3.6,0.1-5.5,1.3-5.5,3.6c0,1.1,0.3,1.9,0.9,2.5s1.5,0.9,2.6,0.9c0.8,0,1.5-0.1,2.1-0.4
		s1.1-0.8,1.7-1.4h0.1l0.3,1.6h1.3v-7.7c0-1.3-0.3-2.3-0.9-2.9s-1.6-0.9-3-0.9c-0.7,0-1.3,0.1-2,0.3c-0.7,0.2-1.3,0.4-1.8,0.7
		l0.5,1.3c1.2-0.6,2.3-0.9,3.2-0.9c0.8,0,1.4,0.2,1.8,0.6s0.6,1.1,0.6,2v0.7L108.3,103.4z M110.2,105.6c0,1.1-0.3,1.9-0.9,2.5
		s-1.4,0.9-2.5,0.9c-0.7,0-1.2-0.2-1.6-0.5s-0.6-0.8-0.6-1.4c0-0.8,0.3-1.4,0.9-1.8s1.6-0.6,3-0.6l1.7-0.1V105.6L110.2,105.6z"/>
	<path class="st0" d="M106.4,96.6c0.2-0.2,0.3-0.4,0.3-0.8s-0.1-0.6-0.3-0.8c-0.2-0.2-0.4-0.3-0.7-0.3c-0.3,0-0.4,0.1-0.6,0.3
		c-0.2,0.1-0.3,0.4-0.3,0.8c0,0.3,0.1,0.6,0.3,0.8c0.2,0.2,0.4,0.3,0.6,0.3C105.9,96.8,106.2,96.8,106.4,96.6z"/>
	<path class="st0" d="M110.3,96.6c0.2-0.2,0.3-0.4,0.3-0.8s-0.1-0.6-0.3-0.8c-0.2-0.2-0.4-0.3-0.7-0.3c-0.3,0-0.5,0.1-0.6,0.3
		c-0.2,0.1-0.3,0.4-0.3,0.8c0,0.3,0.1,0.6,0.3,0.8c0.2,0.2,0.4,0.3,0.6,0.3C109.8,96.8,110.1,96.8,110.3,96.6z"/>
	<path class="st0" d="M118.7,110.4c0.3,0,0.6,0,0.9-0.1c0.4-0.1,0.6-0.1,0.8-0.2v-1.4c-0.2,0.1-0.4,0.1-0.7,0.1
		c-0.3,0.1-0.6,0.1-0.9,0.1c-0.6,0-1-0.2-1.3-0.6c-0.3-0.4-0.5-0.9-0.5-1.6v-6.6h3.3v-1.3h-3.2v-2.6h-1l-0.7,2.4l-1.6,0.7v0.8h1.6
		v6.7C115.5,109.2,116.6,110.4,118.7,110.4z"/>
	<path class="st0" d="M140.7,101c0.5-0.6,0.8-1.3,0.8-2.2c0-1.3-0.4-2.2-1.3-2.8c-0.9-0.6-2.3-0.9-4.3-0.9h-4.3v15h5.2
		c1.6,0,2.9-0.4,3.8-1.1c0.9-0.8,1.4-1.8,1.4-3.1c0-2-1.1-3.2-3.4-3.6v-0.1C139.5,102,140.2,101.6,140.7,101z M139.1,103.7
		c0.6,0.4,0.9,1.1,0.9,2.1c0,1-0.3,1.8-0.9,2.2c-0.6,0.4-1.5,0.7-2.8,0.7h-3.1V103h3C137.6,103,138.5,103.2,139.1,103.7z
		 M136.2,101.5h-2.9v-4.9h2.6c1.3,0,2.3,0.2,2.9,0.6s0.9,1,0.9,1.8c0,0.9-0.3,1.6-0.8,2C138.3,101.4,137.4,101.5,136.2,101.5z"/>
	<path class="st0" d="M146.7,109.6c0.8,0.5,1.7,0.7,2.7,0.7c1.6,0,2.9-0.5,3.8-1.6c0.9-1,1.4-2.5,1.4-4.3s-0.4-3.2-1.4-4.3
		c-0.9-1.1-2.2-1.6-3.8-1.6c-1.6,0-2.9,0.5-3.8,1.5s-1.4,2.5-1.4,4.3c0,1.2,0.2,2.2,0.6,3.1C145.4,108.5,145.9,109.2,146.7,109.6z
		 M146.9,101.2c0.6-0.8,1.4-1.1,2.5-1.1s2,0.4,2.6,1.1c0.6,0.8,0.9,1.8,0.9,3.3c0,1.4-0.3,2.5-0.9,3.3s-1.4,1.1-2.5,1.1
		s-2-0.4-2.5-1.1c-0.6-0.8-0.9-1.8-0.9-3.3C146,103.1,146.3,101.9,146.9,101.2z"/>
	<path class="st0" d="M167.1,110.2v-7.4c0-1.4-0.3-2.5-1-3.1s-1.7-1-3.1-1c-0.8,0-1.5,0.1-2.1,0.4s-1.1,0.8-1.4,1.3h-0.1l-0.3-1.5
		h-1.4v11.3h1.7v-5.9c0-1.4,0.3-2.5,0.8-3.1c0.6-0.6,1.4-0.9,2.6-0.9c0.9,0,1.6,0.3,2,0.7c0.4,0.4,0.6,1.1,0.6,2.1v7.3L167.1,110.2
		L167.1,110.2z"/>
	<path class="st0" d="M175.9,98.7c-0.8,0-1.5,0.1-2.1,0.4s-1.1,0.8-1.4,1.3h-0.1l-0.3-1.5h-1.4v11.3h1.7v-5.9c0-1.4,0.3-2.5,0.8-3.1
		s1.4-0.9,2.6-0.9c0.9,0,1.6,0.3,2,0.7c0.4,0.4,0.6,1.1,0.6,2.1v7.3h1.7V103c0-1.4-0.3-2.5-1-3.1C178.3,99,177.2,98.7,175.9,98.7z"
		/>
</g>
</svg>
