<svg id="Ebene_1" data-name="Ebene 1" xmlns="http://www.w3.org/2000/svg" viewBox="0 0 580 200"><defs><style>.cls-1{fill:#fff;}</style></defs><title>Zeichenfläche 1</title><path class="cls-1" d="M105.18,88c0-4.39-3.25-8.43-6.32-9.4,1.94-1.08,3-3.87,3-6,0-5.92-5-9.62-10.65-9.62H79V99.28H92.76C99.6,99.28,105.18,95.06,105.18,88ZM87.07,69.43h2.79c2,0,4.1,1.08,4.1,3.7s-2.05,3.64-4.1,3.64H87.07Zm4.21,23.24H87.07v-9.4h4.21c2.73,0,5.47,1.54,5.47,4.73S94,92.67,91.28,92.67Z"/><path class="cls-1" d="M154.5,96.72l.23,2.56h7.35V73.48H153.7V88.74c0,2-1.65,3.7-4.21,3.7s-3.93-1.71-3.93-3.59V73.48h-8.37v17.2c0,5.69,3.93,9.28,9.57,9.28C150.45,100,153,98.71,154.5,96.72Z"/><path class="cls-1" d="M211.39,83.9V99.28h8.37V82.08c0-5.7-3.93-9.29-9.57-9.29-3.7,0-6.26,1.25-7.74,3.25l-.23-2.56h-7.35v25.8h8.37V84c0-2.05,1.65-3.7,4.21-3.7S211.39,82,211.39,83.9Z"/><path class="cls-1" d="M271.82,97.4l.17,1.88h6.55V58.73h-8.09V73.65a9.78,9.78,0,0,0-4.84-1c-7.86,0-13.9,5.58-13.9,14a13.09,13.09,0,0,0,13,13.27C267.83,100,270.51,99.11,271.82,97.4ZM259.74,86.29a6.1,6.1,0,0,1,6-6.44,7.06,7.06,0,0,1,4.67,1.48v9.91a7.51,7.51,0,0,1-4.67,1.48A6.1,6.1,0,0,1,259.74,86.29Z"/><path class="cls-1" d="M319.15,88.8h12.47l3.87-3.93a10.64,10.64,0,0,0,.17-1.94c0-5.3-4.33-10.31-11.5-10.31s-13.39,5.24-13.39,13.61,6.61,13.9,15,13.9a17.79,17.79,0,0,0,7.69-1.48l.74-6.83a14.39,14.39,0,0,1-7.46,1.94C322.16,93.75,319.77,91.08,319.15,88.8Zm5-9.85a3.91,3.91,0,0,1,4,3.93c0,.23-.06.4-.06.57h-9.23A5.56,5.56,0,0,1,324.16,78.95Z"/><path class="cls-1" d="M378.09,83.1c-2.28-.74-3.07-1.48-3.07-2.34a2,2,0,0,1,2.28-1.88,10.71,10.71,0,0,1,6.21,1.88l.63-6.26c-1.42-1-4-1.82-7.52-1.82-5.47,0-9.23,3.36-9.23,8.31,0,3.93,3.13,6.83,7.63,8.37,1.82.63,3,1.42,3,2.45s-1,2-2.73,2a13.51,13.51,0,0,1-8.66-3.24l.68,7.12c1.65,1.31,4.44,2.39,8.32,2.39,7,0,10.2-3.64,10.2-8.49C385.78,87.77,382.93,84.58,378.09,83.1Z"/><path class="cls-1" d="M81.44,126.91l-.17-5H77.85v25.8h3.59V135.11c0-7,4.21-10.42,9.11-10.42h.57l-.74-3.08C85.83,121.61,82.53,123.77,81.44,126.91Z"/><path class="cls-1" d="M105.48,121.38c-6.15,0-12.47,5.18-12.47,13.5a13.29,13.29,0,0,0,13.61,13.44,14.31,14.31,0,0,0,7.46-1.77l1-4a12.92,12.92,0,0,1-8.09,2.56,9.92,9.92,0,0,1-10.25-10.25h16.69l2.79-2.91a5.2,5.2,0,0,0,.06-1C116.3,126.28,112.54,121.38,105.48,121.38Zm7.18,10.54H97.05c.68-3.76,4.39-7.4,8.6-7.4a6.79,6.79,0,0,1,7.06,6.66A3,3,0,0,1,112.66,131.92Z"/><path class="cls-1" d="M134.53,124.57a13.19,13.19,0,0,1,7.18,2l.74-3.19a16.41,16.41,0,0,0-8.09-2c-7.46,0-13.84,5.3-13.84,13.5s6.49,13.44,13.84,13.44a15.11,15.11,0,0,0,6.95-1.42l.91-3.64a15.38,15.38,0,0,1-7.57,1.88c-5.87,0-10.48-4.22-10.48-10.25A10,10,0,0,1,134.53,124.57Z"/><path class="cls-1" d="M159.87,121.38c-4.38,0-6.89,1.65-8.2,3.47V107.2h-3.59v40.55h3.59v-17c0-3.59,2.91-6.21,7.35-6.21,4.61,0,7.12,2.62,7.12,6.21v17h3.59V130.38C169.72,124.74,165.51,121.38,159.87,121.38Z"/><path class="cls-1" d="M188.29,121.38c-4.55,0-7.06,1.71-8.43,3.7l-.11-3.13H176.5v25.8h3.59v-17c0-3.59,2.91-6.21,7.35-6.21,4.61,0,7.12,2.62,7.12,6.21v17h3.59V130.38C198.14,124.74,193.93,121.38,188.29,121.38Z"/><path class="cls-1" d="M222.91,139c0,3.59-2.91,6.21-7.35,6.21-4.61,0-7.12-2.62-7.12-6.21v-17h-3.59v17.37c0,5.64,4.21,9,9.85,9,4.56,0,7.06-1.71,8.43-3.7l.11,3.13h3.25v-25.8h-3.59Z"/><path class="cls-1" d="M245,121.38c-4.55,0-7.06,1.71-8.43,3.7l-.11-3.13h-3.25v25.8h3.59v-17c0-3.59,2.9-6.21,7.35-6.21,4.61,0,7.12,2.62,7.12,6.21v17h3.59V130.38C254.86,124.74,250.65,121.38,245,121.38Z"/><path class="cls-1" d="M275.59,144.73l-6.83-2.34a4.72,4.72,0,0,1-2.28-1.88c0-1,1.25-2,4-2a8.49,8.49,0,0,0,8.83-8.54,7.58,7.58,0,0,0-1.59-4.84,8,8,0,0,0,3.25-.8l-.74-3a8.91,8.91,0,0,1-4.16,1c-2.11,0-2.79-.91-5.58-.91-5.24,0-8.94,3.59-8.94,8.54a8.29,8.29,0,0,0,4.38,7.35,4.94,4.94,0,0,0-3.3,4.1l3.08,2.79a8.31,8.31,0,0,0-6,7.69c0,5.13,4.5,9.06,10.93,9.06,6.27,0,10.76-4,10.76-8.83C281.4,148.49,279.18,145.93,275.59,144.73Zm-10.71-14.81a5.5,5.5,0,0,1,5.58-5.52,5.55,5.55,0,1,1-5.58,5.52Zm5.52,28c-4.67,0-7.46-3.3-7.46-5.92a6.12,6.12,0,0,1,5.92-6l5.87,1.94a4.28,4.28,0,0,1,3.13,4.22C277.87,154.81,275,157.95,270.41,157.95Z"/><path class="cls-1" d="M293.87,132.66c-2.85-1-4.5-2.28-4.5-4.55s1.82-3.7,4.38-3.7a9.33,9.33,0,0,1,5.64,1.71l.74-3.07a12.48,12.48,0,0,0-6.32-1.65c-4.61,0-8,2.79-8,6.83s2.73,6.32,7.52,8c2.91,1,4.78,2.51,4.78,5s-2.28,4-5.18,4a12.4,12.4,0,0,1-8.26-3.19l1,4.16a12,12,0,0,0,7.23,2.11c5.47,0,8.83-3,8.83-7.29S298.83,134.42,293.87,132.66Z"/><path class="cls-1" d="M319.56,121.38c-4.38,0-6.89,1.65-8.2,3.47V107.2h-3.59v40.55h3.59v-17c0-3.59,2.91-6.21,7.35-6.21,4.61,0,7.12,2.62,7.12,6.21v17h3.59V130.38C329.41,124.74,325.2,121.38,319.56,121.38Z"/><path class="cls-1" d="M348.55,121.38a13.2,13.2,0,0,0-13.61,13.5c0,7.86,5.92,13.44,13.61,13.44s13.56-5.58,13.56-13.44A13.16,13.16,0,0,0,348.55,121.38Zm0,23.75a9.84,9.84,0,0,1-10-10.25c0-6,4.38-10.31,10-10.31a10.29,10.29,0,0,1,0,20.56Z"/><path class="cls-1" d="M369.28,119V122h-4.1v3h4.1v22.84h3.64V124.91h7.46l.68-3h-8.15v-3.87c0-4.61,2.39-8,6.44-8a9.87,9.87,0,0,1,4.1.85l.74-3.08a10.78,10.78,0,0,0-4.27-.85C373.21,107,369.28,111.13,369.28,119Z"/><polygon class="cls-1" points="470.14 40.29 470.14 42.17 501.17 42.17 501.17 74.13 503.05 74.13 503.05 42.17 503.05 41.8 503.05 40.29 470.14 40.29"/><rect class="cls-1" x="436.47" y="81.02" width="26.63" height="26.63"/><rect class="cls-1" x="470.21" y="51.43" width="22.37" height="22.37"/><rect class="cls-1" x="396.01" y="114.76" width="33.24" height="33.29"/></svg>