<?xml version="1.0" encoding="utf-8"?>
<!-- Generator: Adobe Illustrator 21.0.2, SVG Export Plug-In . SVG Version: 6.00 Build 0)  -->
<svg version="1.1"
	 id="svg2" inkscape:version="0.47 r22583" sodipodi:docname="LibreOffice-Initial-Artwork-Logo.svg" xmlns:cc="http://creativecommons.org/ns#" xmlns:dc="http://purl.org/dc/elements/1.1/" xmlns:inkscape="http://www.inkscape.org/namespaces/inkscape" xmlns:rdf="http://www.w3.org/1999/02/22-rdf-syntax-ns#" xmlns:sodipodi="http://sodipodi.sourceforge.net/DTD/sodipodi-0.dtd" xmlns:svg="http://www.w3.org/2000/svg"
	 xmlns="http://www.w3.org/2000/svg" xmlns:xlink="http://www.w3.org/1999/xlink" x="0px" y="0px" viewBox="0 0 470 150"
	 style="enable-background:new 0 0 470 150;" xml:space="preserve">
<style type="text/css">
	.st0{fill:#FFFFFF;}
</style>
<title  id="title5171">LibreOffice Initial Artwork</title>
<sodipodi:namedview  bordercolor="#666666" borderopacity="1.0" id="base" inkscape:current-layer="layer5" inkscape:cx="538.67757" inkscape:cy="71.152203" inkscape:document-units="px" inkscape:guide-bbox="true" inkscape:pageopacity="0" inkscape:pageshadow="2" inkscape:showpageshadow="false" inkscape:window-height="1125" inkscape:window-maximized="1" inkscape:window-width="1920" inkscape:window-x="0" inkscape:window-y="24" inkscape:zoom="1" pagecolor="#ffffff" showgrid="false" showguides="true" width="551px">
	<inkscape:grid  empspacing="5" enabled="true" id="grid10649" snapvisiblegridlinesonly="true" type="xygrid" visible="true">
		</inkscape:grid>
</sodipodi:namedview>
<defs>
	
	
		<inkscape:perspective  id="perspective3727" inkscape:persp3d-origin="0.5 : 0.33333333 : 1" inkscape:vp_x="0 : 0.5 : 1" inkscape:vp_y="0 : 1000 : 0" inkscape:vp_z="1 : 0.5 : 1" sodipodi:type="inkscape:persp3d">
		</inkscape:perspective>
	
		<inkscape:perspective  id="perspective3740" inkscape:persp3d-origin="0.5 : 0.33333333 : 1" inkscape:vp_x="0 : 0.5 : 1" inkscape:vp_y="0 : 1000 : 0" inkscape:vp_z="1 : 0.5 : 1" sodipodi:type="inkscape:persp3d">
		</inkscape:perspective>
	
		<inkscape:perspective  id="perspective3753" inkscape:persp3d-origin="0.5 : 0.33333333 : 1" inkscape:vp_x="0 : 0.5 : 1" inkscape:vp_y="0 : 1000 : 0" inkscape:vp_z="1 : 0.5 : 1" sodipodi:type="inkscape:persp3d">
		</inkscape:perspective>
	
		<inkscape:perspective  id="perspective3766" inkscape:persp3d-origin="0.5 : 0.33333333 : 1" inkscape:vp_x="0 : 0.5 : 1" inkscape:vp_y="0 : 1000 : 0" inkscape:vp_z="1 : 0.5 : 1" sodipodi:type="inkscape:persp3d">
		</inkscape:perspective>
</defs>
<g id="layer1" transform="translate(25,-1741.7246)" inkscape:groupmode="layer" inkscape:label="Foreground">
	<g id="text10617">
	</g>
	<g id="g4122" transform="translate(-540,200)">
		<path id="path3047" class="st0" d="M643.4,1580v45.9H673v-7h-20.6V1580L643.4,1580"/>
		<path id="path3049" class="st0" d="M678.5,1625.9h9v-33h-9V1625.9 M683,1590c2.8,0,5.2-2.3,5.2-5.2c0-2.8-2.4-5.2-5.2-5.2
			c-2.9,0-5.2,2.4-5.2,5.2C677.8,1587.7,680.1,1590,683,1590"/>
		<path id="path3051" class="st0" d="M703.2,1596.7h-0.1v-19.6h-9v48.7h8.8l0.2-3.9h0.1c2.8,3.2,5.7,4.5,10.3,4.5
			c8.8,0,14.6-7.9,14.6-17.8c0-9.5-5.2-16.6-14.2-16.6C709.2,1592.2,706.3,1593.6,703.2,1596.7 M703.1,1608.6c0-5.7,2.6-9.5,7.4-9.5
			c5.4,0,8.1,3.9,8.1,10.2c0,6.2-2.6,10.3-8,10.3c-4.7,0-7.6-3.7-7.6-9.5L703.1,1608.6"/>
		<path id="path3053" class="st0" d="M752.4,1592.2c-4.3,0.3-8.4,2.9-10.3,6.6h-0.1l-0.2-5.9h-8.8v33h9v-12.5c0-6.6,1.2-9,3.3-10.5
			c1.8-1.3,4-1.8,6.9-2L752.4,1592.2"/>
		<path id="path3055" class="st0" d="M785.6,1607.4c0-8.2-5-15.2-13.6-15.2c-10.4,0-17.1,7.2-17.1,18.1c0,10.6,6.9,16.3,17.1,16.3
			c4.8,0,8.2-0.7,11.3-2.2l-0.9-6.8c-3,1.2-6,2-9.2,2c-5.5,0-9-2.5-9.3-7.7h21.4C785.5,1610.7,785.6,1608.8,785.6,1607.4
			 M771,1599.1c3.9,0,5.7,3.2,5.9,6.6h-12.7C764.8,1601.9,767.5,1599.1,771,1599.1"/>
		<path id="path3057" class="st0" d="M813,1579.3c-12.1,0-22.1,8.9-22.1,23.6c0,14.8,10,23.6,22.1,23.6c12.1,0,22.1-8.9,22.1-23.6
			C835.1,1588.2,825.2,1579.3,813,1579.3 M813,1583.9c9,0,15.9,6.8,15.9,19c0,12.3-6.9,19-15.9,19s-15.9-6.8-15.9-19
			S804,1583.9,813,1583.9"/>
		<path id="path3059" class="st0" d="M843.8,1591v2.1h-5.3v4.3h5.3v28.4h5.7v-28.4h8.4v-4.3h-8.4v-3c0-5.9,2.5-9.3,7-9.3
			c2.1,0,3.4,0.3,4.7,0.8l0.5-4.2c-1.2-0.5-3.5-0.9-5.3-0.9C848.4,1576.5,843.8,1581.7,843.8,1591"/>
		<path id="path3061" class="st0" d="M862.6,1591v2.1h-5.3v4.3h5.3v28.4h5.7v-28.4h8.4v-4.3h-8.4v-3c0-5.9,2.5-9.3,7-9.3
			c2.1,0,3.4,0.3,4.7,0.8l0.5-4.2c-1.2-0.5-3.5-0.9-5.3-0.9C867.2,1576.5,862.6,1581.7,862.6,1591"/>
		<path id="path3063" class="st0" d="M883.2,1625.9h5.7v-32.8h-5.7V1625.9 M886,1588.3c2,0,3.5-1.6,3.5-3.5s-1.6-3.5-3.5-3.5
			s-3.5,1.6-3.5,3.5S884.1,1588.3,886,1588.3"/>
		<path id="path3065" class="st0" d="M900.6,1609.4c0-8.3,4.9-12.6,11.3-12.6c3.4,0,6.3,0.8,8.8,2l0.5-4.3c-2-1-5.3-2-8.8-2
			c-10.1,0-17.7,6.2-17.7,17.7c0,10.8,6.9,16.5,16,16.5c4,0,6.9-0.5,10.2-1.9l-0.5-4.3c-2.8,1.3-5.9,1.9-8.7,1.9
			C905.1,1622.2,900.6,1618.1,900.6,1609.4"/>
		<path id="path3067" class="st0" d="M953.2,1610.8c0.1-1.2,0.2-2.2,0.2-3.2c0-8.4-4.4-15.1-12.8-15.1c-9.1,0-15.8,7.6-15.8,17.7
			c0,11.1,6.7,16.5,15.8,16.5c4,0,7.1-0.6,10.2-1.9l-0.5-4.3c-2.5,1.2-6.1,1.9-8.9,1.9c-6.5,0-10.8-4-10.9-11.4L953.2,1610.8
			 M940.1,1596.8c5,0,7.7,4.1,7.7,9.5h-17.1C931.6,1600.6,934.7,1596.8,940.1,1596.8"/>
	</g>
	<g id="text2973" transform="matrix(0.98078313,0,0,1.0195934,-540,200)">
		<path id="path3004" class="st0" d="M669.8,1605.8H656v1.9h5.7v17.1h2.4v-17.1h5.7V1605.8"/>
		<path id="path3006" class="st0" d="M674.3,1613.5v-8.9H672v20.2h2.4v-7.5c0-2.8,1.7-4.5,3.8-4.5c2.2,0,2.7,1.2,2.7,3.8v8.1h2.4
			v-8.8c0-3.3-1.5-5-4.4-5C676.8,1611,675.4,1612.1,674.3,1613.5L674.3,1613.5"/>
		<path id="path3008" class="st0" d="M698.2,1618.6c0.1-0.5,0.1-0.9,0.1-1.3c0-3.5-1.8-6.3-5.3-6.3c-3.8,0-6.6,3.1-6.6,7.3
			c0,4.6,2.8,6.8,6.6,6.8c1.7,0,2.9-0.3,4.3-0.8l-0.2-1.8c-1,0.5-2.5,0.8-3.7,0.8c-2.7,0-4.5-1.7-4.5-4.7H698.2 M692.8,1612.8
			c2.1,0,3.2,1.7,3.2,4h-7.1C689.2,1614.3,690.5,1612.8,692.8,1612.8"/>
		<path id="path3010" class="st0" d="M708,1606.1v18.6c1.4,0.2,3.4,0.3,4.9,0.3c5.7,0,11.2-3.3,11.2-10.2c0-6.1-4.1-9.1-11.1-9.1
			C711.4,1605.7,709.6,1605.8,708,1606.1 M710.3,1607.7c0.9-0.1,1.8-0.2,2.9-0.2c5.4,0,8.3,2.9,8.3,7.4c0,5.4-3.8,8-8.3,8
			c-0.9,0-1.9,0-2.8-0.1V1607.7"/>
		<path id="path3012" class="st0" d="M732.8,1611c-4.1,0-6.5,3.1-6.5,7.1s2.4,7.1,6.5,7.1s6.5-3.1,6.5-7.1
			C739.3,1614,736.9,1611,732.8,1611 M732.8,1623.3c-2.8,0-4.1-2.4-4.1-5.3c0-2.8,1.2-5.3,4.1-5.3c2.8,0,4.1,2.4,4.1,5.3
			C736.8,1620.9,735.6,1623.3,732.8,1623.3"/>
		<path id="path3014" class="st0" d="M744.1,1618c0-3.4,2-5.2,4.7-5.2c1.4,0,2.6,0.3,3.6,0.8l0.2-1.8c-0.8-0.4-2.2-0.8-3.7-0.8
			c-4.2,0-7.4,2.6-7.4,7.3c0,4.5,2.9,6.8,6.6,6.8c1.7,0,2.9-0.2,4.3-0.8l-0.2-1.8c-1.2,0.5-2.4,0.8-3.6,0.8
			C746,1623.3,744.1,1621.6,744.1,1618"/>
		<path id="path3016" class="st0" d="M764.4,1622.6l0.1,2.2h2.3v-13.6h-2.4v7.5c0,2.8-1.7,4.5-3.8,4.5c-2.2,0-2.7-1.2-2.7-3.8v-8.1
			h-2.4v8.8c0,3.3,1.5,5,4.4,5C761.9,1625.1,763.4,1624,764.4,1622.6L764.4,1622.6"/>
		<path id="path3018" class="st0" d="M787.6,1616.4v8.4h2.4v-9.1c0-3-1.4-4.7-4.1-4.7c-1.9,0-3.5,1.2-4.4,3.1h-0.1
			c-0.5-1.9-1.7-3.1-3.8-3.1c-1.9,0-3.2,1-4.1,2.5h-0.1l-0.1-2.2H771v13.6h2.4v-6.9c0-3.1,1.3-5,3.4-5c1.8,0,2.5,1.2,2.5,3.6v8.4
			h2.4v-6.9c0-3.1,1.3-5,3.4-5C786.9,1612.9,787.6,1614.1,787.6,1616.4"/>
		<path id="path3020" class="st0" d="M804.8,1618.6c0.1-0.5,0.1-0.9,0.1-1.3c0-3.5-1.8-6.3-5.3-6.3c-3.8,0-6.6,3.1-6.6,7.3
			c0,4.6,2.8,6.8,6.6,6.8c1.7,0,2.9-0.3,4.3-0.8l-0.2-1.8c-1,0.5-2.5,0.8-3.7,0.8c-2.7,0-4.5-1.7-4.5-4.7H804.8 M799.4,1612.8
			c2.1,0,3.2,1.7,3.2,4h-7.1C795.8,1614.3,797.2,1612.8,799.4,1612.8"/>
		<path id="path3022" class="st0" d="M810.6,1613.5l-0.1-2.2h-2.3v13.6h2.4v-7.5c0-2.8,1.7-4.5,3.8-4.5c2.2,0,2.7,1.2,2.7,3.8v8.1
			h2.4v-8.8c0-3.3-1.5-5-4.4-5C813.1,1611,811.6,1612.1,810.6,1613.5L810.6,1613.5"/>
		<path id="path3024" class="st0" d="M830,1611.2h-3.3v-3h-2.4v3h-2.2v1.8h2.2v8.4c0,2.5,1.3,3.6,3.5,3.6c1.1,0,1.9-0.1,2.5-0.4
			l-0.3-1.7c-0.5,0.2-1,0.3-1.5,0.3c-1.4,0-1.9-0.8-1.9-2.4v-7.8h3.3V1611.2"/>
		<path id="path3026" class="st0" d="M842.2,1624.8v-8.6h6.8v-1.9h-6.8v-6.6h7.8v-1.9h-10.1v19H842.2"/>
		<path id="path3028" class="st0" d="M858.4,1611c-4.1,0-6.5,3.1-6.5,7.1s2.4,7.1,6.5,7.1c4.1,0,6.5-3.1,6.5-7.1
			C865,1614,862.5,1611,858.4,1611 M858.4,1623.3c-2.8,0-4.1-2.4-4.1-5.3c0-2.8,1.2-5.3,4.1-5.3s4.1,2.4,4.1,5.3
			C862.5,1620.9,861.3,1623.3,858.4,1623.3"/>
		<path id="path3030" class="st0" d="M877,1622.6l0.1,2.2h2.3v-13.6H877v7.5c0,2.8-1.7,4.5-3.8,4.5c-2.2,0-2.7-1.2-2.7-3.8v-8.1
			h-2.4v8.8c0,3.3,1.5,5,4.4,5C874.5,1625.1,876,1624,877,1622.6L877,1622.6"/>
		<path id="path3032" class="st0" d="M886,1613.5l-0.1-2.2h-2.3v13.6h2.4v-7.5c0-2.8,1.7-4.5,3.8-4.5c2.2,0,2.7,1.2,2.7,3.8v8.1h2.4
			v-8.8c0-3.3-1.5-5-4.4-5C888.5,1611,887,1612.1,886,1613.5L886,1613.5"/>
		<path id="path3034" class="st0" d="M908.5,1613.3c-1-1.7-2.5-2.4-4.4-2.4c-3.6,0-6.1,3-6.1,7.3c0,4.1,2.2,6.8,5.9,6.8
			c2,0,3.5-0.9,4.5-2.4h0.1l0.1,2.1h2.3v-20.2h-2.4L908.5,1613.3L908.5,1613.3 M908.6,1618.8c0,2.4-1.5,4.5-3.9,4.5
			c-2.7,0-4.2-2.1-4.2-5.2c0-3.2,1.4-5.3,4.1-5.3c2.2,0,3.9,1.9,3.9,4.5L908.6,1618.8"/>
		<path id="path3036" class="st0" d="M920,1611c-1.4,0-2.7,0.2-4.2,0.8l0.2,1.8c1.4-0.5,2.5-0.8,3.6-0.8c2.1,0,2.9,1.2,2.9,3.1v0.4
			c-0.6-0.1-1.3-0.2-2.2-0.2c-3.4,0-6.1,1.7-6.1,4.7c0,2.8,2,4.3,4.2,4.3c1.8,0,3.3-0.9,4-2.4h0.1l0.1,2.1h2.3v-9.2
			C924.9,1612.6,923.1,1611,920,1611 M922.6,1619c0,2.7-1.4,4.3-3.4,4.3c-1.4,0-2.4-1-2.4-2.7c0-1.8,1.1-3,3.9-3
			c0.7,0,1.3,0.1,1.9,0.2V1619"/>
		<path id="path3038" class="st0" d="M935.4,1611.2h-3.3v-3h-2.4v3h-2.2v1.8h2.2v8.4c0,2.5,1.3,3.6,3.5,3.6c1.1,0,1.9-0.1,2.5-0.4
			l-0.3-1.7c-0.5,0.2-1,0.3-1.5,0.3c-1.4,0-1.9-0.8-1.9-2.4v-7.8h3.3V1611.2"/>
		<path id="path3040" class="st0" d="M938.8,1624.8h2.4v-13.6h-2.4V1624.8 M940,1609.2c0.8,0,1.5-0.6,1.5-1.5c0-0.8-0.6-1.5-1.5-1.5
			s-1.5,0.6-1.5,1.5S939.2,1609.2,940,1609.2"/>
		<path id="path3042" class="st0" d="M951,1611c-4.1,0-6.5,3.1-6.5,7.1s2.4,7.1,6.5,7.1s6.5-3.1,6.5-7.1
			C957.5,1614,955.1,1611,951,1611 M951,1623.3c-2.8,0-4.1-2.4-4.1-5.3c0-2.8,1.2-5.3,4.1-5.3c2.8,0,4.1,2.4,4.1,5.3
			C955.1,1620.9,953.8,1623.3,951,1623.3"/>
		<path id="path3044" class="st0" d="M963.2,1613.5l-0.1-2.2h-2.3v13.6h2.4v-7.5c0-2.8,1.7-4.5,3.8-4.5c2.2,0,2.7,1.2,2.7,3.8v8.1
			h2.4v-8.8c0-3.3-1.5-5-4.4-5C965.7,1611,964.2,1612.1,963.2,1613.5L963.2,1613.5"/>
	</g>
	<g id="g2977" transform="translate(-692.0942,1480)" inkscape:export-xdpi="382.10526" inkscape:export-ydpi="382.10526">
		<path id="path2979" inkscape:export-xdpi="90" inkscape:export-ydpi="90" sodipodi:nodetypes="csccscccc" class="st0" d="
			M746.5,298.9c-0.8,0-1.5,0.5-1.8,1.1c-0.3,0.7-0.1,1.5,0.4,2.1l16.2,16.2c0.5,0.5,1.4,0.7,2.1,0.4c0.7-0.3,1.2-1,1.2-1.7v-16.3
			c0-1-0.9-1.9-1.9-1.9H746.5z"/>
		<path id="path2981" inkscape:export-xdpi="90" inkscape:export-ydpi="90" class="st0" d="M702,298.9c-1,0-1.9,0.9-1.9,1.9V375
			c0,1,0.8,1.9,1.9,1.9h60.7c1.1,0,1.9-0.9,1.9-1.9c0,0,0,0,0,0v-47.8c0-0.5-0.2-1-0.6-1.4l-26.2-26.4c-0.4-0.4-0.8-0.6-1.4-0.6H702
			z M703.9,302.8h31.7l25.1,25.3v45.1h-56.8V302.8z"/>
	</g>
</g>
</svg>
