<?xml version="1.0" encoding="utf-8"?>
<!-- Generator: Adobe Illustrator 19.2.1, SVG Export Plug-In . SVG Version: 6.00 Build 0)  -->
<svg version="1.1" id="Ebene_1" xmlns="http://www.w3.org/2000/svg" xmlns:xlink="http://www.w3.org/1999/xlink" x="0px" y="0px"
	 viewBox="0 0 373.4 95" style="enable-background:new 0 0 373.4 95;" xml:space="preserve">
<style type="text/css">
	.st0{fill:#FFFFFF;}
</style>
<g>
	<path class="st0" d="M126.9,0h40.2v14.8h-7.9c-0.4-2-0.8-3.8-1-5.9c-3.2-0.4-7.2-0.1-10.7-0.2c-0.4,5.4-0.1,11.6-0.2,17.3h8.2
		c0.4-1.4,0.5-3.1,0.9-4.5h7.3c0.3,5.2,0.3,11.7,0,16.9h-7.3c-0.2-1.6-0.6-2.9-0.7-4.5h-8.4v16.8c2,0.5,4.5,0.6,6.8,0.9v7.2
		c-9-0.1-18.5,0.2-27.2-0.2v-7c2.2-0.1,4.1-0.6,6.3-0.7v-43c-2-0.4-4.3-0.5-6.3-0.9V0z"/>
	<path class="st0" d="M248.8,1.6c4.8-0.6,8.7,2.9,8.7,7.5c0.1,10.4-15.4,10-15.5,0.2C241.9,5,245,2.1,248.8,1.6"/>
	<path class="st0" d="M13.8,39.6c0,4.7,0.8,10.6,4,11.5c3.3,0.9,6.3-1.4,7.9-3.5V28.5C16.8,24.2,13.7,31.2,13.8,39.6 M0,43.5v-6.3
		c1.5-12.8,10.6-18.8,25.5-17.6c0.4-2.7,0.1-6.2,0.2-9.3c-1.7-0.7-4.1-0.5-5.9-1V2.5C25.9,2.1,32.7,2.4,39,2.3
		c0.4,15.8,0.1,32.4,0.2,48.5c1.3,0.7,3.5,0.6,5.1,1v7H27.7c-0.1-1.2-0.4-2.3-0.3-3.7c-2.7,1.9-5.6,4.1-9.8,4.5
		C6,60.9,0.7,53.7,0,43.5"/>
	<path class="st0" d="M280.2,8v11.9c2.7,0.1,5.9-0.2,8.4,0.2v7.5c-2.4,0.4-5.6,0.1-8.4,0.2c0.5,5.8-0.6,14,0,19.4
		c0.2,1.7,0.9,3.2,2.3,3.8c2,0.1,3.7-0.1,5.6-0.2V58c-6.1,1.9-15.2,2.7-18.9-1.6c-5.1-6-1.1-18.7-2.4-28.6h-5.4v-7.9h5.8
		c1.5-3.5,1.8-8.3,3.3-11.9H280.2z"/>
	<path class="st0" d="M345.5,65.1c1.6,4.3,13.9,4,14.8-1c1.3-6.5-8-5-12.7-4.9C345.7,60.1,344.6,62.7,345.5,65.1 M354.6,37.4
		c5.2-2.2,4-13.4-4-11.7C343.5,27.2,346.3,40.9,354.6,37.4 M373.4,11.7V21c-2.2-0.4-5.5-0.7-7.5,0.2c0.5,1.1,1.8,2,2.4,3.1
		c2.6,4.7,1.6,11.9-1.2,15.4c-3.9,4.9-12,5.8-20.4,5.4c-3.4,5.4,8.6,3.5,12.9,3.7c7.7,0.3,12.7,2.6,13.8,9.4v4.4
		c-0.5,2.7-1.7,5.5-3.7,7.5c-7,7.2-31.1,9.3-36.7,0.5c-3.5-5.5,1-11.9,5.4-13.4c-3.9-1.4-6.2-6.6-3.7-10.7c1.1-1.7,2.6-2.5,4-3.7
		c-4-1.8-5.9-7.2-5.4-12.6c1-11.1,14.1-13.7,25.7-11.5c1.2-0.9,1.5-2.2,2.3-3.1C363.8,12.7,367.8,11.4,373.4,11.7"/>
	<path class="st0" d="M198.7,19.4c-0.3,4.3-1.2,8-1.6,12.2c-3.2-1.2-8.3-1.5-10.8,0.5v18.5c1.7,0.6,3.8,0.6,5.8,0.9v7
		c-7.9,0.4-16.5,0.1-24.6,0.2v-7.2c1.9-0.1,3.5-0.6,5.4-0.7V27.9c-1.6-0.5-3.6-0.6-5.4-0.9v-7.2h16.8c0.3,1.4,0.4,3,0.5,4.5
		C187,21,191.5,17.7,198.7,19.4"/>
	<path class="st0" d="M306.2,42.8c-3,1.5-3.2,7.5,0.4,8.2c2.4,0.5,5.9-1,6.5-3.1c0.5-1.8-0.4-3.6,0-5.8
		C310,42.3,308.2,41.8,306.2,42.8 M326.5,50.6c1.4,0.6,3.6,0.5,5.1,1v6.8c-5.1,0.4-11,0.1-16.4,0.2c-0.4-1.1-0.5-2.4-0.5-3.8
		c-3.4,4.1-13.9,6.6-19.7,2.8c-6-3.9-5.4-14.5-0.2-18.7c4.4-3.5,11-3.7,18.2-3.8c2.2-7.5-4.5-10.4-10.3-7.9
		c-0.2,1.6-0.2,3.5-0.5,5.1H294V21c8.1-2.2,22.6-3.5,28.8,1.4C329.1,27.4,325.5,39,326.5,50.6"/>
	<path class="st0" d="M67.9,28.6c-1.6-2.4-6-2.3-7.7-0.2c-1.6,2-1.4,4.7-1.6,7.7h10.3C68.9,32.9,69.1,30.4,67.9,28.6 M82.4,43.1
		H58.7c-0.4,10.6,13.5,8.2,22,7.2v7.9c-11.4,1.8-24,3.7-31.1-3.3C42.7,48,43,31.4,50.1,24.3c3-3,8.2-5,13.8-5.1
		C78.3,19,84,27.6,82.4,43.1"/>
	<path class="st0" d="M116.9,19.7c-0.7,3.9-1.1,8.1-1.7,12c-3.1-1.1-8.6-1.4-10.8,0.7v18.5c1.9,0.4,3.9,0.5,5.8,0.9v7H85.6v-7
		c1.7-0.4,3.7-0.5,5.4-0.9V28.1c-1.7-0.4-3.7-0.5-5.4-0.9v-7h16.9c0,1.6,0.4,2.7,0.3,4.4c1.3-0.6,1.8-2.3,3.1-3.3
		C108.5,19.2,112.6,18.8,116.9,19.7"/>
	<path class="st0" d="M220.5,27.9c-1.8-1.6-5.3-1.4-6.8,0.2c-1.7,1.8-1.7,5.1-1.9,8h10.5C222.1,32.6,222.2,29.5,220.5,27.9
		 M235.5,43.1h-23.7c-0.2,10.5,13.5,8.2,22.2,7.2v7.9c-6.4,1.1-12.1,2-19,1.6c-11.7-0.8-17.6-8.9-17.1-21
		c0.4-11.1,6.7-19.4,19.2-19.6C231.5,19,237.3,27.9,235.5,43.1"/>
	<path class="st0" d="M257.2,19.9c0.4,9.9,0.1,20.5,0.2,30.7c1.5,0.7,3.8,0.5,5.4,1v6.8c-7.7,0.3-16.7,0.3-24.4,0v-6.8
		c1.7-0.5,3.7-0.6,5.6-0.9V27.9c-1.6-0.6-3.9-0.5-5.6-1v-6.5c0-0.3,0.1-0.5,0.3-0.5C244.8,19.9,251,19.9,257.2,19.9"/>
	<path class="st0" d="M221.7,86.3c3.9-0.1,2.8-5.6,3-9.8C217.8,72.4,216.3,86.3,221.7,86.3 M227.8,68.1v18c0.4,0.6,1.7,0.1,1.9,0.9
		c-0.1,2-3.1,0.9-4.9,1.2c0-0.8-0.1-1.7,0.2-2.3c-1.1,2.6-6.6,3.4-8.6,0.5c-3.5-5,0.6-14.1,8-12c0.4-1,0.1-2.9,0.2-4.2
		c-0.4-0.7-2.2,0-2.1-1.2C223.3,67.6,226,68.3,227.8,68.1"/>
	<path class="st0" d="M92.9,71.4c-1.4-3.2,3.1-3.9,3.5-1.6C96.7,71.7,94.4,72.9,92.9,71.4"/>
	<path class="st0" d="M234.1,68.6c3.1-0.8,2.9,3.3,0.7,3.5C233.2,72.2,231.5,69.3,234.1,68.6"/>
	<path class="st0" d="M7.1,71.4c-0.8,4.3-0.1,10-0.3,14.7C18.9,89.9,18.7,68,7.1,71.4 M1.4,88c-0.3-1.6,1.3-1.4,2.1-1.9v-7
		c0-2.4,0.6-5.5,0-7C3,70.9,1.2,71.6,1.4,70c4.9-0.5,11.1-1.2,14.5,0.9c4.3,2.6,4.4,10.5,1.2,14.1C13.8,88.8,8.3,88.4,1.4,88"/>
	<path class="st0" d="M53,69.7h5.8c1.5,4.7,3.4,9.1,5.1,13.6c1.8-4.4,3.4-9.1,5.1-13.6c1.9,0.1,4.2-0.2,5.8,0.2
		c0.2,1.5-1.3,1.4-2.1,1.9c0.6,4.7,1.2,9.4,1.9,14c0.1,1,1.7,0.6,1.6,1.9c-1.3,1.1-5.1,0.4-7,0.3c-0.2-1.6,1.3-1.4,1.9-2.1
		c-0.4-4.2-0.8-8.2-1.4-12.2c-1.9,4.7-3.5,9.6-5.2,14.5h-2.1c-1.8-4.9-3.8-9.6-5.4-14.7c-0.6,3.8-0.6,8.4-1,12.4
		c0.6,0.8,2.2,0.5,1.9,2.1c-1.6,0.3-4.4,0.3-5.9,0c-0.3-1.6,1.2-1.4,1.6-2.3c0.5-4.7,1.1-9.3,1.7-13.8c-0.6-0.5-1.5-0.7-2.1-1.2
		C53,70.4,53,70,53,69.7"/>
	<path class="st0" d="M23.9,83.8c-0.3,2.4,2.6,3.3,4,1.4c0.6-0.9,0.4-2,0.5-3.7C25.9,81.7,24.1,81.9,23.9,83.8 M31.6,85.4
		c0.4,0.6,1.5-0.5,1.7,0.3c0,0.2,0,0.5,0.2,0.5c-0.9,1.1-2.3,1.8-4,2.1c-0.3-0.7-0.7-1.3-0.7-2.3c-1.9,3.4-8.5,2.9-8-1.7
		c0.3-3.2,4-4.1,7.7-4.4c0.4-3.1-1.4-4.9-4.2-3.8c-0.8,0.9-0.3,3-2.4,2.6v-3.8c2.6-0.7,6.3-1.3,8.2,0C32.8,76.8,30.6,81.7,31.6,85.4
		"/>
	<path class="st0" d="M43.6,74.6c-0.1,1.2,0.2,2.9-0.2,3.8c-1.8,0.4-1.5-1.3-1.9-2.3c-0.8-0.2-2.2-0.3-3,0c-2.4,3.4,4.2,3.7,5.6,5.9
		c2.9,4.5-4,7.9-9.1,5.8c0.1-1.3-0.2-3,0.2-4c1.8-0.4,1.7,1.2,2.1,2.3c1.2,0.4,3.7,0.8,4.2-0.5c1.1-2.9-5-3.8-5.9-5.2
		C32.9,76.1,38.6,72.8,43.6,74.6"/>
	<path class="st0" d="M80.6,79.6H86C86.7,74.8,80,75.1,80.6,79.6 M89.2,81.2h-8.6c0,2.1,0.2,3.5,1.4,4.4c2,1.4,4.9,0.2,6.8-0.2
		c0.8,1.9-1.9,2.7-3.8,3c-6.9,0.9-10-6.6-6.5-11.7C81.6,72.1,90.7,73.8,89.2,81.2"/>
	<path class="st0" d="M104,76.6c1-1.9,5.4-3.6,7.7-1.6c2.4,2.1,1,6.8,1.4,11c0.6,0.6,2,0.3,1.7,1.7c-1.5,0.7-4.9,0.4-6.6,0.2
		c-0.2-1.4,0.9-1.4,1.7-1.7c-0.4-3.5,1.3-9.3-1.7-10c-4.2-0.9-4.2,5.1-4,9.6c0.4,0.8,2,0.5,1.7,1.9c-1.5,0.7-5,0.4-6.8,0.2
		c-0.3-1.7,1.3-1.4,2.1-1.9v-9.4c-0.4-0.9-2.5,0-2.1-1.6c1-0.9,3.2-0.6,5.1-0.7C104.1,75.1,104.4,76.2,104,76.6"/>
	<path class="st0" d="M152.4,91.1c0.5,2.8,8,2.9,7.3-1c-0.3-1.6-3.3-2.4-5.8-1.6C152.9,88.9,152.1,89.4,152.4,91.1 M157.6,81.7
		c2.3-1.9,0-6.2-2.4-5.8C150.5,76.7,154.3,84.6,157.6,81.7 M156.6,95h-2.8c-4.6,0.4-5.8-5.8-1.7-7c-2.2-0.5-1.8-4.2,0.2-4.7
		c-2.6-1.1-2.6-5.7-0.9-7.5c2.4-2.5,7.2-1.2,11.2-1.4v1.9c-0.6-0.1-1.1-0.3-1.9-0.2c2.5,3.8-1.2,9.2-6.8,7.5c-2.1,2.7,2.5,2,4.9,2.3
		C166,86.8,162.1,95.2,156.6,95"/>
	<path class="st0" d="M173.2,74.6c-0.1,1.2,0.2,2.9-0.2,3.8c-1.7,0.3-1.6-1.2-1.9-2.3c-1-0.2-2.8-0.4-3.3,0.3
		c-1.3,4.4,8.2,3.1,6.3,8.9c-0.9,2.7-5.1,3.5-9.4,2.6c0.2-1.3-0.4-3.4,0.3-4.2c1.7-0.3,1.4,1.4,1.9,2.3c1,0.4,3.3,0.7,4-0.2
		c1.5-3.8-5.5-3.4-6.3-6.6C163.6,74.8,168.5,73.4,173.2,74.6"/>
	<path class="st0" d="M189.4,76.8c1-2,5.1-3.7,7.5-1.9c2.6,1.9,1.6,7.4,1.6,11.2c0.7,0.6,2.1,0.3,1.9,1.7c-1.5,0.7-4.9,0.4-6.6,0.2
		c-0.2-1.3,0.8-1.4,1.6-1.7c0-3.3,1.2-9.4-1.7-10c-1.5-0.3-3.2,0.9-3.7,2.6c-0.5,1.6-0.6,5.5-0.2,6.8c0.4,1.2,1.8,0.7,1.7,1.9
		c-1.1,1.1-4.8,0.4-6.5,0.3c-0.3-1.6,1.4-1.2,1.7-2.1c-0.4-3.6,1.1-9.1-1.9-9.6c-4.1-0.7-3.8,5.1-3.7,9.6c0.2,0.9,1.8,0.5,1.6,1.9
		c-1.5,0.7-5,0.4-6.8,0.2c-0.3-1.6,1.3-1.4,2.1-1.9v-9.4c-0.3-0.9-2.3,0-2.1-1.4c0.7-1.3,3.2-0.7,5.1-0.9v2.3
		C182,73.7,188.8,73.1,189.4,76.8"/>
	<path class="st0" d="M204.9,79.6h5.4C211.1,74.6,204.4,75.2,204.9,79.6 M213.7,81.2H205c-0.8,5.2,4.8,6,8.2,4
		c1.1,2.3-3.2,3.5-6.3,3.1c-1.3-0.2-2.8-0.9-3.3-1.4c-5.5-5,1-16.8,8-11.9C213.1,76.2,213.6,78,213.7,81.2"/>
	<path class="st0" d="M269.4,77c1.1-3.1,6.4-3.8,8.2-1.2c1.7,2.5,0.6,6.6,0.7,10.1c0.4,0.9,2.2,0.3,1.9,1.9
		c-1.5,0.7-4.9,0.4-6.6,0.2c-0.2-1.5,1.3-1.3,1.7-2.1c-0.3-3.9,1-9-1.9-9.6c-1.5-0.3-3.3,1-3.7,2.8c-0.3,1.2-0.6,5.3,0,6.8
		c0.4,1,1.5,0.4,1.6,1.9c-1.4,0.6-5.1,0.6-6.5,0c-0.1-1.3,1.2-1.1,1.7-1.7c-0.4-3.6,1.2-9.3-1.9-9.8c-4.1-0.6-3.9,5-3.7,9.6
		c0.2,0.9,1.9,0.5,1.6,1.9c-1.5,0.7-5,0.4-6.8,0.2c-0.2-1.5,1-1.5,2.1-1.7v-9.6c-0.3-0.8-1.9-0.2-2.1-1c0-1.8,3.4-1,5.2-1.2
		c-0.2,0.5-0.2,1.3-0.2,2.1C261.7,74.1,268.9,72.9,269.4,77"/>
	<path class="st0" d="M96,74.4v11.7c0.7,0.6,2.1,0.3,1.9,1.7c-1.6,0.6-5.6,0.6-7.2,0c-0.1-1.3,1.1-1.3,2.1-1.6v-9.6
		c-0.3-0.8-2-0.2-2.1-1.2C91.3,73.9,94.1,74.6,96,74.4"/>
	<path class="st0" d="M236.2,74.4v11.7c0.6,0.6,2,0.3,1.7,1.7c-1.6,0.7-5.1,0.4-7,0.2c-0.3-1.7,1.3-1.4,2.1-1.9v-9.4
		c-0.3-0.8-1.9-0.2-2.1-1C231,73.8,234.3,74.6,236.2,74.4"/>
	<path class="st0" d="M244.1,74.4c0.2,3.5-1.5,11.1,1.6,11.9c4.2,1,4.3-5.1,4-9.6c-0.2-0.9-2.2-0.1-1.9-1.4c0.6-1.3,3.1-0.7,4.9-0.9
		v11.5c0.3,0.7,1.7,0.3,1.9,1c-0.1,2-3.1,0.9-4.9,1.2c-0.1-0.9,0-1.6,0.2-2.3c-1.1,2.5-6.7,3.6-8.4,0.7c-1.5-2.7-0.3-6.3-0.7-10.1
		c-0.4-0.6-2,0-1.7-1.2C239.7,74,242.2,74.5,244.1,74.4"/>
	<path class="st0" d="M146.6,86.1c0.6,0.6,2,0.3,1.7,1.7c-1.5,0.7-4.9,0.4-6.6,0.2c-0.2-1.4,0.9-1.4,1.7-1.7
		c-0.2-3.4,1.2-9.3-1.7-10c-4.3-1-4.1,5.1-3.8,9.6c0.2,0.9,1.9,0.4,1.6,1.9c-1.5,0.7-5,0.4-6.8,0.2c-0.3-1.6,1.3-1.4,2.1-1.9v-9.4
		c-0.4-0.9-2.5,0-2.1-1.6c1-0.9,3.2-0.6,5.1-0.7v1.9c1.2-1.6,5.1-3.1,7.3-1.4C147.7,76.9,146.3,81.8,146.6,86.1"/>
	<path class="st0" d="M120.8,74.4c0.5,3.8-1.6,10.9,1.6,11.9c4.5,1.3,4.3-5.3,4-9.8c-0.4-0.6-1.7-0.1-1.9-0.9c0.3-1.8,3.2-1,5.1-1.2
		v11.7c0.4,0.6,1.7,0.1,1.9,0.9c-0.1,2-3.1,0.9-4.9,1.2v-1.9c-1.1,1.6-5.1,3.1-7.3,1.4c-2.7-2.1-1.3-6.9-1.6-11.2
		c-0.3-0.6-1.8,0-1.7-1C116.3,73.8,119,74.6,120.8,74.4"/>
</g>
</svg>
