<?xml version="1.0" encoding="utf-8"?>
<!-- Generator: Adobe Illustrator 19.2.1, SVG Export Plug-In . SVG Version: 6.00 Build 0)  -->
<svg version="1.1" id="Ebene_1" xmlns="http://www.w3.org/2000/svg" xmlns:xlink="http://www.w3.org/1999/xlink" x="0px" y="0px"
	 viewBox="0 0 233.5 98.9" style="enable-background:new 0 0 233.5 98.9;" xml:space="preserve">
<style type="text/css">
	.st0{fill:#FFFFFF;}
</style>
<g>
	<path class="st0" d="M64.7,22.4c10.9,4.7,17.7,15.3,17.7,27.1c0,13.9-6.9,23.5-17.7,27.6V22.4z M38.7,22.4V77
		C27.9,72.9,21,63.3,21,49.4C21,37.7,27.8,27.2,38.7,22.4 M64.7,84.1c19.2-3.4,38.7-14.5,38.7-34.6c0-16.5-19.6-29.8-38.7-34.2v-6
		c0-2.7,2.2-4.9,4.9-4.9h4.7V0H29.1v4.4h4.7c2.7,0,4.9,2.1,4.9,4.8v6C19.5,19.6,0,33,0,49.4C0,69.5,19.6,80.5,38.8,84v5.7
		c0,2.7-2.2,4.8-4.9,4.8h-4.7v4.4h45.2v-4.4h-4.7c-2.7,0-4.9-2.2-4.9-4.9L64.7,84.1L64.7,84.1z"/>
	<path class="st0" d="M174,34.6h5.7c3.8,0,6,2.5,6,6.6c0,2.1-0.3,3.4-1.1,4.6c-1.2,1.8-2.3,2.3-5.9,2.3H174V34.6z M133.6,34.4h4.1
		c3.5,0,5.5,1.3,7,3.7c1.8,2.9,2.2,7.2,2.2,12.4c0,9.4-2.7,13.9-8.5,13.9h-4.8L133.6,34.4L133.6,34.4z M165.1,27.4v44.3h8.9V55.4
		h4.9c4.9,0,6.8-0.5,8.8-1.5c4.8-2.3,7.7-7,7.7-12.8c0-5.1-2.2-9.2-6.4-11.5c-2.5-1.4-4.8-2.2-12.3-2.2
		C176.7,27.4,165.1,27.4,165.1,27.4z M124.5,27.4v44.3h10.8c2.6,0,4.7-0.1,6.4-0.2c4.1-0.3,8.1-2.7,10.8-6.4c3-4,4.5-9.3,4.5-15.4
		c0-8-2-13.7-6.1-17.7c-2.7-2.7-5.9-4-9.7-4.4c-1.8-0.1-5.1-0.3-7.7-0.3h-9V27.4z M219,26.7c-4.2,0-7.5,0.9-10.8,3.1
		c-6.2,4.1-9.2,10.8-9.2,20.1c0,6.6,1.5,11.3,4.7,15.5c3.6,4.6,8.5,6.8,15.1,6.8c5.2,0,10.2-1.3,14.7-4V47h-17.2l1.1,7.3h6.8v10.1
		c-1.5,0.8-3.1,1.1-5,1.1c-2.9,0-5.3-0.9-6.9-2.5c-2.2-2.2-3.3-6.3-3.3-12.6c0-6.6,0.8-11.4,3.8-14.3c1.5-1.5,3.8-2.2,6.4-2.2
		c3.4,0,6.4,1.1,9.2,3.4l4.7-5.6C229.1,28.4,224.3,26.7,219,26.7"/>
</g>
</svg>
