<svg width="141" height="123" xmlns="http://www.w3.org/2000/svg" xmlns:xlink="http://www.w3.org/1999/xlink"><defs><path id="a" d="M.984.989h16.553V18H.984z"/><path id="c" d="M.929.563h17.805V25H.929z"/><path id="e" d="M.058.989h16.553V18H.058z"/></defs><g fill="none" fill-rule="evenodd"><g fill="#FEFEFE"><path d="M81.315 28.266c12.426-6.473 9.234-17.55 4.747-22.18 9.665 5.004 11.564 22.87-4.747 22.18M70.732 40.018l-1.778-1.2-3.807 2.724-.003-.248c0-4.767 4.808-10.327 13.907-8.075-6.564 1.02-8.534 3.704-8.319 6.8m-11.527 2.968c-4.78-7.12-.456-12.643 2.52-14.407l-1.053-1.256c1.681-1.022 4.515-1.276 6.625-1.276 2.177 0 4.914.79 6.63 1.872-10.114-.475-15.239 6.481-14.722 15.067m17.686-38.73c1.952-.266 3.59.068 5.115.667-3.663 2.317-5.577 1.814-5.115-.667m24.437 17.32c0-10.37-7.457-19.997-17.954-21.326-1.35-.169-1.844-.234-3.32-.25l-.706 2.236c-.836-.1-.932-.152-1.793-.152l-.763.012-11.539 4.576.824 4.57 8.526.014c.5.44.737 1.442.737 2.157 0 1.324-.986 1.998-2.302 2.003h-6.205c.152.848.292 1.411.25 1.6-.146.671-3.819 3.058-3.819 3.058s2.977-.906 4.57-1.152c2.896-.449 4.812.24 6.49-.036 1.432-.232 3.31-1.179 3.31-1.179l-1.137 2.176a6.54 6.54 0 0 0 4.92-8.548c1.273 1.196 1.536 2.962 1.536 4.847 0 3.612-2.774 5.953-6.386 5.953-3.982 0-6.615-.62-11.126-.623-3.373.002-5.902.904-8.292 2.467 0 0-1.392-1.817-4.233-5.468-2.982-3.827-5.02-7.243-7.376-7.509-3.066-.343-4.103-.43-7.505-.053-2.346.261-.565 6.212-.565 6.212s.282-1.196.664-1.762c.25-.369.718-.884.718-.884l1.116 2.532c.892 1.19 4.318.947 4.977 1.411.99.698 2.532 2.728 3.491 4.977 1.177 2.764 2.12 6.867 2.12 6.867s-.387-.167-1.322-.525c-2.453-.935-5.035-1.42-6.56-.659-2.759 1.38-3.675 1.872-6.323 4.042-1.826 1.498 2.718 5.412 2.718 5.412s-.222-1.053-.212-1.735c.01-.442.123-1.13.123-1.13l2.312 1.515c1.397.512 2.972-1.948 4.946-1.527 1.631.347 3.387 1.858 4.07 2.333a15.143 15.143 0 0 0 4.756 9.762c.863-.667 2.431-1.716 3.552-2.117 1.534-.546 18.145-1.802 18.145-1.802l-1.822-3.277 15.98-4.933v4.288c4.835-3.904 7.927-9.879 7.927-16.577 0-.348-.1-1.287-.169-1.945l2.56 1.58c.02-.28.091-1.137.091-1.432"/><path d="M66.736 14.859s-5.895.022-7.746.022c-2.593 0-3.049-4.721-3.049-4.721s1.645 1.647 2.68 1.647l7.564.005.551 3.047zM31.855 61.183c1.561-.012 6.021-.094 10.16-.582 5.1-.602 11.298-6.659 15.806-9.418 1.652-1.015 13.743-2.399 18.15-2.89 6.84-.761 22.097 1.16 22.097 1.16s-21.022-.302-28.807 3.208c-6.81 3.074-13.684 10.711-15.818 11.81-1.974 1.017-6.738 2.774-8.077 3.018-1.007.184-3.878.447-5.24.565l-8.27-6.871z"/><path d="M43.815 71.122c2.955-.858 10.252-3.02 11.022-3.62.974-.756 9.91-7.651 16.137-10.021 9.993-3.806 30.869-5.251 33.792-6.077 3.818-1.08 14.296-7.318 14.823-7.792.524-.473 1.653-1.266 1.653-1.266s-2.885 8.29-7.63 11.28c-4.166 2.625-21.748 1.842-25.483 2.345-6.87.925-17.995 7.538-27.96 17.055-1.111 1.063-7.34 3.416-9.147 4.086l-7.207-5.99z"/><path d="M53.383 79.074c1.822-.55 6.73-2.09 8.046-3.139 1.626-1.29 14.02-10.72 21.672-13.22 8.988-2.936 31.057-2.74 31.057-2.74s-20.324 3.921-26.61 7.086c-6.288 3.16-19.497 16.026-20.896 16.454-1.157.353-4.653 1.392-5.83 1.742l-7.439-6.183z"/></g><path d="M18.873 100.23H5.02l-.69 3.85h4.737c2.172 0 3.092-.033 3.885-.066-.66.69-1.252 1.35-1.812 2.105l-9.97 13.033-.627 3.291h14.252l.757-3.95h-4.378c-2.634 0-4.146 0-4.673.065.496-.527.89-1.02 1.283-1.547l10.466-13.36.624-3.422zm9.663 10.068c0 1.744-1.974 2.535-5.76 2.665.594-2.138 1.942-4.112 4.08-4.112 1.054 0 1.68.527 1.68 1.447m4.08-.558c0-1.974-1.248-3.982-5.298-3.982-5.1 0-9.246 4.64-9.246 11.486 0 3.617 1.643 5.528 5.79 5.528 2.173 0 4.31-.362 6.12-1.055v-3.224c-1.511.626-3.191.986-4.771.986-2.271 0-2.993-.558-2.993-2.433 0-.362.065-.923.099-1.285 6.417-.196 10.3-2.105 10.3-6.02m11.667.557c0 1.744-1.974 2.535-5.758 2.665.592-2.138 1.94-4.112 4.081-4.112 1.051 0 1.677.527 1.677 1.447m4.081-.558c0-1.974-1.252-3.982-5.299-3.982-5.1 0-9.246 4.64-9.246 11.486 0 3.617 1.645 5.528 5.791 5.528 2.172 0 4.31-.362 6.12-1.055v-3.224c-1.512.626-3.189.986-4.772.986-2.268 0-2.993-.558-2.993-2.433 0-.362.065-.923.1-1.285 6.416-.196 10.3-2.105 10.3-6.02m9.825-11.354c-2.37-.065-4.902.034-7.009.295l-.462 2.633a30.69 30.69 0 0 1 2.764.329l-.034.065-3.947 20.733h4.114l4.574-24.055z" fill="#FEFEFE"/><g transform="translate(57 104.804)"><mask id="b" fill="#fff"><use xlink:href="#a"/></mask><path d="M12.6 4.508l-.197 1.051c-.657 3.455-3.586 8.822-5.924 8.822-.822 0-1.25-.66-1.25-2.271 0-3.421 1.745-7.833 5.53-7.833.723 0 1.315.098 1.842.231zm4.674-3.026c-1.844-.363-3.818-.493-5.792-.493C4.307.989.984 6.715.984 12.899.984 16.39 2.334 18 4.836 18c3.256 0 5.528-3.158 6.842-5.56h.068c-.756 2.27-1.218 3.915-1.481 5.232 2.172.064 4.672-.035 6.779-.297l.493-2.632a28.986 28.986 0 0 1-2.733-.33l2.47-12.931z" fill="#FEFEFE" mask="url(#b)"/></g><path d="M93.64 111.155c.625-3.192-.33-5.43-3.521-5.43-3.092 0-5.363 2.533-6.878 5.464l-.065-.034c.92-2.568 1.283-4.115 1.48-5.1-2.171-.068-4.737.03-6.844.294l-.493 2.634c.954.065 2.04.198 2.762.328v.066l-2.501 13.066h4.114l.79-4.148c.692-3.815 3.685-8.95 5.89-8.95 1.02 0 1.349.824.987 2.83l-1.974 10.268h4.115l2.138-11.288z" fill="#FEFEFE"/><g transform="translate(95 97.804)"><mask id="d" fill="#fff"><use xlink:href="#c"/></mask><path d="M12.546 11.508l-.196 1.052c-.66 3.457-3.588 8.82-5.924 8.82-.824 0-1.251-.659-1.251-2.27 0-3.421 1.744-7.833 5.527-7.833a7.34 7.34 0 0 1 1.844.232zM18.734.583c-2.37-.066-4.905.034-7.01.294l-.495 2.635c.957.064 2.008.197 2.764.328l-.031.066-.79 4.212a11.436 11.436 0 0 0-1.745-.13C4.254 7.989.929 13.715.929 19.9c0 3.489 1.35 5.1 3.852 5.1 3.257 0 5.528-3.157 6.844-5.56h.066c-.756 2.27-1.25 3.948-1.447 5.232 2.138.064 4.639-.035 6.745-.297l.496-2.631a28.743 28.743 0 0 1-2.733-.331L18.734.583z" fill="#FEFEFE" mask="url(#d)"/></g><path d="M122.766 106.055c-2.368-.068-4.902.03-7.01.295l-.492 2.633c.954.066 2.042.198 2.764.329v.065l-2.501 13.064h4.113l3.126-16.386zm1.416-4.871c0-1.184-.988-2.302-2.436-2.302-1.447 0-2.764 1.15-2.764 2.73 0 1.218.988 2.37 2.436 2.37a2.767 2.767 0 0 0 2.764-2.798z" fill="#FEFEFE"/><g transform="translate(124 104.804)"><mask id="f" fill="#fff"><use xlink:href="#e"/></mask><path d="M11.675 4.508l-.198 1.051c-.657 3.455-3.586 8.822-5.922 8.822-.824 0-1.251-.66-1.251-2.271 0-3.421 1.744-7.833 5.527-7.833a7.34 7.34 0 0 1 1.844.231zm4.673-3.026c-1.844-.363-3.818-.493-5.792-.493C3.383.989.058 6.715.058 12.899.058 16.39 1.407 18 3.91 18c3.257 0 5.528-3.158 6.845-5.56h.065c-.759 2.27-1.218 3.915-1.481 5.232 2.172.064 4.673-.035 6.779-.297l.493-2.632a28.793 28.793 0 0 1-2.73-.33l2.467-12.931z" fill="#FEFEFE" mask="url(#f)"/></g></g></svg>