<?xml version="1.0" encoding="utf-8"?>
<!-- Generator: Adobe Illustrator 19.2.1, SVG Export Plug-In . SVG Version: 6.00 Build 0)  -->
<svg version="1.1" id="Ebene_1" xmlns="http://www.w3.org/2000/svg" xmlns:xlink="http://www.w3.org/1999/xlink" x="0px" y="0px"
	 viewBox="0 0 156.7 99.7" style="enable-background:new 0 0 156.7 99.7;" xml:space="preserve">
<style type="text/css">
	.st0{fill:#FFFFFF;}
</style>
<g>
	<path class="st0" d="M35.1,86.7V39.9c9.8,0,13.1,7.5,13.1,14c0,8.2-3.7,13.5-10.1,14v18.8c19.5,0,30.9-15.9,30.9-31
		c0-20.4-12.8-34.5-33.6-34.5H14.7v65.5H35.1z"/>
</g>
<rect x="72.9" y="21.2" class="st0" width="20.4" height="65.5"/>
<g>
	<path class="st0" d="M141.1,46.1h-21c2.6-6,8.1-7.5,13.1-7.5h7.9V21.2h-10.3c-15.4,0-33.2,10.5-33.2,32.7
		c0,22.3,17.8,32.7,33.2,32.7h10.3V69.2h-7.9c-5.1,0-10.5-1.5-13.1-7.5h21C141.1,61.7,141.1,46.1,141.1,46.1z"/>
	<path class="st0" d="M76.1,11.8c0-3.9,3.2-7.1,7.1-7.1s7.2,3.2,7.2,7.1s-3.2,7.1-7.2,7.1C79.3,19,76.1,15.8,76.1,11.8"/>
</g>
</svg>
