<?xml version="1.0" encoding="utf-8"?>
<!-- Generator: Adobe Illustrator 19.2.1, SVG Export Plug-In . SVG Version: 6.00 Build 0)  -->
<svg version="1.1" id="Ebene_1" xmlns="http://www.w3.org/2000/svg" xmlns:xlink="http://www.w3.org/1999/xlink" x="0px" y="0px"
	 viewBox="0 0 144 144" style="enable-background:new 0 0 144 144;" xml:space="preserve">
<style type="text/css">
	.st0{fill:#FFFFFF;}
</style>
<g>
	<path class="st0" d="M72.3,90.2c5.7,0,10.3-4.6,10.3-10.3c0-5.7-4.6-10.3-10.3-10.3c-5.7,0-10.3,4.6-10.3,10.3S66.6,90.2,72.3,90.2
		 M73.8,109.7H71v-5.6h2.7c1.9,0,2.5,1.3,2.5,2.7C76.3,108.3,75.5,109.7,73.8,109.7 M74.9,98.9h-10v23.8h6v-7.8h2
		c3.9,0,5.4-0.4,6.7-1.3c2-1.4,3.1-3.7,3.1-6.6C82.7,101.9,79.7,98.9,74.9,98.9 M62,55c0,5.7,4.6,10.3,10.3,10.3
		c5.7,0,10.3-4.6,10.3-10.3c0-5.7-4.6-10.3-10.3-10.3S62,49.3,62,55 M96.7,44.7c-5.7,0-10.3,4.6-10.3,10.3c0,5.7,4.6,10.3,10.3,10.3
		c5.7,0,10.3-4.6,10.3-10.3C107,49.3,102.4,44.7,96.7,44.7 M96.7,69.7c-5.7,0-10.3,4.6-10.3,10.3c0,5.7,4.6,10.3,10.3,10.3
		c5.7,0,10.3-4.6,10.3-10.3C107,74.3,102.4,69.7,96.7,69.7 M86.5,110.9c0,7.2,5.1,12.4,12.2,12.4c2.2,0,3.5-0.3,5.7-1.4v-6.2
		c-2.2,1.6-3.2,1.9-5.1,1.9c-3.6,0-6.1-2.7-6.1-6.6c0-3.9,2.5-6.6,6.1-6.6c1.9,0,2.8-0.1,5.1,1.8V100c-2.3-1.1-3.7-1.5-5.8-1.5
		C91.6,98.4,86.5,103.8,86.5,110.9 M47.3,65.2c5.7,0,10.3-4.6,10.3-10.3c0-5.7-4.6-10.3-10.3-10.3c-5.7,0-10.3,4.6-10.3,10.3
		C37,60.6,41.6,65.2,47.3,65.2 M47.3,40.9c5.7,0,10.3-4.6,10.3-10.3S53,20.3,47.3,20.3c-5.7,0-10.3,4.6-10.3,10.3
		C37,36.3,41.6,40.9,47.3,40.9 M96.7,40.9c5.7,0,10.3-4.6,10.3-10.3s-4.6-10.3-10.3-10.3c-5.7,0-10.3,4.6-10.3,10.3
		C86.4,36.3,91,40.9,96.7,40.9 M72.3,40.9c5.7,0,10.3-4.6,10.3-10.3S78,20.3,72.3,20.3c-5.7,0-10.3,4.6-10.3,10.3
		S66.6,40.9,72.3,40.9 M52.5,113.4c0,1.4-0.2,2.4-1.2,3.3c-0.7,0.6-1.4,0.8-2.3,0.8c-1,0-1.6-0.2-2.3-0.8c-1.1-0.9-1.2-2-1.2-3.3V99
		h-6.9v14.5c0,2.5,0.1,5.6,3.4,8c2.2,1.5,4.7,1.8,7,1.8s4.9-0.3,7-1.8c3.3-2.3,3.4-5.5,3.4-8V99h-6.9V113.4z M47.3,90.2
		c5.7,0,10.3-4.6,10.3-10.3c0-5.7-4.6-10.3-10.3-10.3c-5.7,0-10.3,4.6-10.3,10.3C37,85.6,41.6,90.2,47.3,90.2 M72,0
		c39.8,0,72,32.2,72,72s-32.2,72-72,72S0,111.8,0,72S32.2,0,72,0"/>
</g>
</svg>
