<?xml version="1.0" encoding="utf-8"?>
<!-- Generator: Adobe Illustrator 21.1.0, SVG Export Plug-In . SVG Version: 6.00 Build 0)  -->
<svg version="1.1" id="Ebene_1" xmlns="http://www.w3.org/2000/svg" xmlns:xlink="http://www.w3.org/1999/xlink" x="0px" y="0px"
	 viewBox="0 0 580 200" style="enable-background:new 0 0 580 200;" xml:space="preserve">
<style type="text/css">
	.st0{fill:#FFFFFF;}
</style>
<path class="st0" d="M232.1,90.4h-7.7c-15.5,0-17.5,3.8-17.5,9.5v9.7c0,1.3,0,2.4,0.2,3.5c-4.5-0.4-5.8-1.3-5.8-3.5
	c0-2.8-4.2-3.5-6.4-3.7c2.2-0.3,6.4-1.4,6.4-5.7c0-7.7-2-9.7-17.5-9.7H149v5.8h7.7c0,0,0,9.7,0,13.5s-7.7,3.8-7.7,3.8v5.8h25.2v-9.7
	c0.4,0,3.6,0,6.3,0c1.4,0,5.4,0.4,5.4,3.6v5.9h32.8c1.7,0.1,3.6,0.2,5.7,0.2h25.2v-5.8h-21.2c0,0-5.8-0.2-5.8-4v-1.8h27.2v-7.7h-0.2
	C249.6,94.3,247.6,90.4,232.1,90.4z M179.9,104.1h-5.8c0,0,0-2.3,0-3.8c0-3.8,5.8-3.8,5.8-3.8s5.8,0,5.8,3.8
	S179.9,104.1,179.9,104.1z M233.9,101.9h-11.7c0-1.3,0-2,0-2h0.2c0-3.8,5.8-3.8,5.8-3.8s5.8,0,5.8,3.8
	C233.9,99.9,233.9,100.8,233.9,101.9z M302,90.4h-9.7v-9.7H267v5.8h7.7v32.8v0.4H302c17.5,0,17.5-3.8,17.5-9.7v-9.7
	C319.4,94.3,317.5,90.4,302,90.4z M303.8,109.8c0,3.8-5.8,3.8-5.8,3.8s-5.8,0-5.8-3.8c0,0,0-7.7,0-9.7c0-3.8,5.8-3.8,5.8-3.8
	s5.8,0,5.8,3.8C303.8,100.1,303.8,107.8,303.8,109.8z M348.4,90.4v0.2h-7.7c-15.5,0-17.5,3.8-17.5,9.5v9.7c0,5.8,0,9.7,17.5,9.7h7.7
	c17.5,0,17.5-3.8,17.5-9.7v-9.7C365.9,94.3,363.9,90.4,348.4,90.4z M350.4,109.8c0,3.8-5.8,3.8-5.8,3.8s-5.8,0-5.8-3.8
	c0-2,0-9.7,0-9.7c0-3.8,5.8-3.8,5.8-3.8s5.8,0,5.8,3.8C350.4,100.1,350.4,107.8,350.4,109.8z M394.9,90.4v0.2h-7.7
	c-15.5,0-17.5,3.8-17.5,9.5v9.7c0,5.8,0,9.7,17.5,9.7h7.7c17.5,0,17.5-3.8,17.5-9.7v-9.7C412.3,94.3,410.3,90.4,394.9,90.4z
	 M396.8,109.8c0,3.8-5.8,3.8-5.8,3.8s-5.8,0-5.8-3.8c0-2,0-9.7,0-9.7c0-3.8,5.8-3.8,5.8-3.8s5.8,0,5.8,3.8
	C396.8,100.1,396.8,107.8,396.8,109.8z M460.8,109.6v0.2c0-3.8-7.7-3.8-7.7-3.8s7.7,0,7.7-5.8c0-7.7-2-9.7-17.5-9.7h-9.7v-9.7h-25.2
	v5.8h7.7c0,0,0,1.6,0,3.8v29h17.5v-9.7c0.4,0,3.6,0,6.3,0c1.4,0,5.4,0.4,5.4,3.6v5.9h29c0,0,0-3.8,0-5.8
	C464.5,113.4,460.8,113.4,460.8,109.6z M439.5,104.1h-5.8v-3.8c0-3.8,5.8-3.8,5.8-3.8s5.8,0,5.8,3.8S439.5,104.1,439.5,104.1z
	 M253.5,113.6H271v5.9h-17.5V113.6z M105.7,91.1H134v6.3h-28.3V91.1z M105.7,80.5H134v6.3h-28.3V80.5z M105.7,113.1H134v6.5h-28.3
	V113.1z M105.7,102.4H134v6.3h-28.3V102.4z"/>
</svg>
