<?xml version="1.0" encoding="utf-8"?>
<!-- Generator: Adobe Illustrator 19.2.1, SVG Export Plug-In . SVG Version: 6.00 Build 0)  -->
<svg version="1.1" id="Ebene_1" xmlns="http://www.w3.org/2000/svg" xmlns:xlink="http://www.w3.org/1999/xlink" x="0px" y="0px"
	 viewBox="0 0 366.6 78" style="enable-background:new 0 0 366.6 78;" xml:space="preserve">
<style type="text/css">
	.st0{fill:#FFFFFF;}
</style>
<g>
	<path class="st0" d="M42.5,24.3c10.7-5.6,7.9-15.1,4.1-19.1C55,9.5,56.6,24.9,42.5,24.3 M33.4,34.4l-1.5-1l-3.3,2.3v-0.2
		c0-4.1,4.1-8.9,12-6.9C35,29.5,33.3,31.8,33.4,34.4 M23.5,37c-4.1-6.1-0.4-10.9,2.2-12.4l-0.9-1.1c1.4-0.9,3.9-1.1,5.7-1.1
		c1.9,0,4.2,0.7,5.7,1.6C27.5,23.6,23.1,29.6,23.5,37 M38.7,3.7c1.7-0.2,3.1,0.1,4.4,0.6C40,6.2,38.3,5.8,38.7,3.7 M59.8,18.6
		c0-8.9-6.4-17.2-15.5-18.4C43.1,0.1,42.7,0,41.4,0l-0.6,1.9c-0.7-0.1-0.8-0.1-1.5-0.1h-0.7l-9.9,3.9l0.7,3.9h7.3
		c0.4,0.4,0.6,1.2,0.6,1.9c0,1.1-0.9,1.7-2,1.7H30c0.1,0.7,0.3,1.2,0.2,1.4c-0.1,0.6-3.3,2.6-3.3,2.6s2.6-0.8,3.9-1
		c2.5-0.4,4.1,0.2,5.6,0c1.2-0.2,2.8-1,2.8-1l-1,1.9c2.6-0.5,4.5-2.8,4.5-5.5c0-0.6-0.1-1.3-0.3-1.8c1.1,1,1.3,2.5,1.3,4.2
		c0,3.1-2.4,5.1-5.5,5.1c-3.4,0-5.7-0.5-9.6-0.5c-2.9,0-5.1,0.8-7.1,2.1c0,0-1.2-1.6-3.6-4.7c-2.6-3.3-4.3-6.2-6.3-6.5
		C9,9.2,8.1,9.1,5.1,9.5c-2,0.2-0.5,5.3-0.5,5.3s0.2-1,0.6-1.5c0.2-0.3,0.6-0.8,0.6-0.8l1,2.2c0.8,1,3.7,0.8,4.3,1.2
		c0.9,0.6,2.2,2.3,3,4.3c1,2.4,1.8,5.9,1.8,5.9s-0.3-0.1-1.1-0.4c-2.1-0.8-4.3-1.2-5.6-0.6c-2.4,1.2-3.2,1.6-5.4,3.5
		c-1.6,1.3,2.3,4.7,2.3,4.7s-0.2-0.9-0.2-1.5c0-0.4,0.1-1,0.1-1l2,1.3c1.2,0.4,2.6-1.7,4.3-1.3c1.4,0.3,2.9,1.6,3.5,2
		c0.3,3.3,1.8,6.3,4.1,8.4c0.7-0.6,2.1-1.5,3.1-1.8c1.3-0.5,15.6-1.6,15.6-1.6L37,35l13.8-4.2v3.7c4.2-3.4,6.8-8.5,6.8-14.3
		c0-0.3-0.1-1.1-0.1-1.7l2.2,1.4C59.7,19.6,59.8,18.8,59.8,18.6"/>
	<path class="st0" d="M30,12.8c0,0-5.1,0-6.7,0c-2.2,0-2.6-4.1-2.6-4.1s1.4,1.4,2.3,1.4h6.5L30,12.8z"/>
	<path class="st0" d="M0,52.7c1.3,0,5.2-0.1,8.7-0.5c4.4-0.5,9.7-5.7,13.6-8.1c1.4-0.9,11.8-2.1,15.6-2.5c5.9-0.7,19,1,19,1
		s-18.1-0.3-24.8,2.8c-5.9,2.6-11.8,9.2-13.6,10.2c-1.7,0.9-5.8,2.4-7,2.6c-0.9,0.2-3.3,0.4-4.5,0.5L0,52.7z"/>
	<path class="st0" d="M10.3,61.2c2.5-0.7,8.8-2.6,9.5-3.1c0.8-0.7,8.5-6.6,13.9-8.6c8.6-3.3,26.6-4.5,29.1-5.2
		c3.3-0.9,12.3-6.3,12.8-6.7c0.5-0.4,1.4-1.1,1.4-1.1s-2.5,7.1-6.6,9.7c-3.6,2.3-18.7,1.6-21.9,2C42.6,49,33,54.7,24.4,62.9
		c-1,0.9-6.3,2.9-7.9,3.5L10.3,61.2z"/>
	<path class="st0" d="M18.5,68.1c1.6-0.5,5.8-1.8,6.9-2.7c1.4-1.1,12.1-9.2,18.7-11.4c7.7-2.5,26.7-2.4,26.7-2.4S53.3,55,47.9,57.7
		s-16.8,13.8-18,14.2c-1,0.3-4,1.2-5,1.5L18.5,68.1z"/>
	<path class="st0" d="M100.5,30.8c-0.8,4.4-3.3,7.9-9.1,7.9c-1.5,0-2.5-0.2-3.4-0.3l0.9-4.7c0.6,0.3,1.4,0.4,2.3,0.4
		c2,0,3.4-0.9,4-3.8l3.9-20.5h5.4L100.5,30.8z"/>
	<path class="st0" d="M106.3,17.6c2.8-0.3,6.1-0.5,9-0.4l-2.5,13.2c-0.5,2.6-0.1,3.6,1.3,3.6c2.8,0,6.6-6.6,7.5-11.5l1-5.3h5.3
		l-3.2,16.9c0.9,0.2,2.3,0.3,3.5,0.4l-0.6,3.4c-2.7,0.3-5.9,0.5-8.7,0.4c0.2-1.3,0.7-3.3,1.9-6.6h-0.1c-1.9,3.8-4.9,7-8.8,7
		c-4.1,0-5.3-2.9-4.5-7l2-10.3v-0.1c-0.9-0.2-2.3-0.3-3.6-0.4L106.3,17.6z"/>
	<path class="st0" d="M149.8,38.3h-5.3l2.5-13.2c0.5-2.6,0-3.6-1.3-3.6c-2.8,0-6.7,6.6-7.6,11.5l-1,5.3h-5.3l3.2-16.8v-0.1
		c-0.9-0.2-2.3-0.3-3.6-0.4l0.6-3.4c2.7-0.3,6-0.5,8.8-0.4c-0.3,1.3-0.7,3.3-1.9,6.6h0.1c1.9-3.8,4.9-7,8.8-7c4.1,0,5.3,2.9,4.5,7
		L149.8,38.3z"/>
	<path class="st0" d="M168.1,21.1c-4.9,0-7.1,5.7-7.1,10.1c0,2.1,0.6,2.9,1.6,2.9c3,0,6.8-6.9,7.6-11.3l0.3-1.4
		C169.8,21.2,169,21.1,168.1,21.1 M172.2,39.6c-1.1,5.8-4.8,9.3-13,9.3c-2.4,0-4.4-0.3-6.1-0.9l1.2-5c1.7,0.8,3.9,1.2,5.8,1.2
		c4,0,6.3-1.5,7-5.3c0.5-2.4,1-3.9,2.2-7.2h-0.1c-1.7,3-4.6,7.1-8.8,7.1c-3.2,0-5-2.1-5-6.6c0-8,4.3-15.3,13.5-15.3
		c2.5,0,5.1,0.2,7.5,0.6L172.2,39.6z"/>
	<path class="st0" d="M208.7,14.1l-13.5,17.2c-0.5,0.7-1,1.3-1.7,2c0.7-0.1,2.6-0.1,6-0.1h5.6l-1,5.1h-18.3l0.8-4.2l12.8-16.8
		c0.7-1,1.5-1.8,2.3-2.7c-1,0-2.2,0.1-5,0.1h-6.1l0.9-5h17.8L208.7,14.1z"/>
	<path class="st0" d="M219.8,20.8c-2.8,0-4.5,2.5-5.3,5.3c4.9-0.2,7.4-1.2,7.4-3.4C222,21.5,221.2,20.8,219.8,20.8 M214,29.7
		c0,0.5-0.1,1.2-0.1,1.7c0,2.4,0.9,3.1,3.9,3.1c2,0,4.2-0.5,6.1-1.3v4.2c-2.3,0.9-5.1,1.4-7.9,1.4c-5.3,0-7.5-2.5-7.5-7.1
		c0-8.8,5.3-14.8,11.9-14.8c5.2,0,6.8,2.6,6.8,5.1C227.2,27,222.2,29.5,214,29.7"/>
	<path class="st0" d="M240.1,20.8c-2.8,0-4.5,2.5-5.3,5.3c4.9-0.2,7.4-1.2,7.4-3.4C242.3,21.5,241.5,20.8,240.1,20.8 M234.3,29.7
		c0,0.5-0.1,1.2-0.1,1.7c0,2.4,0.9,3.1,3.9,3.1c2,0,4.2-0.5,6.1-1.3v4.2c-2.3,0.9-5.1,1.4-7.9,1.4c-5.3,0-7.5-2.5-7.5-7.1
		c0-8.8,5.3-14.8,11.9-14.8c5.2,0,6.8,2.6,6.8,5.1C247.5,27,242.6,29.5,234.3,29.7"/>
	<path class="st0" d="M254.4,38.3h-5.3l5.1-26.7v-0.1c-1-0.2-2.4-0.3-3.6-0.4l0.6-3.4c2.7-0.3,6-0.5,9-0.4L254.4,38.3z"/>
	<path class="st0" d="M272.7,21.1c-4.9,0-7.1,5.7-7.1,10.1c0,2.1,0.6,2.9,1.6,2.9c3,0,6.8-6.9,7.6-11.3l0.3-1.4
		C274.4,21.2,273.6,21.1,272.7,21.1 M277.9,34.2c0.9,0.2,2.3,0.3,3.5,0.4l-0.6,3.4c-2.7,0.3-5.9,0.5-8.7,0.4
		c0.3-1.7,0.9-3.8,1.9-6.7h-0.1c-1.7,3.1-4.6,7.2-8.8,7.2c-3.2,0-5-2.1-5-6.6c0-8,4.3-15.3,13.5-15.3c2.5,0,5.1,0.2,7.4,0.6
		L277.9,34.2z"/>
	<path class="st0" d="M303.3,38.3H298l2.5-13.2c0.5-2.6,0-3.6-1.3-3.6c-2.8,0-6.7,6.6-7.6,11.5l-1,5.3h-5.3l3.2-16.8v-0.1
		c-0.9-0.2-2.3-0.3-3.6-0.4l0.6-3.4c2.7-0.3,6-0.5,8.8-0.4c-0.3,1.3-0.7,3.3-1.9,6.6h0.1c1.9-3.8,4.9-7,8.8-7c4.1,0,5.3,2.9,4.5,7
		L303.3,38.3z"/>
	<path class="st0" d="M321.6,21.1c-4.9,0-7.1,5.7-7.1,10.1c0,2.1,0.5,2.9,1.6,2.9c3,0,6.8-6.9,7.6-11.3l0.3-1.4
		C323.3,21.2,322.5,21.1,321.6,21.1 M326.8,34.2c0.9,0.2,2.3,0.3,3.5,0.4l-0.6,3.4c-2.7,0.3-5.9,0.5-8.7,0.4
		c0.3-1.7,0.9-3.8,1.9-6.7h-0.1c-1.7,3.1-4.6,7.2-8.8,7.2c-3.2,0-5-2.1-5-6.6c0-8,4.3-15.3,13.5-15.3c0.7,0,1.4,0,2.2,0.2l1-5.4
		v-0.1c-1-0.2-2.3-0.3-3.6-0.4l0.6-3.4c2.7-0.3,6-0.5,9-0.4L326.8,34.2z"/>
	<path class="st0" d="M341.8,14.6c-1.9,0-3.1-1.5-3.1-3c0-2,1.7-3.5,3.6-3.5c1.9,0,3.1,1.4,3.1,3C345.4,13.1,343.7,14.6,341.8,14.6
		 M339.5,38.3h-5.3l3.2-16.8v-0.1c-0.9-0.2-2.3-0.3-3.6-0.4l0.6-3.4c2.7-0.3,6-0.5,9-0.4L339.5,38.3z"/>
	<path class="st0" d="M357.9,21.1c-4.9,0-7.1,5.7-7.1,10.1c0,2.1,0.6,2.9,1.6,2.9c3,0,6.8-6.9,7.6-11.3l0.3-1.4
		C359.6,21.2,358.8,21.1,357.9,21.1 M363.1,34.2c0.9,0.2,2.3,0.3,3.5,0.4L366,38c-2.7,0.3-5.9,0.5-8.7,0.4c0.3-1.7,0.9-3.8,1.9-6.7
		h-0.1c-1.7,3.1-4.6,7.2-8.8,7.2c-3.2,0-5-2.1-5-6.6c0-8,4.3-15.3,13.5-15.3c2.5,0,5.1,0.2,7.4,0.6L363.1,34.2z"/>
	<path class="st0" d="M200.9,73.4h-2.8l0.3-5.6c0.1-1.1,0.1-2.1,0.2-3l0,0c-0.3,0.9-0.7,1.8-1.2,2.8l-2.9,5.8H192l-0.7-5.4
		c-0.1-1-0.2-2.3-0.2-3.2l0,0c-0.3,1.1-0.6,2.1-0.9,3.2l-1.7,5.4h-2.6l4.3-12.5h2.9l0.8,6.1c0.1,0.9,0.2,1.7,0.2,2.7l0,0
		c0.4-1,0.7-1.7,1.2-2.7l3.1-6.1h2.9L200.9,73.4z"/>
	<path class="st0" d="M207.6,65.9c-1.1,0-1.9,1.1-2.1,2.2c1.9-0.1,3-0.5,3-1.4C208.5,66.1,208.2,65.9,207.6,65.9 M205.2,69.7
		c0,0.2,0,0.5,0,0.6c0,1,0.4,1.3,1.6,1.3c0.9,0,1.8-0.2,2.7-0.6v1.9c-1,0.4-2.3,0.6-3.5,0.6c-2.4,0-3.3-1.1-3.3-3.2
		c0-3.9,2.4-6.4,5.2-6.4c2.4,0,3.1,1.2,3.1,2.3C210.9,68.5,208.7,69.6,205.2,69.7"/>
	<path class="st0" d="M219.5,73.4H217l1.1-5.7c0.2-1.1,0-1.5-0.5-1.5c-1.1,0-2.7,2.7-3.1,4.8l-0.4,2.4h-2.5l2.6-13.5h2.5l-0.7,3.8
		c-0.1,0.8-0.5,1.8-1,3.2l0,0c0.8-1.6,2.1-2.9,3.8-2.9c1.8,0,2.3,1.3,2,3L219.5,73.4z"/>
	<path class="st0" d="M228.4,66.4c-1.5-0.4-3,1.7-3.6,5l-0.4,2h-2.5l0.9-4.8c0.2-1.2,0.6-3.2,0.8-4.4h2.4c-0.1,0.7-0.4,1.5-0.8,2.6
		l0,0c1-1.9,1.9-3.1,3.6-2.8L228.4,66.4z"/>
	<path class="st0" d="M247,73.4h-2.8l0.3-5.6c0.1-1.1,0.1-2.1,0.2-3l0,0c-0.3,0.9-0.7,1.8-1.2,2.8l-2.9,5.8h-2.5l-0.7-5.4
		c-0.1-1-0.2-2.3-0.2-3.2l0,0c-0.3,1.1-0.6,2.1-0.9,3.2l-1.7,5.4H232l4.3-12.5h2.9L240,67c0.1,0.9,0.2,1.7,0.2,2.7l0,0
		c0.4-1,0.7-1.7,1.2-2.7l3.1-6.1h2.9L247,73.4z"/>
	<path class="st0" d="M256.8,62.8c-0.7,0-1.3-0.6-1.3-1.3c0-0.8,0.7-1.4,1.4-1.4s1.3,0.6,1.3,1.3C258.2,62.2,257.5,62.8,256.8,62.8
		 M252.9,62.8c-0.7,0-1.3-0.6-1.3-1.3c0-0.8,0.6-1.4,1.4-1.4s1.3,0.6,1.3,1.3C254.3,62.2,253.7,62.8,252.9,62.8 M253.9,66.2
		c-1.6,0-2.6,2-2.6,3.7c0,0.9,0.4,1.5,1.4,1.5c1.6,0,2.6-1.8,2.6-3.7C255.4,66.7,254.9,66.2,253.9,66.2 M252.4,73.6
		c-2.6,0-3.7-1.2-3.7-3.3c0-3.9,2.6-6.3,5.6-6.3c2.7,0,3.7,1.4,3.7,3.4C258,71.1,255.3,73.6,252.4,73.6"/>
	<path class="st0" d="M264.3,66c-2,0-2.9,2.4-2.9,4.2c0,0.8,0.2,1.2,0.6,1.2c1.2,0,2.8-2.9,3.1-4.7l0.1-0.6
		C265,66,264.7,66,264.3,66 M266.3,73.9c-0.5,2.6-2.1,4.1-5.8,4.1c-1.1,0-2-0.2-2.7-0.4l0.6-2.3c0.8,0.4,1.7,0.6,2.6,0.6
		c1.7,0,2.7-0.6,3-2.2c0.2-1,0.4-1.6,0.9-2.9l0,0c-0.7,1.3-2,2.9-3.7,2.9c-1.4,0-2.2-0.9-2.2-2.9c0-3.5,1.9-6.7,5.9-6.7
		c1.1,0,2.3,0.1,3.4,0.3L266.3,73.9z"/>
</g>
<polygon class="st0" points="271.2,73.4 268.7,73.4 271.3,59.9 273.8,59.9 "/>
<g>
	<path class="st0" d="M277,62.9c-0.9,0-1.5-0.7-1.5-1.4c0-0.9,0.8-1.6,1.7-1.6c0.8,0,1.5,0.7,1.5,1.4
		C278.7,62.3,277.9,62.9,277,62.9 M276.1,73.4h-2.5l1.7-8.8l0.1-0.4h2.5L276.1,73.4z"/>
	<path class="st0" d="M285.4,66.5c-0.5-0.2-0.9-0.3-1.4-0.3c-1.8,0-2.7,2-2.7,3.6c0,0.9,0.4,1.6,1.6,1.6c0.6,0,1.2-0.2,1.8-0.4
		l0.1,2.1c-0.7,0.3-1.7,0.5-2.6,0.5c-2.5,0-3.5-1.3-3.5-3.2c0-3.5,2.1-6.4,5.4-6.4c0.7,0,1.5,0.1,2.1,0.4L285.4,66.5z"/>
	<path class="st0" d="M294.1,73.4h-2.5l1.1-5.7c0.2-1.1,0-1.5-0.5-1.5c-1.1,0-2.7,2.7-3.1,4.8l-0.4,2.4h-2.5l2.6-13.5h2.5l-0.7,3.8
		c-0.1,0.8-0.5,1.8-1,3.2l0,0c0.8-1.6,2.1-2.9,3.8-2.9c1.8,0,2.3,1.3,2,3L294.1,73.4z"/>
</g>
<polygon class="st0" points="302.3,68.4 304.7,73.4 301.6,73.4 299.8,68.8 299,73.4 296.5,73.4 299,59.9 301.5,59.9 300,67.9 
	303.9,63.6 305.9,64.9 "/>
<g>
	<path class="st0" d="M310.7,65.9c-1.1,0-1.9,1.1-2.1,2.2c1.9-0.1,3-0.5,3-1.4C311.5,66.1,311.2,65.9,310.7,65.9 M308.2,69.7
		c0,0.2,0,0.5,0,0.6c0,1,0.4,1.3,1.6,1.3c0.9,0,1.8-0.2,2.7-0.6v1.9c-1,0.4-2.3,0.6-3.5,0.6c-2.4,0-3.3-1.1-3.3-3.2
		c0-3.9,2.4-6.4,5.2-6.4c2.4,0,3.1,1.2,3.1,2.3C314,68.5,311.8,69.6,308.2,69.7"/>
	<path class="st0" d="M318,62.9c-0.9,0-1.5-0.7-1.5-1.4c0-0.9,0.8-1.6,1.7-1.6s1.5,0.7,1.5,1.4C319.6,62.3,318.8,62.9,318,62.9
		 M317,73.4h-2.5l1.7-8.8l0.1-0.4h2.5L317,73.4z"/>
	<path class="st0" d="M325.8,66.1h-2.1l-0.8,4c-0.2,1,0,1.3,0.7,1.3c0.4,0,0.8-0.1,1.1-0.1l-0.3,2c-0.6,0.2-1.4,0.2-1.9,0.2
		c-2,0-2.6-0.9-2.1-3.2l0.8-4.2h-1.5l0.4-2h1.5l0.5-2.8l2.6-0.5l-0.6,3.3h2.1L325.8,66.1z"/>
	<path class="st0" d="M331.4,65.9c-1.1,0-1.9,1.1-2.1,2.2c1.9-0.1,3-0.5,3-1.4C332.3,66.1,331.9,65.9,331.4,65.9 M329,69.7
		c0,0.2,0,0.5,0,0.6c0,1,0.4,1.3,1.6,1.3c0.9,0,1.8-0.2,2.7-0.6v1.9c-1,0.4-2.3,0.6-3.5,0.6c-2.4,0-3.3-1.1-3.3-3.2
		c0-3.9,2.4-6.4,5.2-6.4c2.4,0,3.1,1.2,3.1,2.3C334.7,68.5,332.5,69.6,329,69.7"/>
	<path class="st0" d="M343.2,73.4h-2.5l1.1-5.7c0.2-1.1,0-1.5-0.5-1.5c-1.1,0-2.7,2.7-3.1,4.8l-0.4,2.4h-2.5l0.9-4.8
		c0.3-1.3,0.6-3.2,0.8-4.4h2.4c-0.1,0.5-0.3,1.4-0.8,2.6l0,0c0.8-1.6,2.1-2.9,3.8-2.9c1.8,0,2.3,1.3,2,3L343.2,73.4z"/>
</g>
</svg>
