<?xml version="1.0" encoding="utf-8"?>
<!-- Generator: Adobe Illustrator 21.1.0, SVG Export Plug-In . SVG Version: 6.00 Build 0)  -->
<svg version="1.1" id="Ebene_1" xmlns="http://www.w3.org/2000/svg" xmlns:xlink="http://www.w3.org/1999/xlink" x="0px" y="0px"
	 viewBox="0 0 580 200" style="enable-background:new 0 0 580 200;" xml:space="preserve">
<style type="text/css">
	.st0{fill:#FFFFFF;}
</style>
<title>Zeichenfläche 1</title>
<g>
	<path class="st0" d="M107.9,156.9c-3.8-1.3-4.6-4.3-4.5-7.9c0.1-16.3,0-32.6,0-48.8c0-5.2,1.1-6.8,5.8-8.6
		c8.8-3.4,14.5-9.5,16.7-18.7c1-4.2,4.2-6.3,8.1-5.2c3,0.8,4.3,2.9,3.6,6.4c-1.8,9.6-6.6,17.5-14.4,23.6c-1.6,1.2-3.1,2.6-4.9,3.4
		c-2.5,1-2.8,2.6-2.8,5c0.1,14.4,0,28.7,0.1,43.1c0,3.7-0.7,6.6-4.5,7.9C110.1,156.9,109,156.9,107.9,156.9z"/>
	<path class="st0" d="M90.4,156.9c-3.8-1.3-4.6-4.2-4.5-7.9c0.1-14.7,0-29.5,0.1-44.2c0-1.7-0.5-2.5-2-3.4
		C73.5,95.6,66.6,87,64,75.3c-0.1-0.5-0.1-1.1-0.2-1.6c-0.2-4.4,0.5-5.7,4.2-6.3c3.5-0.5,5.8,1.1,7.1,4.4c1.2,3.3,2.3,6.7,4.1,9.6
		c3,4.9,7.6,8.1,13,10.1c4.6,1.7,5.5,3,5.5,7.8c0.1,16.6,0,33.3,0.2,49.9c0,3.5-0.6,6.3-4.2,7.6C92.6,156.9,91.5,156.9,90.4,156.9z"
		/>
	<path class="st0" d="M100.9,46.4c9.5-0.4,20.7,7.8,20.6,20.8C121.4,80.4,110,88,100.3,87.7c-10.8-0.3-20.1-9.8-20-20.8
		C80.4,54.4,91.1,46,100.9,46.4z"/>
	<g>
		<path class="st0" d="M144.3,101.5c0-0.5,0.2-0.7,0.7-0.7h6c6.2,0,10.4,3.8,10.4,10.4c0,6.6-4.2,10.4-10.4,10.4h-6
			c-0.5,0-0.7-0.3-0.7-0.7V101.5z M150.8,119.7c5.1,0,8.5-3,8.5-8.6c0-5.5-3.4-8.5-8.5-8.5h-4.5v17.1H150.8z"/>
		<path class="st0" d="M171.6,106.4c4,0,6.2,2.9,6.2,7.1c0,0.4-0.3,0.7-0.8,0.7h-10.7c0.1,3.8,2.7,5.9,5.8,5.9
			c1.9,0,3.2-0.8,3.9-1.4c0.4-0.3,0.7-0.2,1,0.2l0.2,0.4c0.2,0.4,0.1,0.7-0.2,1c-0.8,0.6-2.6,1.7-5,1.7c-4.4,0-7.8-3.2-7.8-7.8
			C164.3,109.3,167.6,106.4,171.6,106.4z M175.8,112.7c-0.1-3.1-2-4.7-4.2-4.7c-2.5,0-4.6,1.7-5.1,4.7H175.8z"/>
		<path class="st0" d="M181.2,107.4c0-0.5,0.2-0.7,0.7-0.7h0.6c0.5,0,0.7,0.3,0.7,0.7v8.2c0,2.3,0.4,4.4,3.2,4.4
			c3.4,0,5.5-3,5.5-6.2v-6.4c0-0.5,0.3-0.7,0.7-0.7h0.6c0.5,0,0.7,0.3,0.7,0.7v13.4c0,0.5-0.2,0.7-0.7,0.7h-0.5
			c-0.5,0-0.7-0.3-0.7-0.7v-1.7c0-0.6,0.1-1.1,0.1-1.1H192c-0.6,1.4-2.6,3.9-5.8,3.9c-3.5,0-5-1.9-5-5.8V107.4z"/>
		<path class="st0" d="M199.1,108.5h-1.2c-0.5,0-0.7-0.2-0.7-0.7v-0.2c0-0.5,0.2-0.7,0.7-0.7h1.3v-3.5c0-0.5,0.3-0.7,0.7-0.7h0.5
			c0.5,0,0.7,0.3,0.7,0.7v3.5h3c0.5,0,0.7,0.3,0.7,0.7v0.2c0,0.5-0.3,0.7-0.7,0.7h-3v7.4c0,3.4,2.1,3.8,3.2,3.9
			c0.6,0.1,0.8,0.2,0.8,0.7v0.4c0,0.5-0.2,0.7-0.8,0.7c-3.2,0-5.2-2-5.2-5.5V108.5z"/>
		<path class="st0" d="M207,119.2l0.2-0.3c0.3-0.4,0.6-0.4,1-0.1c0.7,0.5,2,1.4,3.9,1.4c1.7,0,3-0.8,3-2.4c0-3.3-7.9-2.3-7.9-7.2
			c0-2.7,2.3-4.2,5.1-4.2c2.1,0,3.5,0.8,4.1,1.2c0.4,0.2,0.4,0.6,0.2,1l-0.2,0.3c-0.2,0.4-0.6,0.4-1,0.2c-0.6-0.4-1.6-0.9-3.2-0.9
			c-1.6,0-2.9,0.7-2.9,2.3c0,3.4,7.9,2.3,7.9,7.3c0,2.5-2.1,4.2-5,4.2c-2.6,0-4.3-1.1-5-1.7C206.8,119.9,206.8,119.6,207,119.2z"/>
		<path class="st0" d="M227.5,106.4c2.5,0,4.2,1.1,4.9,1.7c0.4,0.3,0.4,0.6,0.1,1l-0.2,0.3c-0.3,0.4-0.6,0.4-1,0.1
			c-0.7-0.5-1.9-1.4-3.8-1.4c-3.2,0-5.8,2.5-5.8,6c0,3.5,2.5,6,5.8,6c2.1,0,3.5-1,4.2-1.6c0.4-0.3,0.7-0.2,1,0.2l0.2,0.3
			c0.2,0.4,0.1,0.7-0.2,1c-0.8,0.6-2.5,1.9-5.3,1.9c-4.4,0-7.8-3.2-7.8-7.8C219.7,109.6,223.1,106.4,227.5,106.4z"/>
		<path class="st0" d="M236.4,101.5c0-0.5,0.2-0.7,0.7-0.7h0.6c0.5,0,0.7,0.3,0.7,0.7v7.4c0,0.7-0.1,1.2-0.1,1.2h0.1
			c0.6-1.4,2.6-3.8,5.9-3.8c3.7,0,5,2.1,5,5.8v8.7c0,0.5-0.2,0.7-0.7,0.7H248c-0.5,0-0.7-0.3-0.7-0.7v-8.2c0-2.3-0.4-4.4-3.2-4.4
			c-3.1,0-5.6,2.6-5.6,6.1v6.4c0,0.5-0.3,0.7-0.7,0.7h-0.6c-0.5,0-0.7-0.3-0.7-0.7V101.5z"/>
		<path class="st0" d="M260,106.4c4,0,6.2,2.9,6.2,7.1c0,0.4-0.3,0.7-0.8,0.7h-10.7c0.1,3.8,2.7,5.9,5.8,5.9c1.9,0,3.2-0.8,3.9-1.4
			c0.4-0.3,0.7-0.2,1,0.2l0.2,0.4c0.2,0.4,0.1,0.7-0.2,1c-0.8,0.6-2.6,1.7-5,1.7c-4.4,0-7.8-3.2-7.8-7.8
			C252.7,109.3,256,106.4,260,106.4z M264.2,112.7c-0.1-3.1-2-4.7-4.2-4.7c-2.5,0-4.6,1.7-5.1,4.7H264.2z"/>
		<path class="st0" d="M286.9,100.4c3.5,0,5.9,1.4,6.8,2c0.4,0.3,0.4,0.7,0.1,1l-0.3,0.4c-0.3,0.4-0.6,0.4-1,0.2
			c-0.9-0.6-2.8-1.6-5.6-1.6c-5,0-8.4,3.9-8.4,8.8c0,5.1,3.5,8.9,8.2,8.9c4.2,0,6.6-3,6.6-3v-3.5h-2.8c-0.5,0-0.7-0.3-0.7-0.7v-0.4
			c0-0.5,0.2-0.7,0.7-0.7h4c0.5,0,0.7,0.3,0.7,0.7v8.5c0,0.5-0.2,0.7-0.7,0.7h-0.4c-0.5,0-0.7-0.3-0.7-0.7v-1.1c0-0.4,0-0.8,0-0.8
			h-0.1c0,0-2.4,2.8-6.8,2.8c-5.7,0-10.2-4.6-10.2-10.7C276.4,105.1,280.9,100.4,286.9,100.4z"/>
		<path class="st0" d="M305.6,106.4c4,0,6.2,2.9,6.2,7.1c0,0.4-0.3,0.7-0.8,0.7h-10.7c0.1,3.8,2.7,5.9,5.8,5.9
			c1.9,0,3.2-0.8,3.9-1.4c0.4-0.3,0.7-0.2,1,0.2l0.2,0.4c0.2,0.4,0.1,0.7-0.2,1c-0.8,0.6-2.6,1.7-5,1.7c-4.4,0-7.8-3.2-7.8-7.8
			C298.3,109.3,301.6,106.4,305.6,106.4z M309.8,112.7c-0.1-3.1-2-4.7-4.2-4.7c-2.5,0-4.6,1.7-5.1,4.7H309.8z"/>
		<path class="st0" d="M314.4,119.2l0.2-0.3c0.3-0.4,0.6-0.4,1-0.1c0.7,0.5,2,1.4,3.9,1.4c1.7,0,3-0.8,3-2.4c0-3.3-7.9-2.3-7.9-7.2
			c0-2.7,2.3-4.2,5.1-4.2c2.1,0,3.5,0.8,4.1,1.2c0.4,0.2,0.4,0.6,0.2,1l-0.2,0.3c-0.2,0.4-0.6,0.4-1,0.2c-0.6-0.4-1.6-0.9-3.2-0.9
			c-1.6,0-2.9,0.7-2.9,2.3c0,3.4,7.9,2.3,7.9,7.3c0,2.5-2.1,4.2-5,4.2c-2.6,0-4.3-1.1-5-1.7C314.2,119.9,314.1,119.6,314.4,119.2z"
			/>
		<path class="st0" d="M334.4,106.4c4,0,6.2,2.9,6.2,7.1c0,0.4-0.3,0.7-0.8,0.7h-10.7c0.1,3.8,2.7,5.9,5.8,5.9
			c1.9,0,3.2-0.8,3.9-1.4c0.4-0.3,0.7-0.2,1,0.2l0.2,0.4c0.2,0.4,0.1,0.7-0.2,1c-0.8,0.6-2.6,1.7-5,1.7c-4.4,0-7.8-3.2-7.8-7.8
			C327.1,109.3,330.4,106.4,334.4,106.4z M338.6,112.7c-0.1-3.1-2-4.7-4.2-4.7c-2.5,0-4.6,1.7-5.1,4.7H338.6z"/>
		<path class="st0" d="M344.2,101.5c0-0.5,0.2-0.7,0.7-0.7h0.6c0.5,0,0.7,0.3,0.7,0.7v16.2c0,1.9,0.9,2.1,1.5,2.2
			c0.4,0,0.6,0.2,0.6,0.7v0.4c0,0.4-0.2,0.7-0.8,0.7c-1.2,0-3.4-0.4-3.4-3.6V101.5z"/>
		<path class="st0" d="M351.4,101.5c0-0.5,0.2-0.7,0.7-0.7h0.6c0.5,0,0.7,0.3,0.7,0.7v16.2c0,1.9,0.9,2.1,1.5,2.2
			c0.4,0,0.6,0.2,0.6,0.7v0.4c0,0.4-0.2,0.7-0.8,0.7c-1.2,0-3.4-0.4-3.4-3.6V101.5z"/>
		<path class="st0" d="M357.6,119.2l0.2-0.3c0.3-0.4,0.6-0.4,1-0.1c0.7,0.5,2,1.4,3.9,1.4c1.7,0,3-0.8,3-2.4c0-3.3-7.9-2.3-7.9-7.2
			c0-2.7,2.3-4.2,5.1-4.2c2.1,0,3.5,0.8,4.1,1.2c0.4,0.2,0.4,0.6,0.2,1l-0.2,0.3c-0.2,0.4-0.6,0.4-1,0.2c-0.6-0.4-1.6-0.9-3.2-0.9
			c-1.6,0-2.9,0.7-2.9,2.3c0,3.4,7.9,2.3,7.9,7.3c0,2.5-2.1,4.2-5,4.2c-2.6,0-4.3-1.1-5-1.7C357.4,119.9,357.4,119.6,357.6,119.2z"
			/>
		<path class="st0" d="M378.1,106.4c2.5,0,4.2,1.1,4.9,1.7c0.4,0.3,0.4,0.6,0.1,1l-0.2,0.3c-0.3,0.4-0.6,0.4-1,0.1
			c-0.7-0.5-2-1.4-3.8-1.4c-3.3,0-5.8,2.5-5.8,6c0,3.5,2.5,6,5.8,6c2.1,0,3.5-1,4.2-1.6c0.4-0.3,0.7-0.2,1,0.2l0.2,0.3
			c0.2,0.4,0.1,0.7-0.2,1c-0.8,0.6-2.5,1.9-5.3,1.9c-4.4,0-7.8-3.2-7.8-7.8C370.3,109.6,373.7,106.4,378.1,106.4z"/>
		<path class="st0" d="M387,101.5c0-0.5,0.2-0.7,0.7-0.7h0.6c0.5,0,0.7,0.3,0.7,0.7v7.4c0,0.7-0.1,1.2-0.1,1.2h0.1
			c0.6-1.4,2.6-3.8,5.9-3.8c3.7,0,5,2.1,5,5.8v8.7c0,0.5-0.2,0.7-0.7,0.7h-0.6c-0.5,0-0.7-0.3-0.7-0.7v-8.2c0-2.3-0.4-4.4-3.2-4.4
			c-3.1,0-5.6,2.6-5.6,6.1v6.4c0,0.5-0.3,0.7-0.7,0.7h-0.6c-0.5,0-0.7-0.3-0.7-0.7V101.5z"/>
		<path class="st0" d="M412.1,112.5h0.9V112c0-2.9-1.6-3.8-3.7-3.8c-1.7,0-2.9,0.6-3.6,1c-0.4,0.2-0.7,0.1-1-0.2l-0.2-0.3
			c-0.2-0.4-0.2-0.8,0.2-1c0.8-0.5,2.4-1.3,4.7-1.3c3.5,0,5.5,2,5.5,5.7v8.8c0,0.5-0.2,0.7-0.7,0.7h-0.5c-0.5,0-0.7-0.2-0.7-0.7
			v-1.2c0-0.7,0.1-1.1,0.1-1.1h-0.1c0,0-1.3,3.4-5,3.4c-2.5,0-5-1.5-5-4.3C403,112.7,409.2,112.5,412.1,112.5z M408.4,120.2
			c2.9,0,4.5-3,4.5-5.6V114h-0.8c-2.3,0-7,0.1-7,3.4C405.1,118.8,406.2,120.2,408.4,120.2z"/>
		<path class="st0" d="M419.7,108.5h-1.2c-0.5,0-0.7-0.2-0.7-0.7v-0.2c0-0.5,0.2-0.7,0.7-0.7h1.2v-0.7c0-4.7,3.5-5.5,5-5.5h0.3
			c0.5,0,0.7,0.3,0.7,0.7v0.4c0,0.5-0.3,0.7-0.8,0.7c-1.3,0.1-3.2,0.4-3.2,3.7v0.7h3.1c0.5,0,0.7,0.3,0.7,0.7v0.2
			c0,0.5-0.2,0.7-0.7,0.7h-3.1v12.3c0,0.5-0.3,0.7-0.7,0.7h-0.6c-0.5,0-0.7-0.3-0.7-0.7V108.5z"/>
		<path class="st0" d="M428.8,108.5h-1.2c-0.5,0-0.7-0.2-0.7-0.7v-0.2c0-0.5,0.2-0.7,0.7-0.7h1.3v-3.5c0-0.5,0.3-0.7,0.7-0.7h0.5
			c0.5,0,0.7,0.3,0.7,0.7v3.5h3c0.5,0,0.7,0.3,0.7,0.7v0.2c0,0.5-0.3,0.7-0.7,0.7h-3v7.4c0,3.4,2.1,3.8,3.2,3.9
			c0.6,0.1,0.8,0.2,0.8,0.7v0.4c0,0.5-0.2,0.7-0.8,0.7c-3.2,0-5.2-2-5.2-5.5V108.5z"/>
		<path class="st0" d="M445.6,108.5h-1.2c-0.5,0-0.7-0.2-0.7-0.7v-0.2c0-0.5,0.2-0.7,0.7-0.7h1.2v-0.7c0-4.7,3.5-5.5,5-5.5h0.3
			c0.5,0,0.7,0.3,0.7,0.7v0.4c0,0.5-0.3,0.7-0.8,0.7c-1.3,0.1-3.2,0.4-3.2,3.7v0.7h3.1c0.5,0,0.7,0.3,0.7,0.7v0.2
			c0,0.5-0.2,0.7-0.7,0.7h-3.1v12.3c0,0.5-0.3,0.7-0.7,0.7h-0.6c-0.5,0-0.7-0.3-0.7-0.7V108.5z"/>
		<path class="st0" d="M453.9,107.4c0-0.5,0.2-0.7,0.7-0.7h0.6c0.5,0,0.7,0.3,0.7,0.7v8.2c0,2.3,0.4,4.4,3.2,4.4
			c3.4,0,5.5-3,5.5-6.2v-6.4c0-0.5,0.3-0.7,0.7-0.7h0.6c0.5,0,0.7,0.3,0.7,0.7v13.4c0,0.5-0.2,0.7-0.7,0.7h-0.5
			c-0.5,0-0.7-0.3-0.7-0.7v-1.7c0-0.6,0.1-1.1,0.1-1.1h-0.1c-0.6,1.4-2.6,3.9-5.9,3.9c-3.5,0-5-1.9-5-5.8V107.4z M457.1,102.6v-1.1
			c0-0.5,0.2-0.7,0.7-0.7h0.4c0.5,0,0.7,0.3,0.7,0.7v1.1c0,0.5-0.2,0.7-0.7,0.7h-0.4C457.3,103.3,457.1,103.1,457.1,102.6z
			 M461.5,102.6v-1.1c0-0.5,0.2-0.7,0.7-0.7h0.4c0.5,0,0.7,0.3,0.7,0.7v1.1c0,0.5-0.3,0.7-0.7,0.7h-0.4
			C461.8,103.3,461.5,103.1,461.5,102.6z"/>
		<path class="st0" d="M471.2,107.4c0-0.5,0.3-0.7,0.7-0.7h0.5c0.4,0,0.7,0.3,0.7,0.7v2c0,0.7-0.1,1.2-0.1,1.2h0.1
			c0.7-2.2,2.4-4,4.8-4c0.5,0,0.8,0.2,0.8,0.7v0.5c0,0.5-0.3,0.7-0.8,0.7c-3.1,0-4.6,3.6-4.6,6.7v5.6c0,0.5-0.2,0.7-0.7,0.7h-0.6
			c-0.5,0-0.7-0.3-0.7-0.7V107.4z"/>
		<path class="st0" d="M143.8,137.3c0-0.8,0.4-1.2,1.2-1.2h1.4c0.8,0,1.2,0.4,1.2,1.2v7.3h2.7l4.4-7.7c0.3-0.6,0.8-0.9,1.4-0.9h1.4
			c1,0,1.3,0.7,0.9,1.5l-5.1,8.5v0.1l5.5,9.5c0.5,0.9,0.1,1.5-0.9,1.5h-1.6c-0.7,0-1.1-0.3-1.4-0.9l-4.6-8.3h-2.7v7.9
			c0,0.8-0.4,1.2-1.2,1.2H145c-0.8,0-1.2-0.4-1.2-1.2V137.3z"/>
		<path class="st0" d="M161.8,138.2v-0.9c0-0.8,0.4-1.2,1.2-1.2h1.3c0.8,0,1.2,0.4,1.2,1.2v0.9c0,0.8-0.4,1.2-1.2,1.2H163
			C162.2,139.4,161.8,139,161.8,138.2z M161.8,143.2c0-0.8,0.4-1.2,1.2-1.2h1.3c0.8,0,1.2,0.4,1.2,1.2v12.6c0,0.8-0.4,1.2-1.2,1.2
			H163c-0.8,0-1.2-0.4-1.2-1.2V143.2z"/>
		<path class="st0" d="M169.3,143.2c0-0.8,0.4-1.2,1.2-1.2h1.2c0.8,0,1.2,0.4,1.2,1.2v0.9c0,0.3-0.1,0.7-0.1,0.7h0.1
			c0.7-1.3,2.3-3.2,5.3-3.2c3.3,0,5.3,1.7,5.3,5.7v8.5c0,0.8-0.4,1.2-1.2,1.2h-1.3c-0.8,0-1.2-0.4-1.2-1.2v-7.7
			c0-1.8-0.5-3.1-2.4-3.1c-2.7,0-4.3,2.2-4.3,4.9v5.8c0,0.8-0.4,1.2-1.2,1.2h-1.3c-0.8,0-1.2-0.4-1.2-1.2V143.2z"/>
		<path class="st0" d="M192.9,141.6c3.3,0,4.4,2.2,4.4,2.2h0.1c0,0-0.1-0.4-0.1-0.9v-5.6c0-0.8,0.4-1.2,1.2-1.2h1.3
			c0.8,0,1.2,0.4,1.2,1.2v18.5c0,0.8-0.4,1.2-1.2,1.2h-1.1c-0.8,0-1.2-0.4-1.2-1.1v-0.6c0-0.3,0.1-0.5,0.1-0.5h-0.1
			c0,0-1.3,2.6-4.7,2.6c-4.1,0-6.7-3.2-6.7-7.9C186.1,144.7,188.9,141.6,192.9,141.6z M193.6,154.2c1.9,0,3.8-1.4,3.8-4.8
			c0-2.3-1.2-4.6-3.8-4.6c-2,0-3.8,1.7-3.8,4.7C189.9,152.4,191.4,154.2,193.6,154.2z"/>
		<path class="st0" d="M211.5,141.6c4.3,0,6.7,3,6.7,7.2c0,0.7-0.6,1.3-1.3,1.3h-9.2c0.2,2.7,2.2,4.1,4.5,4.1c1.4,0,2.5-0.5,3.2-1
			c0.7-0.4,1.3-0.3,1.7,0.4l0.4,0.6c0.4,0.7,0.2,1.3-0.4,1.7c-1,0.6-2.7,1.5-5.1,1.5c-5,0-8.1-3.6-8.1-7.9
			C203.9,144.9,207,141.6,211.5,141.6z M214.5,147.8c-0.1-2.1-1.3-3.3-3-3.3c-1.9,0-3.3,1.3-3.6,3.3H214.5z"/>
		<path class="st0" d="M220.9,143.2c0-0.8,0.4-1.2,1.2-1.2h1.2c0.8,0,1.2,0.4,1.2,1.2v1.4c0,0.6-0.1,1-0.1,1h0.1
			c0.6-1.8,2.2-3.8,4.4-3.8c0.8,0,1.1,0.4,1.1,1.2v1.2c0,0.8-0.5,1.2-1.3,1.2c-2.7,0-4.1,2.7-4.1,5.5v4.8c0,0.8-0.4,1.2-1.2,1.2
			h-1.3c-0.8,0-1.2-0.4-1.2-1.2V143.2z"/>
		<path class="st0" d="M231.3,154.2l0.4-0.5c0.4-0.6,0.9-0.7,1.7-0.3c0.7,0.4,1.8,1,3.4,1c1.3,0,2.1-0.6,2.1-1.5
			c0-2.5-7.5-1.5-7.5-6.7c0-3,2.6-4.5,5.8-4.5c2,0,3.4,0.7,4.2,1.1c0.7,0.4,0.8,1,0.4,1.7l-0.3,0.5c-0.4,0.7-0.9,0.8-1.7,0.5
			c-0.7-0.3-1.6-0.7-2.9-0.7c-1.3,0-2,0.5-2,1.5c0,2.5,7.5,1.5,7.5,6.6c0,2.7-2.2,4.6-5.7,4.6c-2.4,0-4.1-0.9-5-1.5
			C230.9,155.5,230.8,154.8,231.3,154.2z"/>
		<path class="st0" d="M252.3,141.6c2.4,0,4,0.9,4.9,1.5c0.6,0.4,0.7,1,0.2,1.7l-0.4,0.6c-0.4,0.7-0.9,0.7-1.7,0.3
			c-0.6-0.4-1.6-0.9-2.9-0.9c-2.8,0-4.6,2.1-4.6,4.7c0,2.5,1.8,4.7,4.7,4.7c1.5,0,2.7-0.6,3.4-1.2c0.7-0.4,1.3-0.3,1.7,0.4l0.3,0.6
			c0.4,0.7,0.3,1.2-0.3,1.7c-0.9,0.7-2.7,1.7-5.3,1.7c-5,0-8.2-3.5-8.2-7.9C244.2,145.2,247.4,141.6,252.3,141.6z"/>
		<path class="st0" d="M260.8,137.3c0-0.8,0.4-1.2,1.2-1.2h1.3c0.8,0,1.2,0.4,1.2,1.2v6.1c0,0.7-0.1,1.3-0.1,1.3h0.1
			c0.7-1.4,2.6-3,5.2-3c3.3,0,5.3,1.7,5.3,5.7v8.5c0,0.8-0.4,1.2-1.2,1.2h-1.3c-0.8,0-1.2-0.4-1.2-1.2v-7.7c0-1.8-0.5-3.1-2.4-3.1
			c-2.6,0-4.3,2.1-4.3,5v5.8c0,0.8-0.4,1.2-1.2,1.2H262c-0.8,0-1.2-0.4-1.2-1.2V137.3z"/>
		<path class="st0" d="M278.3,143.2c0-0.8,0.4-1.2,1.2-1.2h1.3c0.8,0,1.2,0.4,1.2,1.2v7.7c0,1.8,0.5,3.1,2.3,3.1
			c2.7,0,4.2-2.4,4.2-5.1v-5.7c0-0.8,0.4-1.2,1.2-1.2h1.3c0.8,0,1.2,0.4,1.2,1.2v12.6c0,0.8-0.4,1.2-1.2,1.2h-1.2
			c-0.8,0-1.2-0.4-1.2-1.2v-0.9c0-0.4,0.1-0.7,0.1-0.7h-0.1c-0.7,1.5-2.7,3.2-5.2,3.2c-3.2,0-5.2-1.6-5.2-5.7V143.2z"/>
		<path class="st0" d="M296.8,145.2h-0.8c-0.8,0-1.2-0.4-1.2-1.2v-0.5c0-0.8,0.4-1.2,1.2-1.2h0.9v-3.1c0-0.8,0.4-1.2,1.2-1.2h1.2
			c0.8,0,1.2,0.4,1.2,1.2v3.1h2.2c0.8,0,1.2,0.4,1.2,1.2v0.5c0,0.8-0.4,1.2-1.2,1.2h-2.2v5.8c0,2.2,1.4,2.7,2.4,2.8
			c0.9,0.1,1.2,0.4,1.2,1.2v0.9c0,0.9-0.5,1.2-1.5,1.2c-2.7,0-5.9-1.4-5.9-5.5V145.2z"/>
		<path class="st0" d="M305.7,155.7c0-0.6,0.1-0.9,0.5-1.4l6.2-7.8c0.7-0.9,1.3-1.4,1.3-1.4v-0.1c0,0-0.4,0.1-1.4,0.1h-5.1
			c-0.8,0-1.2-0.4-1.2-1.2v-0.7c0-0.8,0.4-1.2,1.2-1.2h10.3c0.8,0,1.2,0.4,1.2,1v0.3c0,0.6-0.1,0.9-0.5,1.4l-6.2,7.8
			c-0.7,0.9-1.3,1.4-1.3,1.4v0.1c0,0,0.4-0.1,1.4-0.1h5.6c0.8,0,1.2,0.4,1.2,1.2v0.7c0,0.8-0.4,1.2-1.2,1.2H307
			c-0.8,0-1.2-0.4-1.2-1V155.7z"/>
		<path class="st0" d="M329.2,138.2v-0.9c0-0.8,0.4-1.2,1.2-1.2h1.3c0.8,0,1.2,0.4,1.2,1.2v0.9c0,0.8-0.4,1.2-1.2,1.2h-1.3
			C329.6,139.4,329.2,139,329.2,138.2z M329.2,143.2c0-0.8,0.4-1.2,1.2-1.2h1.3c0.8,0,1.2,0.4,1.2,1.2v12.6c0,0.8-0.4,1.2-1.2,1.2
			h-1.3c-0.8,0-1.2-0.4-1.2-1.2V143.2z"/>
		<path class="st0" d="M336.7,143.2c0-0.8,0.4-1.2,1.2-1.2h1.2c0.8,0,1.2,0.4,1.2,1.2v0.9c0,0.3-0.1,0.7-0.1,0.7h0.1
			c0.7-1.3,2.3-3.2,5.3-3.2c3.3,0,5.3,1.7,5.3,5.7v8.5c0,0.8-0.4,1.2-1.2,1.2h-1.3c-0.8,0-1.2-0.4-1.2-1.2v-7.7
			c0-1.8-0.5-3.1-2.4-3.1c-2.7,0-4.3,2.2-4.3,4.9v5.8c0,0.8-0.4,1.2-1.2,1.2h-1.3c-0.8,0-1.2-0.4-1.2-1.2V143.2z"/>
		<path class="st0" d="M367.7,141.6c3.3,0,4.4,2.2,4.4,2.2h0.1c0,0-0.1-0.4-0.1-0.9v-5.6c0-0.8,0.4-1.2,1.2-1.2h1.3
			c0.8,0,1.2,0.4,1.2,1.2v18.5c0,0.8-0.4,1.2-1.2,1.2h-1.1c-0.8,0-1.2-0.4-1.2-1.1v-0.6c0-0.3,0.1-0.5,0.1-0.5h-0.1
			c0,0-1.3,2.6-4.7,2.6c-4.1,0-6.7-3.2-6.7-7.9C360.9,144.7,363.7,141.6,367.7,141.6z M368.4,154.2c1.9,0,3.8-1.4,3.8-4.8
			c0-2.3-1.2-4.6-3.8-4.6c-2,0-3.8,1.7-3.8,4.7C364.7,152.4,366.2,154.2,368.4,154.2z"/>
		<path class="st0" d="M386.3,141.6c4.3,0,6.7,3,6.7,7.2c0,0.7-0.6,1.3-1.3,1.3h-9.2c0.2,2.7,2.2,4.1,4.5,4.1c1.4,0,2.5-0.5,3.2-1
			c0.7-0.4,1.3-0.3,1.7,0.4l0.4,0.6c0.4,0.7,0.2,1.3-0.4,1.7c-1,0.6-2.7,1.5-5.1,1.5c-5,0-8.1-3.6-8.1-7.9
			C378.7,144.9,381.8,141.6,386.3,141.6z M389.3,147.8c-0.1-2.1-1.3-3.3-3-3.3c-1.9,0-3.3,1.3-3.6,3.3H389.3z"/>
		<path class="st0" d="M395.7,143.2c0-0.8,0.4-1.2,1.2-1.2h1.2c0.8,0,1.2,0.4,1.2,1.2v1.4c0,0.6-0.1,1-0.1,1h0.1
			c0.6-1.8,2.2-3.8,4.4-3.8c0.8,0,1.1,0.4,1.1,1.2v1.2c0,0.8-0.5,1.2-1.3,1.2c-2.7,0-4.1,2.7-4.1,5.5v4.8c0,0.8-0.4,1.2-1.2,1.2
			h-1.3c-0.8,0-1.2-0.4-1.2-1.2V143.2z"/>
		<path class="st0" d="M415.6,137.2c0.1-0.8,0.5-1.2,1.3-1.2h1.9c0.7,0,1.2,0.3,1.4,1l3.8,9.4c0.5,1.2,1.1,3.1,1.1,3.1h0.1
			c0,0,0.6-1.8,1-3.1l3.8-9.4c0.2-0.7,0.7-1,1.4-1h1.8c0.8,0,1.2,0.4,1.3,1.2l1.5,18.5c0.1,0.8-0.4,1.3-1.2,1.3h-1.3
			c-0.8,0-1.2-0.4-1.3-1.2l-0.8-10.5c-0.1-1.4,0-3.3,0-3.3h-0.1c0,0-0.7,2-1.1,3.3l-3,7.1c-0.2,0.7-0.7,1-1.4,1h-1.2
			c-0.7,0-1.2-0.3-1.4-1l-3-7.1c-0.5-1.2-1.2-3.3-1.2-3.3h-0.1c0,0,0.1,1.9,0,3.3l-0.8,10.5c-0.1,0.8-0.5,1.2-1.3,1.2h-1.3
			c-0.8,0-1.2-0.5-1.2-1.3L415.6,137.2z"/>
		<path class="st0" d="M445.9,141.6c4.3,0,6.7,3,6.7,7.2c0,0.7-0.6,1.3-1.3,1.3h-9.2c0.2,2.7,2.2,4.1,4.5,4.1c1.4,0,2.5-0.5,3.2-1
			c0.7-0.4,1.3-0.3,1.7,0.4l0.4,0.6c0.4,0.7,0.2,1.3-0.4,1.7c-1,0.6-2.7,1.5-5.1,1.5c-5,0-8.1-3.6-8.1-7.9
			C438.3,144.9,441.4,141.6,445.9,141.6z M448.9,147.8c-0.1-2.1-1.3-3.3-3-3.3c-1.9,0-3.3,1.3-3.6,3.3H448.9z"/>
		<path class="st0" d="M461.3,141.6c3.3,0,4.4,2.2,4.4,2.2h0.1c0,0-0.1-0.4-0.1-0.9v-5.6c0-0.8,0.4-1.2,1.2-1.2h1.3
			c0.8,0,1.2,0.4,1.2,1.2v18.5c0,0.8-0.4,1.2-1.2,1.2h-1.1c-0.8,0-1.2-0.4-1.2-1.1v-0.6c0-0.3,0.1-0.5,0.1-0.5h-0.1
			c0,0-1.3,2.6-4.7,2.6c-4.1,0-6.7-3.2-6.7-7.9C454.5,144.7,457.3,141.6,461.3,141.6z M462,154.2c2,0,3.8-1.4,3.8-4.8
			c0-2.3-1.2-4.6-3.8-4.6c-2,0-3.8,1.7-3.8,4.7C458.2,152.4,459.8,154.2,462,154.2z"/>
		<path class="st0" d="M473.2,138.2v-0.9c0-0.8,0.4-1.2,1.2-1.2h1.3c0.8,0,1.2,0.4,1.2,1.2v0.9c0,0.8-0.4,1.2-1.2,1.2h-1.3
			C473.6,139.4,473.2,139,473.2,138.2z M473.2,143.2c0-0.8,0.4-1.2,1.2-1.2h1.3c0.8,0,1.2,0.4,1.2,1.2v12.6c0,0.8-0.4,1.2-1.2,1.2
			h-1.3c-0.8,0-1.2-0.4-1.2-1.2V143.2z"/>
		<path class="st0" d="M479.6,155.7c0-0.6,0.1-0.9,0.5-1.4l6.2-7.8c0.7-0.9,1.3-1.4,1.3-1.4v-0.1c0,0-0.4,0.1-1.4,0.1h-5.1
			c-0.8,0-1.2-0.4-1.2-1.2v-0.7c0-0.8,0.4-1.2,1.2-1.2h10.3c0.8,0,1.2,0.4,1.2,1v0.3c0,0.6-0.1,0.9-0.5,1.4l-6.2,7.8
			c-0.7,0.9-1.3,1.4-1.3,1.4v0.1c0,0,0.4-0.1,1.4-0.1h5.6c0.8,0,1.2,0.4,1.2,1.2v0.7c0,0.8-0.4,1.2-1.2,1.2h-10.8
			c-0.8,0-1.2-0.4-1.2-1V155.7z"/>
		<path class="st0" d="M495.7,138.2v-0.9c0-0.8,0.4-1.2,1.2-1.2h1.3c0.8,0,1.2,0.4,1.2,1.2v0.9c0,0.8-0.4,1.2-1.2,1.2h-1.3
			C496.1,139.4,495.7,139,495.7,138.2z M495.7,143.2c0-0.8,0.4-1.2,1.2-1.2h1.3c0.8,0,1.2,0.4,1.2,1.2v12.6c0,0.8-0.4,1.2-1.2,1.2
			h-1.3c-0.8,0-1.2-0.4-1.2-1.2V143.2z"/>
		<path class="st0" d="M503.1,143.2c0-0.8,0.4-1.2,1.2-1.2h1.2c0.8,0,1.2,0.4,1.2,1.2v0.9c0,0.3-0.1,0.7-0.1,0.7h0.1
			c0.7-1.3,2.3-3.2,5.3-3.2c3.3,0,5.3,1.7,5.3,5.7v8.5c0,0.8-0.4,1.2-1.2,1.2h-1.3c-0.8,0-1.2-0.4-1.2-1.2v-7.7
			c0-1.8-0.5-3.1-2.4-3.1c-2.7,0-4.3,2.2-4.3,4.9v5.8c0,0.8-0.4,1.2-1.2,1.2h-1.3c-0.8,0-1.2-0.4-1.2-1.2V143.2z"/>
	</g>
</g>
</svg>
