<?xml version="1.0" encoding="utf-8"?>
<!-- Generator: Adobe Illustrator 21.1.0, SVG Export Plug-In . SVG Version: 6.00 Build 0)  -->
<svg version="1.1" id="Ebene_1" xmlns="http://www.w3.org/2000/svg" xmlns:xlink="http://www.w3.org/1999/xlink" x="0px" y="0px"
	 viewBox="0 0 580 200" style="enable-background:new 0 0 580 200;" xml:space="preserve">
<style type="text/css">
	.st0{opacity:0.6;}
	.st1{fill:#FFFFFF;}
	.st2{opacity:0.8;fill:#FFFFFF;}
	.st3{opacity:0.4;fill:#FFFFFF;}
	.st4{opacity:0.6;fill:#FFFFFF;}
</style>
<title>Zeichenfläche 1</title>
<g class="st0">
	<path class="st1" d="M250.8,95.9V76.2h6.8c1.5,0,2.7,0.1,3.5,0.3c1.1,0.3,2.1,0.7,2.9,1.4c1,0.9,1.8,2,2.3,3.4
		c0.5,1.4,0.8,2.9,0.8,4.7c0,1.5-0.2,2.8-0.5,4c-0.4,1.2-0.8,2.1-1.3,2.9c-0.5,0.8-1.1,1.4-1.8,1.8c-0.7,0.4-1.4,0.8-2.4,1
		c-0.9,0.2-2,0.3-3.2,0.3H250.8z M253.4,93.6h4.2c1.3,0,2.3-0.1,3.1-0.4c0.7-0.2,1.3-0.6,1.8-1c0.6-0.6,1.1-1.5,1.4-2.5
		c0.3-1,0.5-2.3,0.5-3.8c0-2.1-0.3-3.7-1-4.8c-0.7-1.1-1.5-1.9-2.5-2.2c-0.7-0.3-1.8-0.4-3.4-0.4h-4.2V93.6z"/>
	<path class="st1" d="M280.2,91.3l2.5,0.3c-0.4,1.5-1.1,2.6-2.2,3.4c-1.1,0.8-2.4,1.2-4.1,1.2c-2.1,0-3.8-0.6-5-1.9
		c-1.2-1.3-1.8-3.1-1.8-5.4c0-2.4,0.6-4.3,1.9-5.6s2.8-2,4.8-2c1.9,0,3.5,0.7,4.7,2c1.2,1.3,1.8,3.1,1.8,5.5c0,0.1,0,0.4,0,0.6
		h-10.7c0.1,1.6,0.5,2.8,1.3,3.6c0.8,0.8,1.8,1.3,3,1.3c0.9,0,1.6-0.2,2.3-0.7C279.3,93.1,279.8,92.3,280.2,91.3z M272.2,87.4h8
		c-0.1-1.2-0.4-2.1-0.9-2.7c-0.8-0.9-1.8-1.4-3-1.4c-1.1,0-2.1,0.4-2.8,1.1C272.7,85.1,272.3,86.1,272.2,87.4z"/>
	<path class="st1" d="M295,95.9v-2.1c-1.1,1.6-2.6,2.4-4.5,2.4c-0.8,0-1.6-0.2-2.4-0.5c-0.7-0.3-1.3-0.7-1.6-1.2
		c-0.4-0.5-0.6-1.1-0.7-1.8c-0.1-0.5-0.1-1.2-0.1-2.3v-8.9h2.4v7.9c0,1.3,0,2.1,0.1,2.6c0.2,0.6,0.5,1.1,1,1.5
		c0.5,0.4,1.1,0.5,1.8,0.5c0.7,0,1.4-0.2,2-0.6c0.6-0.4,1.1-0.9,1.4-1.5c0.3-0.6,0.4-1.6,0.4-2.8v-7.7h2.4v14.3H295z"/>
	<path class="st1" d="M306.1,93.8l0.4,2.1c-0.7,0.1-1.3,0.2-1.8,0.2c-0.9,0-1.6-0.1-2-0.4c-0.5-0.3-0.8-0.6-1-1.1
		c-0.2-0.5-0.3-1.4-0.3-2.9v-8.2h-1.8v-1.9h1.8v-3.5l2.4-1.5v5h2.4v1.9h-2.4v8.4c0,0.7,0,1.1,0.1,1.3c0.1,0.2,0.2,0.4,0.4,0.5
		c0.2,0.1,0.5,0.2,0.8,0.2C305.3,93.9,305.6,93.8,306.1,93.8z"/>
	<path class="st1" d="M307.5,91.7l2.4-0.4c0.1,1,0.5,1.7,1.1,2.2c0.6,0.5,1.5,0.8,2.6,0.8c1.1,0,1.9-0.2,2.5-0.7
		c0.5-0.5,0.8-1,0.8-1.6c0-0.5-0.2-1-0.7-1.3c-0.3-0.2-1.2-0.5-2.5-0.8c-1.8-0.4-3-0.8-3.7-1.2c-0.7-0.3-1.2-0.8-1.6-1.4
		c-0.4-0.6-0.5-1.2-0.5-1.9c0-0.6,0.1-1.2,0.4-1.8c0.3-0.5,0.7-1,1.2-1.4c0.4-0.3,0.9-0.5,1.5-0.7c0.7-0.2,1.3-0.3,2.1-0.3
		c1.1,0,2.1,0.2,3,0.5c0.8,0.3,1.5,0.8,1.9,1.3c0.4,0.6,0.7,1.3,0.8,2.2l-2.4,0.3c-0.1-0.7-0.4-1.3-0.9-1.7
		c-0.5-0.4-1.2-0.6-2.2-0.6c-1.1,0-1.9,0.2-2.4,0.6c-0.5,0.4-0.7,0.8-0.7,1.3c0,0.3,0.1,0.6,0.3,0.8c0.2,0.3,0.5,0.5,0.9,0.6
		c0.2,0.1,1,0.3,2.1,0.6c1.7,0.5,2.9,0.8,3.6,1.1c0.7,0.3,1.2,0.7,1.6,1.3c0.4,0.6,0.6,1.2,0.6,2.1c0,0.8-0.2,1.6-0.7,2.3
		c-0.5,0.7-1.2,1.3-2,1.7c-0.9,0.4-1.9,0.6-3,0.6c-1.9,0-3.3-0.4-4.3-1.2C308.4,94.3,307.8,93.2,307.5,91.7z"/>
	<path class="st1" d="M331.5,90.7l2.4,0.3c-0.3,1.6-0.9,2.9-2,3.9c-1.1,0.9-2.4,1.4-4,1.4c-2,0-3.5-0.6-4.7-1.9
		c-1.2-1.3-1.8-3.1-1.8-5.5c0-1.5,0.3-2.9,0.8-4.1s1.3-2,2.3-2.6c1-0.6,2.2-0.9,3.4-0.9c1.6,0,2.8,0.4,3.8,1.2
		c1,0.8,1.6,1.9,1.9,3.3l-2.4,0.4c-0.2-1-0.6-1.7-1.2-2.2c-0.6-0.5-1.3-0.7-2.1-0.7c-1.2,0-2.2,0.4-3,1.3c-0.8,0.9-1.1,2.3-1.1,4.2
		c0,1.9,0.4,3.3,1.1,4.2c0.7,0.9,1.7,1.3,2.9,1.3c1,0,1.7-0.3,2.4-0.9C330.9,92.8,331.3,91.9,331.5,90.7z"/>
	<path class="st1" d="M336.1,95.9V76.2h2.4v7.1c1.1-1.3,2.6-2,4.3-2c1.1,0,2,0.2,2.8,0.6c0.8,0.4,1.3,1,1.7,1.7
		c0.3,0.7,0.5,1.8,0.5,3.2v9.1h-2.4v-9.1c0-1.2-0.3-2.1-0.8-2.6c-0.5-0.6-1.3-0.8-2.2-0.8c-0.7,0-1.4,0.2-2,0.6
		c-0.6,0.4-1.1,0.9-1.4,1.5c-0.3,0.6-0.4,1.5-0.4,2.6v7.8H336.1z"/>
	<path class="st1" d="M361.1,91.3l2.5,0.3c-0.4,1.5-1.1,2.6-2.2,3.4c-1.1,0.8-2.4,1.2-4.1,1.2c-2.1,0-3.8-0.6-5-1.9
		c-1.2-1.3-1.8-3.1-1.8-5.4c0-2.4,0.6-4.3,1.9-5.6s2.8-2,4.8-2c1.9,0,3.5,0.7,4.7,2c1.2,1.3,1.8,3.1,1.8,5.5c0,0.1,0,0.4,0,0.6H353
		c0.1,1.6,0.5,2.8,1.3,3.6c0.8,0.8,1.8,1.3,3,1.3c0.9,0,1.6-0.2,2.3-0.7C360.3,93.1,360.8,92.3,361.1,91.3z M353.2,87.4h8
		c-0.1-1.2-0.4-2.1-0.9-2.7c-0.8-0.9-1.8-1.4-3-1.4c-1.1,0-2.1,0.4-2.8,1.1C353.7,85.1,353.2,86.1,353.2,87.4z"/>
	<path class="st1" d="M366.6,95.9V81.6h2.2v2.2c0.6-1,1.1-1.7,1.5-2c0.5-0.3,1-0.5,1.6-0.5c0.8,0,1.6,0.3,2.5,0.8l-0.8,2.3
		c-0.6-0.4-1.2-0.5-1.8-0.5c-0.5,0-1,0.2-1.4,0.5c-0.4,0.3-0.7,0.8-0.9,1.3c-0.3,0.9-0.4,1.8-0.4,2.8v7.5H366.6z"/>
</g>
<g>
	<path class="st1" d="M256.4,128.1l-7.7-19.8h2.8l5.1,14.4c0.4,1.1,0.8,2.2,1,3.2c0.3-1.1,0.7-2.2,1.1-3.2l5.3-14.4h2.7l-7.7,19.8
		H256.4z"/>
	<path class="st1" d="M266,121c0-2.7,0.7-4.6,2.2-5.9c1.2-1.1,2.7-1.6,4.5-1.6c2,0,3.6,0.6,4.8,1.9c1.2,1.3,1.9,3.1,1.9,5.3
		c0,1.8-0.3,3.3-0.8,4.3c-0.6,1.1-1.4,1.9-2.4,2.5c-1.1,0.6-2.2,0.9-3.5,0.9c-2,0-3.6-0.6-4.9-1.9C266.6,125.2,266,123.4,266,121z
		 M268.5,121c0,1.8,0.4,3.2,1.2,4.1c0.8,0.9,1.8,1.4,3,1.4c1.2,0,2.2-0.5,3-1.4c0.8-0.9,1.2-2.3,1.2-4.2c0-1.8-0.4-3.1-1.2-4
		c-0.8-0.9-1.8-1.4-3-1.4c-1.2,0-2.2,0.5-3,1.4C268.9,117.8,268.5,119.1,268.5,121z"/>
	<path class="st1" d="M282.7,128.1v-19.8h2.4v19.8H282.7z"/>
	<path class="st1" d="M288.9,128.1v-19.8h2.4v11.3l5.7-5.8h3.1l-5.5,5.3l6,9h-3l-4.7-7.3l-1.7,1.6v5.7H288.9z"/>
	<path class="st1" d="M301.3,123.9l2.4-0.4c0.1,1,0.5,1.7,1.1,2.2c0.6,0.5,1.5,0.8,2.6,0.8c1.1,0,1.9-0.2,2.5-0.7
		c0.5-0.5,0.8-1,0.8-1.6c0-0.5-0.2-1-0.7-1.3c-0.3-0.2-1.2-0.5-2.5-0.8c-1.8-0.4-3-0.8-3.7-1.2c-0.7-0.3-1.2-0.8-1.6-1.4
		c-0.4-0.6-0.5-1.2-0.5-1.9c0-0.6,0.1-1.2,0.4-1.8c0.3-0.5,0.7-1,1.2-1.4c0.4-0.3,0.9-0.5,1.5-0.7c0.7-0.2,1.3-0.3,2.1-0.3
		c1.1,0,2.1,0.2,3,0.5s1.5,0.8,1.9,1.3c0.4,0.6,0.7,1.3,0.8,2.2l-2.4,0.3c-0.1-0.7-0.4-1.3-0.9-1.7c-0.5-0.4-1.2-0.6-2.2-0.6
		c-1.1,0-1.9,0.2-2.4,0.6c-0.5,0.4-0.7,0.8-0.7,1.3c0,0.3,0.1,0.6,0.3,0.8c0.2,0.3,0.5,0.5,0.9,0.6c0.2,0.1,1,0.3,2.1,0.6
		c1.7,0.5,2.9,0.8,3.6,1.1c0.7,0.3,1.2,0.7,1.6,1.3c0.4,0.6,0.6,1.2,0.6,2.1c0,0.8-0.2,1.6-0.7,2.3c-0.5,0.7-1.2,1.3-2,1.7
		c-0.9,0.4-1.9,0.6-3,0.6c-1.9,0-3.3-0.4-4.3-1.2C302.2,126.5,301.6,125.4,301.3,123.9z"/>
	<path class="st1" d="M316,128.1v-19.8h2.4v7.1c1.1-1.3,2.6-2,4.3-2c1.1,0,2,0.2,2.8,0.6c0.8,0.4,1.3,1,1.7,1.7
		c0.3,0.7,0.5,1.8,0.5,3.2v9.1h-2.4v-9.1c0-1.2-0.3-2.1-0.8-2.6c-0.5-0.6-1.3-0.8-2.2-0.8c-0.7,0-1.4,0.2-2,0.6
		c-0.6,0.4-1.1,0.9-1.4,1.5c-0.3,0.6-0.4,1.5-0.4,2.6v7.8H316z"/>
	<path class="st1" d="M330.3,121c0-2.7,0.7-4.6,2.2-5.9c1.2-1.1,2.7-1.6,4.5-1.6c2,0,3.6,0.6,4.8,1.9c1.2,1.3,1.9,3.1,1.9,5.3
		c0,1.8-0.3,3.3-0.8,4.3c-0.6,1.1-1.4,1.9-2.4,2.5c-1.1,0.6-2.2,0.9-3.5,0.9c-2,0-3.6-0.6-4.9-1.9
		C330.9,125.2,330.3,123.4,330.3,121z M332.8,121c0,1.8,0.4,3.2,1.2,4.1c0.8,0.9,1.8,1.4,3,1.4c1.2,0,2.2-0.5,3-1.4
		c0.8-0.9,1.2-2.3,1.2-4.2c0-1.8-0.4-3.1-1.2-4c-0.8-0.9-1.8-1.4-3-1.4c-1.2,0-2.2,0.5-3,1.4C333.2,117.8,332.8,119.1,332.8,121z"/>
	<path class="st1" d="M355.9,122.9l2.4,0.3c-0.3,1.6-0.9,2.9-2,3.9c-1.1,0.9-2.4,1.4-4,1.4c-2,0-3.5-0.6-4.7-1.9
		c-1.2-1.3-1.8-3.1-1.8-5.5c0-1.5,0.3-2.9,0.8-4.1c0.5-1.2,1.3-2,2.3-2.6c1-0.6,2.2-0.9,3.4-0.9c1.6,0,2.8,0.4,3.8,1.2
		c1,0.8,1.6,1.9,1.9,3.3l-2.4,0.4c-0.2-1-0.6-1.7-1.2-2.2c-0.6-0.5-1.3-0.7-2.1-0.7c-1.2,0-2.2,0.4-3,1.3c-0.8,0.9-1.1,2.3-1.1,4.2
		c0,1.9,0.4,3.3,1.1,4.2c0.7,0.9,1.7,1.3,2.9,1.3c1,0,1.7-0.3,2.4-0.9C355.4,125,355.8,124.1,355.9,122.9z"/>
	<path class="st1" d="M360.6,128.1v-19.8h2.4v7.1c1.1-1.3,2.6-2,4.3-2c1.1,0,2,0.2,2.8,0.6c0.8,0.4,1.3,1,1.7,1.7
		c0.3,0.7,0.5,1.8,0.5,3.2v9.1h-2.4v-9.1c0-1.2-0.3-2.1-0.8-2.6c-0.5-0.6-1.3-0.8-2.2-0.8c-0.7,0-1.4,0.2-2,0.6
		c-0.6,0.4-1.1,0.9-1.4,1.5c-0.3,0.6-0.4,1.5-0.4,2.6v7.8H360.6z"/>
	<path class="st1" d="M374.8,123.9l2.4-0.4c0.1,1,0.5,1.7,1.1,2.2c0.6,0.5,1.5,0.8,2.6,0.8c1.1,0,1.9-0.2,2.5-0.7
		c0.5-0.5,0.8-1,0.8-1.6c0-0.5-0.2-1-0.7-1.3c-0.3-0.2-1.2-0.5-2.5-0.8c-1.8-0.4-3-0.8-3.7-1.2c-0.7-0.3-1.2-0.8-1.6-1.4
		c-0.4-0.6-0.5-1.2-0.5-1.9c0-0.6,0.1-1.2,0.4-1.8c0.3-0.5,0.7-1,1.2-1.4c0.4-0.3,0.9-0.5,1.5-0.7c0.7-0.2,1.3-0.3,2.1-0.3
		c1.1,0,2.1,0.2,3,0.5c0.8,0.3,1.5,0.8,1.9,1.3c0.4,0.6,0.7,1.3,0.8,2.2l-2.4,0.3c-0.1-0.7-0.4-1.3-0.9-1.7
		c-0.5-0.4-1.2-0.6-2.2-0.6c-1.1,0-1.9,0.2-2.4,0.6c-0.5,0.4-0.7,0.8-0.7,1.3c0,0.3,0.1,0.6,0.3,0.8c0.2,0.3,0.5,0.5,0.9,0.6
		c0.2,0.1,1,0.3,2.1,0.6c1.7,0.5,2.9,0.8,3.6,1.1c0.7,0.3,1.2,0.7,1.6,1.3c0.4,0.6,0.6,1.2,0.6,2.1c0,0.8-0.2,1.6-0.7,2.3
		c-0.5,0.7-1.2,1.3-2,1.7c-0.9,0.4-1.9,0.6-3,0.6c-1.9,0-3.3-0.4-4.3-1.2C375.7,126.5,375,125.4,374.8,123.9z"/>
	<path class="st1" d="M398.7,122.9l2.4,0.3c-0.3,1.6-0.9,2.9-2,3.9c-1.1,0.9-2.4,1.4-4,1.4c-2,0-3.5-0.6-4.7-1.9
		c-1.2-1.3-1.8-3.1-1.8-5.5c0-1.5,0.3-2.9,0.8-4.1c0.5-1.2,1.3-2,2.3-2.6c1-0.6,2.2-0.9,3.4-0.9c1.6,0,2.8,0.4,3.8,1.2
		c1,0.8,1.6,1.9,1.9,3.3l-2.4,0.4c-0.2-1-0.6-1.7-1.2-2.2c-0.6-0.5-1.3-0.7-2.1-0.7c-1.2,0-2.2,0.4-3,1.3c-0.8,0.9-1.1,2.3-1.1,4.2
		c0,1.9,0.4,3.3,1.1,4.2c0.7,0.9,1.7,1.3,2.9,1.3c1,0,1.7-0.3,2.4-0.9C398.2,125,398.6,124.1,398.7,122.9z"/>
	<path class="st1" d="M403.3,128.1v-19.8h2.4v7.1c1.1-1.3,2.6-2,4.3-2c1.1,0,2,0.2,2.8,0.6c0.8,0.4,1.3,1,1.7,1.7
		c0.3,0.7,0.5,1.8,0.5,3.2v9.1h-2.4v-9.1c0-1.2-0.3-2.1-0.8-2.6c-0.5-0.6-1.3-0.8-2.2-0.8c-0.7,0-1.4,0.2-2,0.6
		c-0.6,0.4-1.1,0.9-1.4,1.5c-0.3,0.6-0.4,1.5-0.4,2.6v7.8H403.3z"/>
	<path class="st1" d="M427.9,128.1V126c-1.1,1.6-2.6,2.4-4.5,2.4c-0.8,0-1.6-0.2-2.4-0.5c-0.7-0.3-1.3-0.7-1.6-1.2
		c-0.4-0.5-0.6-1.1-0.7-1.8c-0.1-0.5-0.1-1.2-0.1-2.3v-8.9h2.4v7.9c0,1.3,0,2.1,0.1,2.6c0.2,0.6,0.5,1.1,1,1.5
		c0.5,0.4,1.1,0.5,1.8,0.5c0.7,0,1.4-0.2,2-0.6c0.6-0.4,1.1-0.9,1.4-1.5c0.3-0.6,0.4-1.6,0.4-2.8v-7.7h2.4v14.3H427.9z"/>
	<path class="st1" d="M433.6,128.1v-19.8h2.4v19.8H433.6z"/>
	<path class="st1" d="M438.6,122.2v-2.4h7.5v2.4H438.6z"/>
	<path class="st1" d="M453.4,128.1l-7.7-19.8h2.8l5.1,14.4c0.4,1.1,0.8,2.2,1,3.2c0.3-1.1,0.7-2.2,1.1-3.2l5.3-14.4h2.7l-7.7,19.8
		H453.4z"/>
	<path class="st1" d="M473.6,123.5l2.5,0.3c-0.4,1.5-1.1,2.6-2.2,3.4c-1.1,0.8-2.4,1.2-4.1,1.2c-2.1,0-3.8-0.6-5-1.9
		c-1.2-1.3-1.8-3.1-1.8-5.4c0-2.4,0.6-4.3,1.9-5.6c1.2-1.3,2.8-2,4.8-2c1.9,0,3.5,0.7,4.7,2c1.2,1.3,1.8,3.1,1.8,5.5
		c0,0.1,0,0.4,0,0.6h-10.7c0.1,1.6,0.5,2.8,1.3,3.6c0.8,0.8,1.8,1.3,3,1.3c0.9,0,1.6-0.2,2.3-0.7
		C472.8,125.3,473.3,124.5,473.6,123.5z M465.7,119.6h8c-0.1-1.2-0.4-2.1-0.9-2.7c-0.8-0.9-1.8-1.4-3-1.4c-1.1,0-2.1,0.4-2.8,1.1
		C466.2,117.4,465.7,118.3,465.7,119.6z"/>
	<path class="st1" d="M479.1,128.1v-14.3h2.2v2.2c0.6-1,1.1-1.7,1.5-2c0.5-0.3,1-0.5,1.6-0.5c0.8,0,1.6,0.3,2.5,0.8l-0.8,2.3
		c-0.6-0.4-1.2-0.5-1.8-0.5c-0.5,0-1,0.2-1.4,0.5c-0.4,0.3-0.7,0.8-0.9,1.3c-0.3,0.9-0.4,1.8-0.4,2.8v7.5H479.1z"/>
	<path class="st1" d="M490.8,128.1h-2.3v-19.8h2.4v7c1-1.3,2.3-1.9,3.9-1.9c0.9,0,1.7,0.2,2.5,0.5c0.8,0.4,1.4,0.9,1.9,1.5
		c0.5,0.6,0.9,1.4,1.2,2.3c0.3,0.9,0.4,1.9,0.4,2.9c0,2.5-0.6,4.3-1.8,5.7c-1.2,1.3-2.7,2-4.4,2c-1.7,0-3-0.7-4-2.1V128.1z
		 M490.8,120.9c0,1.7,0.2,3,0.7,3.7c0.8,1.2,1.8,1.9,3.1,1.9c1.1,0,2-0.5,2.7-1.4c0.8-0.9,1.2-2.3,1.2-4.1c0-1.9-0.4-3.2-1.1-4.1
		c-0.7-0.9-1.6-1.3-2.7-1.3c-1.1,0-2,0.5-2.7,1.4C491.2,117.8,490.8,119.1,490.8,120.9z"/>
	<path class="st1" d="M513.1,126.4c-0.9,0.8-1.8,1.3-2.6,1.6c-0.8,0.3-1.7,0.5-2.7,0.5c-1.6,0-2.8-0.4-3.6-1.2
		c-0.8-0.8-1.3-1.7-1.3-2.9c0-0.7,0.2-1.3,0.5-1.9c0.3-0.6,0.7-1,1.3-1.4c0.5-0.4,1.1-0.6,1.7-0.8c0.5-0.1,1.2-0.2,2.2-0.4
		c2-0.2,3.4-0.5,4.3-0.8c0-0.3,0-0.5,0-0.6c0-1-0.2-1.7-0.7-2.1c-0.6-0.5-1.5-0.8-2.8-0.8c-1.1,0-2,0.2-2.5,0.6
		c-0.5,0.4-0.9,1.1-1.2,2.1l-2.4-0.3c0.2-1,0.6-1.8,1.1-2.5c0.5-0.6,1.2-1.1,2.1-1.4c0.9-0.3,2-0.5,3.2-0.5c1.2,0,2.2,0.1,3,0.4
		c0.8,0.3,1.3,0.6,1.7,1.1c0.4,0.4,0.6,1,0.8,1.7c0.1,0.4,0.1,1.2,0.1,2.2v3.2c0,2.3,0.1,3.7,0.2,4.3c0.1,0.6,0.3,1.2,0.6,1.7h-2.5
		C513.3,127.6,513.1,127,513.1,126.4z M512.9,120.9c-0.9,0.4-2.2,0.7-4,0.9c-1,0.1-1.7,0.3-2.1,0.5c-0.4,0.2-0.7,0.4-1,0.8
		c-0.2,0.3-0.3,0.7-0.3,1.2c0,0.6,0.2,1.2,0.7,1.6c0.5,0.4,1.2,0.6,2.1,0.6c0.9,0,1.8-0.2,2.5-0.6c0.7-0.4,1.3-1,1.6-1.7
		c0.3-0.5,0.4-1.4,0.4-2.4V120.9z"/>
	<path class="st1" d="M518.4,128.1v-14.3h2.2v2c1.1-1.6,2.6-2.4,4.6-2.4c0.9,0,1.7,0.2,2.4,0.5c0.7,0.3,1.3,0.7,1.6,1.2
		c0.4,0.5,0.6,1.1,0.8,1.8c0.1,0.4,0.1,1.2,0.1,2.4v8.8h-2.4v-8.7c0-1-0.1-1.7-0.3-2.2c-0.2-0.5-0.5-0.9-1-1.2
		c-0.5-0.3-1-0.4-1.7-0.4c-1,0-1.9,0.3-2.7,1c-0.8,0.7-1.1,1.9-1.1,3.7v7.8H518.4z"/>
	<path class="st1" d="M542.9,128.1v-1.8c-0.9,1.4-2.2,2.1-4,2.1c-1.1,0-2.2-0.3-3.1-0.9c-1-0.6-1.7-1.5-2.2-2.6
		c-0.5-1.1-0.8-2.4-0.8-3.9c0-1.4,0.2-2.7,0.7-3.9c0.5-1.2,1.2-2.1,2.1-2.7c1-0.6,2-0.9,3.2-0.9c0.9,0,1.6,0.2,2.3,0.5
		c0.7,0.4,1.2,0.8,1.6,1.4v-7.1h2.4v19.8H542.9z M535.2,121c0,1.8,0.4,3.2,1.2,4.1c0.8,0.9,1.7,1.4,2.7,1.4c1.1,0,2-0.4,2.7-1.3
		c0.7-0.9,1.1-2.2,1.1-4c0-2-0.4-3.4-1.1-4.3c-0.8-0.9-1.7-1.4-2.8-1.4c-1.1,0-2,0.4-2.7,1.3C535.6,117.7,535.2,119.1,535.2,121z"/>
</g>
<path class="st2" d="M204.2,121.1c-1,0-1.9,0.2-2.7,0.6c-0.7-6.4-6.1-11.3-12.7-11.3c-7,0-12.7,5.7-12.7,12.7
	c0,7,5.7,12.7,12.7,12.7c4.1,0,7.7-1.9,10-4.9c1.1,1.7,3.1,2.9,5.3,2.9c3.5,0,6.4-2.9,6.4-6.4C210.5,123.9,207.7,121.1,204.2,121.1z
	"/>
<circle class="st3" cx="208.6" cy="120" r="7.4"/>
<circle class="st4" cx="219" cy="114.3" r="8.8"/>
<path class="st1" d="M210.5,127.1c-0.2-3.4-3-6-6.4-6c-1,0-1.9,0.2-2.7,0.6c0.8,3.3,3.7,5.7,7.2,5.7
	C209.3,127.4,209.9,127.3,210.5,127.1z"/>
<circle class="st3" cx="219" cy="103.9" r="3.4"/>
<path class="st3" d="M216.3,66.7c-3.7,0-7.1,1.4-9.7,3.7c-0.6-0.6-1.4-0.9-2.3-0.9c-1.9,0-3.4,1.5-3.4,3.4c0,1.3,0.7,2.4,1.8,3
	c-0.7,1.7-1.1,3.5-1.1,5.5c0,8.1,6.6,14.7,14.7,14.7c8.1,0,14.7-6.6,14.7-14.7C231,73.3,224.4,66.7,216.3,66.7z"/>
<path class="st3" d="M178.4,115.7c1.9-2.3,1.5-5.7-0.8-7.6c-2.3-1.9-5.7-1.5-7.6,0.8c-1.9,2.3-1.5,5.7,0.8,7.6
	C173.1,118.4,176.5,118.1,178.4,115.7"/>
<g>
	<path class="st1" d="M210.3,112.9c-0.1,0.5-0.1,0.9-0.1,1.4c0,3.6,2.2,6.8,5.4,8.1c0.3-0.8,0.4-1.6,0.4-2.4
		C216,116.5,213.6,113.6,210.3,112.9z"/>
	<path class="st1" d="M219,105.5c-1,0-1.9,0.2-2.8,0.5c0.6,0.9,1.6,1.4,2.8,1.4s2.2-0.6,2.8-1.4C221,105.6,220,105.5,219,105.5z"/>
</g>
<path class="st4" d="M202.7,75.9c0.5,0.3,1,0.4,1.6,0.4c1.9,0,3.4-1.5,3.4-3.4c0-1-0.4-1.9-1.1-2.5
	C204.9,71.9,203.5,73.8,202.7,75.9z"/>
<path class="st1" d="M185.1,66.4c-1.8,0-3.4,0.9-4.4,2.3c-1.8-1.3-4-2.1-6.4-2.1c-6,0-10.8,4.8-10.8,10.8c0,6,4.8,10.8,10.8,10.8
	c6,0,10.8-4.8,10.8-10.8c0,0,0-0.1,0-0.1c0,0,0,0,0.1,0c3,0,5.4-2.4,5.4-5.4C190.5,68.8,188.1,66.4,185.1,66.4z"/>
<path class="st1" d="M166.1,94.2c-1.7-0.8-3.8-0.1-4.6,1.6c-0.8,1.7-0.1,3.8,1.6,4.6c1.7,0.8,3.8,0.1,4.6-1.6
	C168.5,97,167.8,95,166.1,94.2z"/>
<circle class="st1" cx="195.3" cy="76.2" r="1.7"/>
<circle class="st1" cx="218.2" cy="128" r="1.7"/>
<path class="st1" d="M73.8,84.6c0.3-1-0.5-2-1.6-2h-8.5c-0.7,0-1.3,0.4-1.6,1.2l-6.5,22.5c-0.1,0.2-0.3,0.6-0.8,0.6
	c-0.5,0-0.7-0.4-0.8-0.6l-6.3-22.4c-0.2-0.7-0.7-1.3-1.6-1.3l0,0l-9.4,0c-0.9,0-1.7,0.6-1.7,1.8c0,0.6,12.6,39.2,12.7,39.4
	c0.2,0.4,0.6,1,1.5,1l10.9,0c0.7,0,1.3-0.4,1.6-1.1L73.8,84.6z"/>
<path class="st1" d="M114.6,123.1c0-0.7,0-25.4,0-25.4c0-5.8-0.9-8.9-2.9-11.7c-2-2.8-6.4-4.9-12.3-4.9c-2.1,0-6.4,0.7-9.7,3.8V68.1
	c0-0.9-0.7-1.7-1.7-1.7c0,0-8.5,0-8.5,0c-1,0-1.7,0.9-1.7,1.7c0,0.2,0,55,0,55c0,0.8,0.6,1.7,1.6,1.7h8.5c1,0,1.7-0.8,1.7-1.7V98.7
	c0-4.4,2.7-7.4,6.5-7.4c3.4,0,6.5,2.7,6.5,7.4v24.4c0,1.1,0.8,1.7,1.6,1.7c0.2,0,7.4,0,8.5,0C114.1,124.8,114.6,123.8,114.6,123.1z"
	/>
<path class="st1" d="M154.1,91.8c0-3-3.6-10.6-16.9-10.6c-16,0-17.2,9.5-17.2,12.3c0,7.8,5.8,10.7,12.9,12.9
	c6.5,2,10.4,3.8,10.4,6.2c0,3.9-3.8,4.2-5.9,4.2c-4.2,0-6.7-2.8-7.3-5c-0.4-1.3-1.2-1.5-1.7-1.5l-7.8,0.6c-1,0.1-1.4,1.3-1.4,1.7
	c0,5.1,5.9,13.7,18.3,13.7c14.1,0,18.2-8.7,18.2-13.6c0-9.1-6.2-11.5-13.4-13.6c-5.7-1.7-10.7-3.2-10.7-5.8c0-1,0-3.7,5.5-3.7
	c3.1,0,6.2,0.9,6.8,3.3c0.3,0.9,1.1,1.2,1.6,1.2c0.9,0,6.9-0.5,6.9-0.5C153.3,93.5,154.1,93,154.1,91.8z"/>
</svg>
