<?xml version="1.0" encoding="utf-8"?>
<!-- Generator: Adobe Illustrator 19.2.1, SVG Export Plug-In . SVG Version: 6.00 Build 0)  -->
<svg version="1.1" id="Ebene_1" xmlns="http://www.w3.org/2000/svg" xmlns:xlink="http://www.w3.org/1999/xlink" x="0px" y="0px"
	 viewBox="0 0 315.4 82" style="enable-background:new 0 0 315.4 82;" xml:space="preserve">
<style type="text/css">
	.st0{fill:#FFFFFF;}
</style>
<g>
	<path class="st0" d="M20.4,29.9v-3.8c0-2.7-0.1-4.4-0.4-5.2c-0.3-0.8-0.9-1.2-1.8-1.2c-1.1,0-1.8,0.3-2,1c-0.3,0.7-0.4,2.5-0.4,5.4
		v3.8C15.8,29.9,20.4,29.9,20.4,29.9z M36.3,38.3H15.8v11.2c0,2.3,0.2,3.9,0.5,4.5c0.3,0.7,1,1,2,1c1.2,0,2-0.4,2.4-1.4
		c0.4-0.9,0.6-2.6,0.6-5.2v-6.8h15v3.8c0,3.2-0.2,5.7-0.6,7.4c-0.4,1.7-1.4,3.6-2.8,5.5c-1.5,2-3.4,3.4-5.7,4.4s-5.1,1.5-8.6,1.5
		c-3.3,0-6.3-0.5-8.8-1.4c-2.6-1-4.5-2.3-6-4c-1.4-1.7-2.4-3.5-3-5.6c-0.5-2-0.8-5-0.8-8.8v-15c0-4.5,0.6-8.1,1.8-10.7s3.2-4.6,6-6
		s6-2.1,9.6-2.1c4.4,0,8.1,0.8,11,2.5s4.9,3.9,6.1,6.7c1.2,2.8,1.7,6.7,1.7,11.7v6.8H36.3z"/>
	<path class="st0" d="M75.4,11.4l-0.6,6.8c2.3-4.9,5.6-7.5,10-7.8v18.3c-2.9,0-5,0.4-6.4,1.2c-1.4,0.8-2.2,1.9-2.5,3.3
		s-0.5,4.6-0.5,9.6v20.5H59.6V11.4H75.4z"/>
	<path class="st0" d="M108.2,29.9v-3.8c0-2.7-0.1-4.4-0.4-5.2c-0.3-0.8-0.9-1.2-1.8-1.2c-1.1,0-1.8,0.3-2,1
		c-0.3,0.7-0.4,2.5-0.4,5.4v3.8C103.6,29.9,108.2,29.9,108.2,29.9z M124.1,38.3h-20.5v11.2c0,2.3,0.2,3.9,0.5,4.5c0.3,0.7,1,1,2,1
		c1.2,0,2-0.4,2.4-1.4c0.4-0.9,0.6-2.6,0.6-5.2v-6.8h15v3.8c0,3.2-0.2,5.7-0.6,7.4c-0.4,1.7-1.4,3.6-2.8,5.5c-1.5,2-3.4,3.4-5.7,4.4
		s-5.1,1.5-8.6,1.5c-3.3,0-6.3-0.5-8.8-1.4c-2.6-1-4.5-2.3-6-4c-1.4-1.7-2.4-3.5-3-5.6c-0.5-2-0.8-5-0.8-8.8v-15
		c0-4.5,0.6-8.1,1.8-10.7s3.2-4.6,6-6s6-2.1,9.6-2.1c4.4,0,8.1,0.8,11,2.5s4.9,3.9,6.1,6.7c1.2,2.8,1.7,6.7,1.7,11.7v6.8H124.1z"/>
</g>
<rect x="129.2" class="st0" width="16.3" height="63.4"/>
<g>
	<path class="st0" d="M170.3,38.7c-2.5,1.9-4,3.4-4.4,4.7c-0.4,1.3-0.6,3.1-0.6,5.4c0,2.7,0.2,4.4,0.5,5.2c0.4,0.8,1,1.2,2.1,1.2
		c1,0,1.6-0.3,1.9-0.9s0.4-2.2,0.4-4.8V38.7H170.3z M165.3,31.5h-14.8V28c0-4,0.5-7.1,1.4-9.3c0.9-2.2,2.8-4.1,5.6-5.8
		c2.8-1.7,6.4-2.5,10.9-2.5c5.3,0,9.4,0.9,12.1,2.8s4.3,4.2,4.9,7c0.5,2.8,0.8,8.4,0.8,17v26.1h-15.4v-4.6c-1,1.9-2.2,3.2-3.7,4.2
		c-1.5,0.9-3.3,1.4-5.5,1.4c-2.8,0-5.3-0.8-7.6-2.3c-2.3-1.6-3.5-4.9-3.5-10.2v-4.3c0-3.9,0.6-6.5,1.8-7.9c1.2-1.4,4.3-3.1,9.1-4.9
		c5.2-2,8-3.4,8.3-4.1c0.4-0.7,0.5-2.1,0.5-4.3c0-2.7-0.2-4.5-0.6-5.3s-1.1-1.2-2-1.2c-1.1,0-1.7,0.3-2,1s-0.4,2.5-0.4,5.4v5.3
		H165.3z"/>
	<path class="st0" d="M208.3,4.5v8.2h4.3v8.2h-4.3v27.8c0,3.4,0.2,5.3,0.5,5.7c0.4,0.4,1.8,0.6,4.4,0.6v8.4h-6.4
		c-3.6,0-6.2-0.1-7.7-0.4s-2.9-1-4.1-2.1s-1.9-2.3-2.2-3.7c-0.3-1.4-0.4-4.7-0.4-9.8V20.9H189v-8.2h3.4V4.5
		C192.4,4.5,208.3,4.5,208.3,4.5z"/>
</g>
<path class="st0" d="M232.3,63.4H216v-52h16.3V63.4z M232.3,8.3H216V0h16.3V8.3z"/>
<g>
	<path class="st0" d="M257.9,25.8c0-2.7-0.1-4.3-0.4-5s-0.9-1-1.8-1s-1.6,0.3-1.9,1s-0.5,2.4-0.5,5v23.4c0,2.5,0.2,4.1,0.5,4.8
		c0.3,0.7,0.9,1.1,1.8,1.1s1.6-0.3,1.9-1s0.4-2.1,0.4-4.4V25.8z M273.7,29.7v12.7c0,4.7-0.2,8.1-0.7,10.3s-1.5,4.2-3,6.1
		s-3.5,3.3-5.9,4.2c-2.4,0.9-5.2,1.3-8.3,1.3c-3.5,0-6.5-0.4-8.9-1.2c-2.4-0.8-4.3-1.9-5.7-3.5c-1.3-1.6-2.3-3.4-2.9-5.6
		s-0.9-5.5-0.9-9.9V30.8c0-4.8,0.5-8.6,1.6-11.3c1-2.7,2.9-4.9,5.6-6.5s6.2-2.5,10.4-2.5c3.5,0,6.6,0.5,9.1,1.6s4.5,2.4,5.9,4.1
		s2.3,3.4,2.8,5.2C273.5,23.2,273.7,26,273.7,29.7"/>
	<path class="st0" d="M295,11.4l-0.3,4.8c1.1-1.9,2.6-3.3,4.2-4.3c1.7-1,3.6-1.4,5.7-1.4c2.7,0,4.9,0.6,6.7,1.9
		c1.7,1.3,2.8,2.9,3.3,4.8s0.7,5.2,0.7,9.7v36.4h-15.8v-36c0-3.6-0.1-5.8-0.4-6.5c-0.2-0.8-0.9-1.2-2-1.2s-1.8,0.4-2.1,1.3
		c-0.3,0.9-0.4,3.3-0.4,7.2v35.1h-15.8V11.4H295z"/>
	<path class="st0" d="M100.1,72.6h-4.8v-2.4c0-0.7-0.1-1.1-0.2-1.3c-0.1-0.2-0.3-0.3-0.7-0.3s-0.6,0.1-0.8,0.3
		c-0.1,0.2-0.2,0.7-0.2,1.4v6.5c0,0.7,0.1,1.1,0.2,1.3c0.1,0.2,0.3,0.3,0.7,0.3s0.6-0.1,0.7-0.3c0.1-0.2,0.2-0.7,0.2-1.5v-1.7h4.8
		v0.5c0,1.4-0.1,2.5-0.4,3.1c-0.3,0.6-0.9,1.1-1.8,1.6c-0.9,0.5-2.1,0.7-3.4,0.7c-1.4,0-2.6-0.2-3.5-0.6c-0.9-0.4-1.5-0.9-1.8-1.6
		c-0.3-0.7-0.4-1.7-0.4-3.1v-4.1c0-1,0-1.7,0.1-2.3c0.1-0.5,0.4-1,0.8-1.4c0.5-0.5,1.1-0.8,1.9-1.1c0.8-0.3,1.7-0.4,2.8-0.4
		c1.4,0,2.6,0.2,3.5,0.6s1.5,0.9,1.8,1.5s0.4,1.6,0.4,2.9L100.1,72.6L100.1,72.6z"/>
	<path class="st0" d="M109.4,70.1c0-0.6,0-1.1-0.1-1.2c-0.1-0.2-0.3-0.3-0.6-0.3s-0.4,0.1-0.6,0.2c-0.1,0.1-0.2,0.6-0.2,1.3v6.5
		c0,0.8,0,1.3,0.1,1.5s0.3,0.3,0.6,0.3s0.5-0.1,0.6-0.3s0.1-0.7,0.1-1.6L109.4,70.1L109.4,70.1z M114.2,74.7c0,1.4,0,2.4-0.1,3
		s-0.4,1.1-0.8,1.6c-0.5,0.5-1.1,0.8-1.9,1.1c-0.8,0.3-1.7,0.4-2.7,0.4s-1.9-0.1-2.7-0.4c-0.8-0.2-1.4-0.6-1.9-1.1s-0.8-1-0.9-1.6
		c-0.1-0.6-0.1-1.6-0.1-3v-2.4c0-1.4,0-2.4,0.1-3s0.4-1.1,0.8-1.6c0.5-0.5,1.1-0.8,1.9-1.1c0.8-0.3,1.7-0.4,2.7-0.4s1.9,0.1,2.7,0.4
		c0.8,0.2,1.4,0.6,1.9,1.1s0.8,1,0.9,1.6c0.1,0.6,0.1,1.6,0.1,3V74.7z"/>
</g>
<polygon class="st0" points="128.2,66.6 128.2,80.4 124,80.4 121.4,74.1 121.4,80.4 117.4,80.4 117.4,66.6 121.4,66.6 124.1,72.8 
	124.1,66.6 "/>
<polygon class="st0" points="141.2,66.6 141.2,69.3 138.3,69.3 138.3,80.4 133.5,80.4 133.5,69.3 130.7,69.3 130.7,66.6 "/>
<polygon class="st0" points="143.7,66.6 151.7,66.6 151.7,69.3 148.5,69.3 148.5,72 151.5,72 151.5,74.6 148.5,74.6 148.5,77.7 
	152,77.7 152,80.4 143.7,80.4 "/>
<polygon class="st0" points="165.5,66.6 165.5,80.4 161.3,80.4 158.8,74.1 158.8,80.4 154.8,80.4 154.8,66.6 158.8,66.6 161.5,72.8 
	161.5,66.6 "/>
<polygon class="st0" points="178.6,66.6 178.6,69.3 175.7,69.3 175.7,80.4 170.9,80.4 170.9,69.3 168,69.3 168,66.6 "/>
<rect x="186.5" y="66.6" class="st0" width="4.8" height="13.9"/>
<polygon class="st0" points="205.4,66.6 205.4,80.4 201.2,80.4 198.7,74.1 198.7,80.4 194.7,80.4 194.7,66.6 198.7,66.6 201.4,72.8 
	201.4,66.6 "/>
<polygon class="st0" points="225.3,66.6 225.3,80.4 220.5,80.4 220.5,74.6 219.1,74.6 219.1,80.4 214.3,80.4 214.3,66.6 219.1,66.6 
	219.1,71.5 220.5,71.5 220.5,66.6 "/>
<polygon class="st0" points="228.7,66.6 236.7,66.6 236.7,69.3 233.5,69.3 233.5,72 236.5,72 236.5,74.6 233.5,74.6 233.5,77.7 
	237,77.7 237,80.4 228.7,80.4 "/>
<g>
	<path class="st0" d="M245.5,75.5c-0.2-1.6-0.5-3.5-0.7-5.8c-0.5,2.7-0.8,4.6-0.9,5.8H245.5z M248.1,66.6l2.8,13.9H246l-0.3-2.5H244
		l-0.3,2.5h-5l2.5-13.9H248.1z"/>
</g>
<polygon class="st0" points="257.9,66.6 257.9,77.7 260.8,77.7 260.8,80.4 253,80.4 253,66.6 "/>
<polygon class="st0" points="271.4,66.6 271.4,69.3 268.5,69.3 268.5,80.4 263.7,80.4 263.7,69.3 260.8,69.3 260.8,66.6 "/>
<polygon class="st0" points="284.9,66.6 284.9,80.4 280.1,80.4 280.1,74.6 278.7,74.6 278.7,80.4 273.8,80.4 273.8,66.6 278.7,66.6 
	278.7,71.5 280.1,71.5 280.1,66.6 "/>
<g>
	<path class="st0" d="M298.2,74.4c-0.8,0.4-1.2,0.8-1.3,1c-0.1,0.3-0.2,0.7-0.2,1.2c0,0.6,0.1,1,0.2,1.2s0.3,0.3,0.6,0.3
		c0.3,0,0.5-0.1,0.6-0.2c0.1-0.1,0.1-0.5,0.1-1.1L298.2,74.4L298.2,74.4z M296.7,72.8h-4.4V72c0-0.9,0.1-1.6,0.4-2.1
		s0.8-0.9,1.7-1.3c0.8-0.4,1.9-0.6,3.3-0.6c1.6,0,2.8,0.2,3.6,0.6c0.8,0.4,1.3,0.9,1.5,1.6c0.2,0.6,0.2,1.9,0.2,3.8v5.9h-4.6v-1
		c-0.3,0.4-0.7,0.7-1.1,0.9c-0.5,0.2-1,0.3-1.6,0.3c-0.8,0-1.6-0.2-2.3-0.5c-0.7-0.3-1-1.1-1-2.3v-1c0-0.9,0.2-1.5,0.6-1.8
		s1.3-0.7,2.7-1.1c1.6-0.5,2.4-0.8,2.5-0.9c0.1-0.2,0.2-0.5,0.2-1c0-0.6-0.1-1-0.2-1.2s-0.3-0.3-0.6-0.3c-0.3,0-0.5,0.1-0.6,0.2
		c-0.1,0.2-0.1,0.6-0.1,1.2v1.4H296.7z"/>
	<path class="st0" d="M310.6,71.4c0-0.5,0-0.9-0.1-1s-0.3-0.2-0.5-0.2c-0.3,0-0.5,0.1-0.6,0.3s-0.2,0.5-0.2,1v3.9c0,0.5,0,0.9,0.1,1
		s0.3,0.2,0.5,0.2c0.3,0,0.5-0.1,0.6-0.3s0.1-0.6,0.1-1.3v-3.6H310.6z M315.4,68.3v9c0,1.2,0,2-0.1,2.4s-0.3,0.7-0.8,1.1
		c-0.5,0.4-1.1,0.7-1.9,0.9s-1.8,0.3-3.1,0.3c-1.5,0-2.7-0.2-3.6-0.6c-0.9-0.4-1.4-1.1-1.4-2.3h4.6c0,0.5,0.3,0.8,0.8,0.8
		c0.4,0,0.6-0.1,0.7-0.2c0.1-0.2,0.2-0.5,0.2-1v-0.9c-0.4,0.3-0.8,0.5-1.3,0.6c-0.4,0.1-0.9,0.2-1.4,0.2c-0.9,0-1.6-0.1-2.1-0.4
		c-0.6-0.3-0.9-0.6-1.1-1s-0.3-1-0.3-1.8v-4.2c0-1.1,0.3-1.9,0.8-2.4c0.5-0.5,1.3-0.7,2.4-0.7c0.6,0,1.1,0.1,1.6,0.3
		c0.5,0.2,0.9,0.5,1.3,0.8l0.3-0.9C311,68.3,315.4,68.3,315.4,68.3z"/>
</g>
<rect x="39.6" y="47.6" class="st0" width="16" height="15.6"/>
</svg>
