<?xml version="1.0" encoding="UTF-8"?>
<svg width="88px" height="77px" viewBox="0 0 88 77" version="1.1" xmlns="http://www.w3.org/2000/svg" xmlns:xlink="http://www.w3.org/1999/xlink">
    <!-- Generator: Sketch 52.1 (67048) - http://www.bohemiancoding.com/sketch -->
    <title>logo-new-2</title>
    <desc>Created with Sketch.</desc>
    <g id="Page-1" stroke="none" stroke-width="1" fill="none" fill-rule="evenodd">
        <g id="kitconcept-logo-blau-standalone" fill="#004876" fill-rule="nonzero">
            <path d="M86.325,35.43936 C87.425,37.33936 87.425,39.53936 86.225,41.43936 L67.525,73.73936 C66.425,75.63936 64.425,76.63936 62.325,76.63936 L24.925,76.63936 C22.825,76.63936 20.825,75.63936 19.725,73.73936 L1.025,41.43936 C-0.075,39.53936 -0.075,37.33936 1.025,35.43936 L19.725,3.03936 C20.825,1.23936 22.825,0.13936 24.925,0.13936 L62.425,0.13936 C64.525,0.13936 66.525,1.23936 67.625,3.13936 L86.325,35.43936 Z M82.2239669,35.9694609 L65.3914771,6.84446773 C64.4013306,5.13123283 62.6010644,4.13936 60.7107848,4.13936 L26.9557919,4.13936 C25.0655123,4.13936 23.2652461,5.13123283 22.2750996,6.75429747 L5.44260984,35.9694609 C4.45246339,37.6826958 4.45246339,39.6664415 5.44260984,41.3796764 L22.2750996,70.5046695 C23.2652461,72.2179044 25.0655123,73.119607 26.9557919,73.119607 L60.6207714,73.119607 C62.511051,73.119607 64.3113173,72.2179044 65.3014638,70.5046695 L82.1339535,41.3796764 C83.2141133,39.6664415 83.2141133,37.6826958 82.2239669,35.9694609 Z M31.525,19.63936 L36.025,19.63936 L36.025,34.23936 L31.525,42.73936 L31.525,19.63936 Z M25.925,57.83936 L47.525,19.63936 L52.925,19.63936 L31.325,57.83936 L25.925,57.83936 Z M55.925,57.83936 L49.325,46.03936 L52.025,41.23936 L61.325,57.83936 L55.925,57.83936 Z M39.725,57.83936 L34.325,57.83936 L55.925,19.63936 L61.325,19.63936 L39.725,57.83936 Z" id="path28"></path>
        </g>
    </g>
</svg>