<?xml version="1.0" encoding="UTF-8"?>
<svg width="78px" height="87px" viewBox="0 0 78 87" version="1.1" xmlns="http://www.w3.org/2000/svg" xmlns:xlink="http://www.w3.org/1999/xlink">
    <!-- Generator: Sketch 52.1 (67048) - http://www.bohemiancoding.com/sketch -->
    <title>logo-new-2</title>
    <desc>Created with Sketch.</desc>
    <g id="Page-1" stroke="none" stroke-width="1" fill="none" fill-rule="evenodd">
        <g id="logo" fill="#004876" fill-rule="nonzero">
            <path d="M74.1351734,19.506562 C76.0378014,20.6020103 77.1378014,22.5072661 77.0485709,24.7527144 L77.0038959,62.075335 C77.0012679,64.2707832 75.7692171,66.1368086 73.9505638,67.1868086 L41.5612137,85.8868086 C39.7425603,86.9368086 37.5105095,87.0707832 35.6078816,85.975335 L3.2632065,67.3527144 C1.36057856,66.2572661 0.260578556,64.3520103 0.263206501,62.156562 L0.257881551,24.7473389 C0.310509496,22.6384932 1.4925603,20.6858652 3.31121365,19.6358652 L35.7871663,0.88586524 C37.6058196,-0.16413476 39.8878704,-0.211506816 41.7904984,0.883941451 L74.1351734,19.506562 Z M70.848625,22.0161594 L41.7087647,5.20942032 C39.9946553,4.2207886 37.9396425,4.26193468 36.3026123,5.20707448 L7.06993106,22.0845709 C5.4329009,23.0297107 4.36976099,24.7888309 4.32380132,26.6895193 L4.3540193,60.4068379 C4.35314476,62.3856161 5.34501759,64.1035902 7.05912702,65.0922219 L36.1989874,81.898961 C37.9130968,82.8875928 39.9230244,82.7683569 41.5600546,81.8232171 L70.714782,64.9907274 C72.3518122,64.0455876 73.4600372,62.3645571 73.4609118,60.3857789 L73.4757789,26.7465501 C73.5546073,24.7227653 72.5627344,23.0047911 70.848625,22.0161594 Z" id="border"></path>
            <g id="K" transform="translate(25.000000, 27.000000)">
                <polygon id="path28-path" points="4 0 8 0 8 12.6406926 4 20"></polygon>
                <polygon id="path28-path" points="0 33 16.8 0 21 0 4.2 33"></polygon>
                <polygon id="path28-path" points="22.95 32 18 22.0481928 20.025 18 27 32 22.95 32"></polygon>
                <polygon id="path28-path" points="10.2 33 6 33 22.8 0 27 0"></polygon>
            </g>
        </g>
    </g>
</svg>