<svg xmlns="http://www.w3.org/2000/svg" xmlns:xlink="http://www.w3.org/1999/xlink" width="141" height="123" fill="currentColor"><defs><path id="a" d="M0 .425h18.331v22.214H0z"/><path id="c" d="M.441.988h16.553V18H.441z"/><path id="e" d="M.386.563h17.805V25H.386z"/><path id="g" d="M.516.988h16.553V18H.516z"/></defs><g fill="none" fill-rule="evenodd"><path fill="#1D053D" d="M80.773 28.266c12.426-6.473 9.234-17.551 4.747-22.18 9.665 5.004 11.564 22.869-4.747 22.18M70.19 40.018l-1.778-1.201-3.807 2.725-.003-.248c0-4.767 4.808-10.327 13.907-8.075-6.564 1.02-8.534 3.704-8.32 6.799m-11.526 2.969c-4.781-7.12-.456-12.643 2.52-14.407l-1.053-1.256c1.68-1.022 4.515-1.276 6.625-1.276 2.177 0 4.914.79 6.63 1.872-10.114-.475-15.24 6.481-14.722 15.067m17.686-38.73c1.952-.266 3.59.068 5.115.667-3.663 2.317-5.577 1.814-5.115-.667m24.437 17.319c0-10.37-7.457-19.996-17.954-21.325C81.48.082 80.988.017 79.512 0l-.706 2.237c-.836-.101-.932-.152-1.793-.152l-.763.012-11.54 4.576.825 4.569 8.526.015c.5.439.737 1.442.737 2.157 0 1.324-.986 1.998-2.302 2.003H66.29c.152.848.292 1.411.249 1.6-.145.671-3.818 3.058-3.818 3.058s2.977-.906 4.569-1.152c2.897-.449 4.813.239 6.49-.036 1.433-.232 3.31-1.179 3.31-1.179l-1.136 2.176a6.54 6.54 0 0 0 4.919-8.548c1.274 1.196 1.537 2.962 1.537 4.847 0 3.612-2.774 5.953-6.386 5.953-3.982 0-6.615-.621-11.126-.623-3.373.002-5.902.904-8.292 2.467 0 0-1.392-1.817-4.233-5.468-2.982-3.827-5.021-7.243-7.376-7.509-3.066-.343-4.103-.43-7.505-.053-2.346.261-.565 6.212-.565 6.212s.282-1.196.664-1.762c.249-.369.718-.884.718-.884l1.116 2.532c.892 1.189 4.318.947 4.977 1.411.989.698 2.532 2.728 3.49 4.977 1.178 2.764 2.12 6.867 2.12 6.867s-.386-.167-1.321-.525c-2.453-.935-5.035-1.42-6.56-.659-2.76 1.379-3.675 1.872-6.323 4.042-1.826 1.498 2.718 5.412 2.718 5.412s-.222-1.053-.212-1.735c.009-.442.123-1.13.123-1.13l2.312 1.515c1.397.512 2.972-1.948 4.946-1.527 1.63.347 3.387 1.858 4.069 2.333a15.143 15.143 0 0 0 4.757 9.762c.863-.667 2.43-1.716 3.552-2.117 1.534-.546 18.145-1.802 18.145-1.802l-1.822-3.277 15.98-4.933v4.288c4.835-3.904 7.927-9.879 7.927-16.577 0-.348-.101-1.287-.17-1.945l2.56 1.58c.02-.28.092-1.137.092-1.432"/><path fill="#1D053D" d="M66.194 14.858s-5.895.022-7.746.022c-2.593 0-3.05-4.72-3.05-4.72s1.646 1.646 2.68 1.646l7.565.006.55 3.046zM31.313 61.184c1.56-.012 6.02-.094 10.16-.582 5.1-.602 11.298-6.66 15.806-9.418 1.652-1.015 13.743-2.4 18.149-2.89 6.84-.761 22.098 1.16 22.098 1.16s-21.022-.302-28.807 3.208C61.908 55.735 55.035 63.37 52.9 64.47c-1.974 1.017-6.738 2.774-8.077 3.018-1.007.184-3.878.447-5.241.565l-8.27-6.871z"/><path fill="#1D053D" d="M43.272 71.121c2.955-.858 10.252-3.02 11.022-3.618.974-.757 9.911-7.653 16.137-10.023 9.993-3.805 30.87-5.25 33.792-6.076 3.818-1.08 14.296-7.319 14.823-7.793.524-.472 1.653-1.265 1.653-1.265s-2.885 8.29-7.63 11.28c-4.166 2.625-21.748 1.842-25.483 2.345-6.869.925-17.995 7.538-27.959 17.054-1.112 1.063-7.34 3.416-9.148 4.087l-7.207-5.99z"/><path fill="#1D053D" d="M52.84 79.074c1.823-.55 6.73-2.09 8.047-3.139 1.626-1.29 14.02-10.72 21.672-13.22 8.988-2.936 31.057-2.74 31.057-2.74s-20.324 3.921-26.611 7.086c-6.287 3.16-19.496 16.026-20.895 16.454-1.157.353-4.653 1.392-5.83 1.742l-7.44-6.183z"/><g transform="translate(0 99.804)"><mask id="b" fill="#fff"><use xlink:href="#a"/></mask><path fill="#1D053D" d="M18.33.425H4.478l-.691 3.851h4.738c2.172 0 3.092-.034 3.885-.067-.66.691-1.252 1.35-1.812 2.106L.626 19.348 0 22.64h14.252l.757-3.95H10.63c-2.634 0-4.146 0-4.673.065.496-.527.889-1.02 1.283-1.547l10.466-13.36.624-3.422z" mask="url(#b)"/></g><path fill="#1D053D" d="M27.993 110.298c0 1.744-1.974 2.535-5.76 2.665.594-2.138 1.942-4.112 4.081-4.112 1.053 0 1.68.527 1.68 1.447m4.08-.558c0-1.974-1.249-3.982-5.299-3.982-5.1 0-9.246 4.64-9.246 11.486 0 3.617 1.643 5.528 5.791 5.528 2.172 0 4.31-.362 6.12-1.055v-3.224c-1.512.626-3.192.986-4.772.986-2.27 0-2.993-.558-2.993-2.433 0-.362.065-.923.1-1.285 6.416-.196 10.3-2.105 10.3-6.02m11.667.557c0 1.744-1.974 2.535-5.758 2.665.592-2.138 1.94-4.112 4.08-4.112 1.052 0 1.678.527 1.678 1.447m4.08-.558c0-1.974-1.251-3.982-5.298-3.982-5.1 0-9.246 4.64-9.246 11.486 0 3.617 1.645 5.528 5.79 5.528 2.173 0 4.31-.362 6.12-1.055v-3.224c-1.511.626-3.188.986-4.771.986-2.268 0-2.993-.558-2.993-2.433 0-.362.065-.923.099-1.285 6.417-.196 10.3-2.105 10.3-6.02m9.826-11.354c-2.37-.065-4.902.034-7.01.295l-.461 2.633a30.69 30.69 0 0 1 2.764.329l-.034.065-3.947 20.733h4.114l4.574-24.055z"/><g transform="translate(57 104.804)"><mask id="d" fill="#fff"><use xlink:href="#c"/></mask><path fill="#1D053D" d="M12.058 4.508L11.86 5.56c-.657 3.455-3.586 8.821-5.924 8.821-.822 0-1.25-.659-1.25-2.27 0-3.422 1.745-7.834 5.531-7.834.722 0 1.314.1 1.841.232zm4.673-3.027c-1.844-.363-3.818-.493-5.792-.493C3.764.988.441 6.714.441 12.9c0 3.49 1.351 5.1 3.852 5.1 3.256 0 5.528-3.158 6.842-5.56h.068c-.756 2.27-1.218 3.914-1.48 5.231 2.171.065 4.671-.034 6.778-.297l.493-2.63a28.986 28.986 0 0 1-2.733-.332l2.47-12.93z" mask="url(#d)"/></g><path fill="#1D053D" d="M93.097 111.155c.625-3.192-.329-5.43-3.52-5.43-3.093 0-5.364 2.533-6.879 5.464l-.065-.034c.92-2.568 1.283-4.115 1.481-5.1-2.172-.068-4.738.03-6.845.294l-.493 2.634c.954.065 2.04.198 2.762.328v.066l-2.5 13.066h4.113l.791-4.148c.691-3.815 3.684-8.95 5.89-8.95 1.02 0 1.348.824.986 2.83l-1.974 10.268h4.115l2.138-11.288z"/><g transform="translate(95 97.804)"><mask id="f" fill="#fff"><use xlink:href="#e"/></mask><path fill="#1D053D" d="M12.003 11.508l-.196 1.051c-.659 3.457-3.588 8.821-5.924 8.821-.824 0-1.25-.659-1.25-2.27 0-3.422 1.743-7.834 5.526-7.834a7.34 7.34 0 0 1 1.844.232zM18.191.582c-2.37-.065-4.905.034-7.009.295l-.496 2.634c.957.065 2.008.198 2.764.328l-.03.066-.79 4.213a11.436 11.436 0 0 0-1.746-.13C3.711 7.988.386 13.714.386 19.9c0 3.49 1.351 5.1 3.852 5.1 3.257 0 5.528-3.158 6.844-5.56h.066c-.756 2.27-1.249 3.948-1.447 5.231 2.138.065 4.64-.034 6.745-.297l.496-2.63a28.743 28.743 0 0 1-2.733-.332L18.191.582z" mask="url(#f)"/></g><path fill="#1D053D" d="M122.223 106.055c-2.368-.068-4.902.03-7.009.295l-.493 2.633c.954.066 2.042.198 2.764.329v.065l-2.5 13.064h4.112l3.126-16.386zm1.416-4.871c0-1.184-.988-2.302-2.436-2.302-1.447 0-2.764 1.15-2.764 2.73 0 1.218.988 2.37 2.436 2.37a2.767 2.767 0 0 0 2.764-2.798z"/><g transform="translate(123 104.804)"><mask id="h" fill="#fff"><use xlink:href="#g"/></mask><path fill="#1D053D" d="M12.133 4.508l-.198 1.051c-.657 3.455-3.586 8.821-5.922 8.821-.824 0-1.251-.659-1.251-2.27 0-3.422 1.744-7.834 5.527-7.834a7.34 7.34 0 0 1 1.844.232zm4.673-3.027c-1.844-.363-3.818-.493-5.792-.493C3.84.988.516 6.714.516 12.9c0 3.49 1.349 5.1 3.852 5.1 3.257 0 5.528-3.158 6.845-5.56h.065c-.76 2.27-1.218 3.914-1.481 5.231 2.172.065 4.673-.034 6.779-.297l.493-2.63a28.793 28.793 0 0 1-2.73-.332l2.467-12.93z" mask="url(#h)"/></g></g></svg>